<svg xmlns="http://www.w3.org/2000/svg" enable-background="new 0 0 4000 4000" viewBox="0 0 4000 4000"><polygon fill="#84f9e0" points="2008.251 1009.975 2234.533 1236.249 2099.684 1376.233 2758.375 1376.233 2758.375 693.083 2627.719 828.468 2408.741 609.498 1607.896 609.498 1241.626 975.756 1641.98 1376.233 2008.251 1009.975 2408.741 609.498"/><path fill="#381999" d="M2758.374,1395.955h-658.69c-7.91,0-15.055-4.726-18.149-12.005
				c-3.096-7.279-1.542-15.703,3.945-21.4l121.419-126.043l-198.647-198.641l-352.326,352.313
				c-3.698,3.698-8.715,5.776-13.945,5.776c0,0-0.001,0-0.001,0c-5.231,0-10.248-2.079-13.946-5.779l-400.354-400.477
				c-7.7-7.702-7.699-20.188,0.002-27.889l366.27-366.258c3.698-3.699,8.715-5.776,13.945-5.776h800.785c0.021,0,0.04,0,0.06,0
				c5.01,0,10.018,1.896,13.858,5.689c0.005,0.005,0.01,0.01,0.015,0.015c0.01,0.009,0.02,0.019,0.028,0.028
				c0.015,0.015,0.029,0.029,0.044,0.044l204.783,204.775l116.714-120.94c5.584-5.786,14.121-7.602,21.576-4.591
				c7.456,3.011,12.337,10.247,12.337,18.287v683.15C2778.096,1387.125,2769.267,1395.955,2758.374,1395.955z M2146.067,1356.511
				h592.586V741.92l-96.742,100.244c-3.675,3.808-8.725,5.979-14.016,6.026c-0.059,0-0.118,0.001-0.176,0.001
				c-5.229,0-10.245-2.076-13.945-5.776L2408.74,637.389l-372.598,372.586l212.335,212.328c7.601,7.601,7.716,19.887,0.259,27.628
				L2146.067,1356.511z M1269.515,975.759l372.468,372.581l719.144-719.12h-745.062L1269.515,975.759z"/><polygon fill="#84f9e0" points="1154.582 2709.493 1237.407 2400.396 1426.066 2447.183 1096.719 1876.758 505.074 2218.333 687.654 2263.788 607.502 2562.908 1007.925 3256.438 1508.26 3390.498 1654.917 2843.552 1154.582 2709.493 607.502 2562.908"/><path fill="#381999" d="M1508.272,3410.224c-1.689,0.001-3.407-0.219-5.117-0.677l-500.335-134.06
				c-5.053-1.354-9.36-4.658-11.976-9.188l-400.422-693.53c-2.466-4.271-3.34-9.461-2.063-14.604
				c0.003-0.016,0.007-0.029,0.011-0.045c0.001-0.003,0.001-0.006,0.002-0.009c0.026-0.103,0.052-0.205,0.08-0.308l74.955-279.728
				l-163.097-40.604c-7.803-1.943-13.645-8.428-14.765-16.39c-1.12-7.962,2.705-15.808,9.669-19.828l591.645-341.575
				c9.434-5.445,21.495-2.213,26.94,7.219l329.347,570.424c3.955,6.85,3.435,15.4-1.321,21.721
				c-4.756,6.319-12.83,9.184-20.505,7.283l-169.872-42.127l-72.71,271.349l481.285,128.956c5.053,1.354,9.361,4.659,11.976,9.19
				c2.615,4.53,3.324,9.914,1.969,14.967l-146.657,546.945C1524.947,3404.415,1516.979,3410.224,1508.272,3410.224z
				 M1020.92,3239.503l473.398,126.842l136.441-508.847l-982.369-263.217L1020.92,3239.503z M631.657,2548.962l508.979,136.377
				l77.72-290.047c2.783-10.383,13.368-16.62,23.797-14.038l143.641,35.622L1089.5,1903.698l-532.269,307.295l135.187,33.656
				c5.135,1.278,9.541,4.566,12.227,9.125s3.428,10.006,2.059,15.117L631.657,2548.962z"/><polygon fill="#84f9e0" points="2947.915 2582.446 2638.809 2665.268 2584.999 2478.496 2255.653 3048.922 2847.298 3390.498 2795.375 3209.657 3094.504 3129.507 3494.926 2435.978 3360.862 1935.659 2813.85 2082.127 2947.915 2582.446 3094.504 3129.507"/><path fill="#381999" d="M2847.295,3410.22c-3.39,0-6.793-0.873-9.857-2.643l-591.646-341.576
				c-4.53-2.615-7.836-6.923-9.189-11.976c-1.354-5.053-0.646-10.436,1.97-14.966l329.346-570.426
				c3.955-6.851,11.62-10.678,19.472-9.715c7.851,0.959,14.37,6.516,16.56,14.116l48.452,168.172l271.358-72.708l-128.96-481.268
				c-1.354-5.053-0.646-10.437,1.971-14.967s6.925-7.835,11.978-9.189l547.012-146.468c10.516-2.814,21.332,3.426,24.151,13.947
				l134.064,500.318c1.354,5.053,0.646,10.436-1.97,14.966l-400.399,693.491c-2.521,4.39-6.722,7.814-11.998,9.228
				c-0.021,0.006-0.042,0.012-0.063,0.018l-279.674,74.937l46.383,161.543c2.22,7.729-0.476,16.031-6.811,20.982
				C2855.897,3408.808,2851.607,3410.22,2847.295,3410.22z M2282.594,3041.703L2814.864,3349l-38.445-133.9
				c-1.461-5.086-0.815-10.545,1.789-15.151c2.605-4.605,6.951-7.972,12.063-9.341l280.08-75.045L2933.97,2606.6l-290.057,77.717
				c-10.384,2.78-21.08-3.261-24.056-13.59l-40.971-142.204L2282.594,3041.703z M2838.006,2096.076l263.225,982.336l372.53-645.222
				l-126.846-473.381L2838.006,2096.076z"/><polygon fill="#ffde7a" points="1795.261 2696.807 1895.655 2218.197 1711.037 2218.197 2171.429 1593.032 2070.678 2073.6 2255.653 2073.6"/><path fill="#381999" d="M1795.252,2716.531c-2.713,0-5.458-0.561-8.061-1.728c-8.461-3.794-13.136-12.97-11.233-22.045
			l95.408-454.84h-160.33c-7.439,0-14.245-4.186-17.602-10.825c-3.355-6.639-2.69-14.602,1.721-20.592l460.392-625.165
			c5.502-7.471,15.469-10.096,23.936-6.308c8.469,3.789,13.151,12.969,11.248,22.049l-95.769,456.799h160.689
			c7.444,0,14.255,4.192,17.608,10.838c3.353,6.646,2.678,14.615-1.745,20.603l-460.393,623.208
			C1807.309,2713.69,1801.36,2716.531,1795.252,2716.531z M1750.054,2198.474h145.601c5.941,0,11.565,2.678,15.311,7.29
			c3.745,4.612,5.211,10.667,3.992,16.481l-81.832,390.114l383.437-519.037h-145.885c-5.94,0-11.564-2.678-15.31-7.289
			c-3.745-4.612-5.212-10.666-3.993-16.48l82.136-391.772L1750.054,2198.474z"/></svg>