<svg xmlns="http://www.w3.org/2000/svg" fill-rule="evenodd" clip-rule="evenodd" image-rendering="optimizeQuality" shape-rendering="geometricPrecision" text-rendering="geometricPrecision" viewBox="0 0 512 512"><path fill="#fde5c9" d="M484.98 191.35l8.02 -34.25 -46.51 9.59c-0.37,5.05 -0.55,10.41 -0.55,16.1 0,2.28 0.9,4.45 2.5,6.06 1.61,1.6 3.78,2.5 6.06,2.5l30.48 0z"/><path fill="#99b4cd" d="M113.52 404.54c-1.53,0 -3.07,-0.59 -4.24,-1.76 -2.34,-2.34 -2.34,-6.14 0,-8.48l24.77 -24.77c2.34,-2.34 6.14,-2.35 8.48,0 2.35,2.34 2.35,6.14 0,8.48l-24.77 24.77c-1.17,1.17 -2.7,1.76 -4.24,1.76z"/><path fill="#c2d6e4" d="M290.59 442.94c59.16,0 114.78,-23.04 156.61,-64.87 86.35,-86.35 86.35,-226.85 0,-313.2 -41.83,-41.83 -97.45,-64.87 -156.61,-64.87 -59.16,0 -114.77,23.04 -156.6,64.87 -86.35,86.35 -86.35,226.85 0,313.2 41.83,41.83 97.44,64.87 156.6,64.87z"/><path fill="#70b7e5" d="M290.59 402.53c48.37,0 93.83,-18.84 128.03,-53.03 34.2,-34.2 53.03,-79.67 53.03,-128.03 0,-48.36 -18.83,-93.83 -53.03,-128.03 -34.2,-34.2 -79.66,-53.03 -128.03,-53.03 -48.36,0 -93.83,18.83 -128.03,53.03 -34.2,34.2 -53.03,79.67 -53.03,128.03 0,48.36 18.84,93.83 53.03,128.03 34.2,34.19 79.67,53.03 128.03,53.03z"/><path fill="#65a5ce" d="M418.62 93.44c34.2,34.2 53.03,79.67 53.03,128.03 0,43.17 -15,84.02 -42.54,116.62 20.14,-29.69 30.96,-64.69 30.96,-101.35 0,-48.37 -18.83,-93.83 -53.03,-128.03 -34.2,-34.2 -79.66,-53.03 -128.03,-53.03 -48.36,0 -93.83,18.83 -128.03,53.03 -3.67,3.68 -7.17,7.48 -10.49,11.41 6.43,-9.48 13.8,-18.41 22.07,-26.68 34.2,-34.2 79.67,-53.03 128.03,-53.03 48.37,0 93.83,18.83 128.03,53.03z"/><path fill="#afc1cd" d="M447.2 64.87c86.35,86.35 86.35,226.85 0,313.2 -15.44,15.44 -32.75,28.31 -51.42,38.42 12.92,-8.41 25.05,-18.23 36.21,-29.38 86.35,-86.35 86.35,-226.86 0,-313.21 -41.83,-41.83 -97.45,-64.86 -156.6,-64.86 -37.33,0 -73.25,9.17 -105.19,26.45 35.53,-23.1 77.01,-35.49 120.39,-35.49 59.16,0 114.78,23.04 156.61,64.87z"/><path fill="#a05b15" d="M34.1 512c-9.12,0 -17.68,-3.53 -24.09,-9.94 -13.29,-13.29 -13.29,-34.91 0,-48.2l59.56 -59.56c6.42,-6.42 14.97,-9.95 24.1,-9.95 9.12,0 17.68,3.53 24.09,9.95 6.42,6.41 9.95,14.97 9.95,24.09 0,9.13 -3.53,17.69 -9.95,24.1l-59.56 59.57c-6.42,6.41 -14.97,9.94 -24.1,9.94z"/><path fill="#a3dcf8" d="M337.19 192.35c-.99 0-1.99-.24-2.92-.75-2.9-1.62-3.93-5.27-2.32-8.17l23.21-41.65c1.62-2.89 5.27-3.93 8.17-2.32 2.89 1.61 3.93 5.27 2.32 8.16l-23.22 41.65c-1.1 1.97-3.14 3.08-5.24 3.08zM319.3 203.62c-1.29 0-2.58-.41-3.68-1.26l-48.04-37.3c-2.62-2.04-3.09-5.81-1.06-8.42 2.03-2.62 5.81-3.09 8.42-1.06l48.04 37.3c2.62 2.04 3.1 5.81 1.06 8.42-1.18 1.53-2.95 2.32-4.74 2.32zM206.73 211.36c-1.48 0-2.95-.54-4.11-1.63-2.42-2.27-2.53-6.07-.26-8.48l41.5-44.03c2.27-2.41 6.07-2.53 8.48-.25 2.41 2.27 2.52 6.07.25 8.48l-41.49 44.03c-1.18 1.25-2.78 1.88-4.37 1.88z"/><path fill="#fc6559" d="M338.39 333.83l-26.71 0c-3.31,0 -6,-2.69 -6,-6l0 -85.7c0,-3.31 2.69,-6 6,-6l26.71 0c3.32,0 6,2.69 6,6l0 85.7c0,3.31 -2.68,6 -6,6z"/><path fill="#9a59de" d="M276.83 333.83l-26.72 0c-3.31,0 -6,-2.69 -6,-6l0 -57.3c0,-3.31 2.69,-6 6,-6l26.72 0c3.31,0 6,2.69 6,6l0 57.3c0,3.31 -2.69,6 -6,6z"/><path fill="#fc6559" d="M215.26 333.83l-26.71 0c-3.31,0 -6,-2.69 -6,-6l0 -32.38c0,-3.32 2.69,-6 6,-6l26.71 0c3.31,0 6,2.68 6,6l0 32.38c0,3.31 -2.69,6 -6,6z"/><path fill="#27d674" d="M399.96 333.83l-26.71 0c-3.31 0-6-2.69-6-6l0-114.6c0-3.31 2.69-6 6-6l26.71 0c3.31 0 6 2.69 6 6l0 114.6c0 3.31-2.69 6-6 6zM364.58 151.29l0 0c-9.55 0-17.94-6.44-20.41-15.67-1.46-5.45-.71-11.15 2.11-16.03 2.82-4.89 7.38-8.39 12.84-9.85 1.79-.48 3.63-.73 5.47-.73 9.55 0 17.94 6.45 20.41 15.67 1.46 5.46.71 11.15-2.11 16.04-2.82 4.89-7.38 8.39-12.84 9.85-1.79.48-3.63.72-5.47.72z"/><path fill="#9a59de" d="M259.3 172.16l0 0c-9.54,0 -17.93,-6.44 -20.4,-15.67 -3.02,-11.25 3.69,-22.87 14.94,-25.88 1.79,-0.48 3.64,-0.73 5.48,-0.73 9.55,0 17.94,6.45 20.41,15.67 1.46,5.46 0.71,11.15 -2.11,16.04 -2.83,4.89 -7.38,8.39 -12.84,9.85 -1.79,0.48 -3.64,0.72 -5.48,0.72z"/><path fill="#fc6559" d="M196.33 237.51l0 0c-9.54 0-17.93-6.44-20.41-15.67-3.01-11.26 3.69-22.87 14.95-25.88 1.79-.48 3.63-.73 5.48-.73 9.54 0 17.93 6.45 20.4 15.67 1.47 5.45.72 11.15-2.11 16.04-2.82 4.89-7.38 8.39-12.83 9.85-1.79.48-3.64.72-5.48.72zM334.02 222.3l0 0c-9.55 0-17.94-6.45-20.41-15.67-1.46-5.45-.71-11.15 2.11-16.04 2.82-4.89 7.38-8.39 12.83-9.85 1.8-.48 3.64-.72 5.48-.72 9.55 0 17.94 6.44 20.41 15.67 3.02 11.25-3.69 22.87-14.95 25.88-1.79.49-3.63.73-5.47.73z"/></svg>