<svg xmlns="http://www.w3.org/2000/svg" fill-rule="evenodd" clip-rule="evenodd" image-rendering="optimizeQuality" shape-rendering="geometricPrecision" text-rendering="geometricPrecision" viewBox="0 0 25441 25441"><circle cx="12721" cy="12721" r="12721" fill="#72cf7b"/><rect width="21677" height="16097" x="1882" y="2835" fill="#fff" rx="966" ry="1069"/><path fill="#1c3b5c" d="M2951 2835l19539 0c588,0 1069,481 1069,1069l0 12559 -21677 0 0 -12559c0,-588 481,-1069 1069,-1069z"/><rect width="20096" height="11817" x="2672" y="3767" fill="#fff"/><circle cx="12721" cy="17603" r="537" fill="#afb0b5"/><rect width="4537" height="1929" x="10452" y="18931" fill="#fff"/><rect width="4537" height="788" x="10452" y="18931" fill="#e1e3e8"/><path fill="#e1e3e8" d="M9647 22606l6175 0c315,0 465,-392 254,-612l-1087 -1134 -4537 0 -1051 1086c-185,191 -61,660 246,660z"/><rect width="745" height="1143" fill="#0f2032" transform="matrix(1.19971 -.66645 .56027 1.00858 17598.2 13493.6)"/><rect width="2162" height="7081" fill="#ff576b" rx="522" ry="522" transform="rotate(-29.052 37620.927 -26951.045) scale(.91485)"/><path fill="#e1e3e8" d="M18239 14646l894 -496c229,-128 521,-45 649,185l198 357 -1729 960 -198 -357c-127,-229 -44,-521 186,-649z"/><path fill="#152b44" d="M14020 5836c2129,-1183 4813,-416 5996,1713 1182,2129 415,4813 -1713,5995 -2129,1183 -4813,416 -5996,-1713 -1182,-2129 -415,-4813 1713,-5995zm331 595c1800,-999 4069,-351 5069,1449 1000,1800 351,4069 -1448,5069 -1800,999 -4069,351 -5069,-1449 -1000,-1799 -351,-4069 1448,-5069z"/><circle r="3081" fill="#ffc42e" transform="rotate(-29.053 26779.583 -26341.94) scale(1.01199)"/><path fill="#ff576b" d="M14648 6965l1514 2725 714 -3035c-729,-171 -1522,-83 -2228,310z"/><path fill="#53b4ed" d="M19275 9851l-3113 -161 714 -3035c824,195 1567,722 2011,1521 295,531 418,1110 388,1675z"/><rect width="1373" height="4099" x="4580" y="10673" fill="#ff576b"/><rect width="1373" height="6075" x="6732" y="8698" fill="#53b4ed"/><rect width="1373" height="9433" x="8883" y="5339" fill="#ffc42e"/><polygon fill="#72cf7b" points="3229 9709 6172 6164 5612 5746 7698 4917 7332 7105 6790 6624"/></svg>