<svg xmlns="http://www.w3.org/2000/svg" viewBox="0 0 24 24"><path fill="none" stroke="#303c42" stroke-linecap="round" stroke-linejoin="round" d="M2.8 5.5h0L2 4.9l-.7.6h-.2v-.1l.2-1-.8-.7v-.2h.1l1-.1.3-.9c0-.1.1-.1.2-.1l.1.1.3.9 1 .1c.1 0 .1.1.1.1v.1l-.8.7.2 1v.1h-.2zm20 0h0l-.8-.6-.7.5h-.2v-.1l.2-1-.8-.7v-.2h.1l1-.1.4-.8c0-.1.1-.1.2-.1l.1.1.3.9 1 .1c.1 0 .1.1.1.1v.1l-.8.7.2 1v.1h-.3zm-9.4 0h-.1L12 4.6l-1.2.9c-.1.1-.2 0-.3 0v-.2l.4-1.6-1.3-1.1c-.1-.1-.1-.2 0-.3l.1-.1 1.6-.2.5-1.4c0-.1.1-.2.2-.1.1 0 .1.1.1.1l.6 1.4 1.6.2c.1 0 .2.1.2.2s0 .1-.1.1l-1.3 1.1.4 1.6c.1.2 0 .3-.1.3 0 0 0 0 0 0h0zm-5.8 0s-.1 0 0 0l-1.1-.7-1 .7h-.2c-.1 0-.1-.1-.1-.2L5.6 4l-1-.9c-.1 0-.1-.1 0-.2l.1-.1L6 2.7l.4-1.1c0-.1.1-.1.2-.1s.1.1.1.1l.4 1.1 1.3.1c.1.1.1.2.1.2s0 .1-.1.1l-1 .9.3 1.3c0 .1 0 .1-.1.2h0zm11 0s-.1 0 0 0l-1.1-.7-1 .7h-.2c-.1 0-.1-.1-.1-.2l.4-1.3-1-.9c-.1 0-.1-.1 0-.2l.1-.1 1.3-.1.4-1.1c0-.1.1-.1.2-.1s.1.1.1.1l.4 1.1 1.3.1c.1 0 .1.1.1.2 0 0 0 .1-.1.1l-1 .9.3 1.3c.1.1 0 .1-.1.2h0zM9 7.5h6c.8 0 1.5.7 1.5 1.5v14.5h0-9 0V9c0-.8.7-1.5 1.5-1.5zm-5 5h3.5v11h0-5 0V14c0-.8.7-1.5 1.5-1.5zm12.5 0H20c.8 0 1.5.7 1.5 1.5v9.5h0-5 0v-11h0z"/><path fill="none" stroke="#303c42" stroke-linecap="round" stroke-linejoin="round" d="M4.5 14.5h1v1h-1zM9.5 9.5H11v1H9.5zM13 9.5h1.5v1H13zM9.5 12.5H11v1H9.5zM13 12.5h1.5v1H13zM9.5 15.5H11v1H9.5zM13 15.5h1.5v1H13zM4.5 17.5h1v1h-1zM4.5 20.5h1v1h-1zM18.5 14.5h1v1h-1zM18.5 17.5h1v1h-1zM18.5 20.5h1v1h-1zM10.5 18.5h3v5h-3z"/></svg>