<svg xmlns="http://www.w3.org/2000/svg" viewBox="0 0 16 16"><path d="M14.854 3.974a.502.502 0 0 0-.707 0l-1.768 1.768a.501.501 0 0 1-.707 0 .502.502 0 0 1 0-.707l1.768-1.768c.194-.194.194-.513 0-.707s-.513-.194-.707 0l-1.768 1.768a.502.502 0 0 1-.707 0 .502.502 0 0 1 0-.707l1.768-1.768a.5.5 0 0 0-.707-.707L8.49 3.974a2 2 0 0 0 0 2.828l.707.708a2 2 0 0 0 2.828 0l2.828-2.828a.5.5 0 0 0 .001-.708zM1.686 1.272l-.083.25a5 5 0 0 0 1.208 5.117l1.076 1.076a8.006 8.006 0 0 0 3.127 1.933l.33.11 4.95 4.95a.999.999 0 1 0 1.414-1.414L1.686 1.272zM2 11.879l-.707.707a.999.999 0 0 0 0 1.414l.707.707a.999.999 0 0 0 1.414 0L4.121 14l2.334-3.501a9.078 9.078 0 0 1-1.402-.656L2 11.879z"/></svg>