<svg xmlns="http://www.w3.org/2000/svg" enable-background="new 0 0 64 64" viewBox="0 0 64 64"><path fill="#02BEFF" d="M53.4,32.6V15.2c0-1.6,1.3-2.8,2.8-2.8c1.6,0,2.8,1.3,2.8,2.8v17.4l-1,17.1h-3.7L53.4,32.6z"/><path fill="#FECB4D" d="M57.8,49.6h-3.1c0.2,2.2-1.5,5.8-1.5,5.8c1.4,0.6,3.1,4.2,3.1,4.2s1.6-3.6,3.1-4.2
		C59.3,55.4,57.5,51.8,57.8,49.6z"/><path fill="#E3ECFF" d="M33.7,7.9h8.8c2.2,0,4,1.8,4,4V59c0,2.2-1.8,4-4,4H8.7c-2.2,0-4-1.8-4-4V11.9c0-2.2,1.8-4,4-4h8.8"/><path fill="#FF5892" d="M16.1,23h-3.7c-0.5,0-0.9-0.4-0.9-0.9v-3.7c0-0.5,0.4-0.9,0.9-0.9h3.7c0.5,0,0.9,0.4,0.9,0.9v3.7
		C17,22.6,16.6,23,16.1,23z"/><path fill="#02BEFF" d="M16.1,33.1h-3.7c-0.5,0-0.9-0.4-0.9-0.9v-3.7c0-0.5,0.4-0.9,0.9-0.9h3.7c0.5,0,0.9,0.4,0.9,0.9v3.7
		C17,32.7,16.6,33.1,16.1,33.1z"/><path fill="#06D506" d="M16.1,43.1h-3.7c-0.5,0-0.9-0.4-0.9-0.9v-3.7c0-0.5,0.4-0.9,0.9-0.9h3.7c0.5,0,0.9,0.4,0.9,0.9v3.7
		C17,42.7,16.6,43.1,16.1,43.1z"/><path fill="#CC87FE" d="M16.1,53.2h-3.7c-0.5,0-0.9-0.4-0.9-0.9v-3.7c0-0.5,0.4-0.9,0.9-0.9h3.7c0.5,0,0.9,0.4,0.9,0.9v3.7
		C17,52.8,16.6,53.2,16.1,53.2z"/><path fill="#FECB4D" d="M31.4 10.8H19.7c-1.2 0-2.2-1-2.2-2.2V7.2c0-1.2 1-2.2 2.2-2.2h11.7c1.2 0 2.2 1 2.2 2.2v1.4C33.7 9.8 32.7 10.8 31.4 10.8zM25.6 1c-2.2 0-4 1.8-4 4h7.9C29.6 2.8 27.8 1 25.6 1z"/><path fill="none" stroke="#2A3C65" stroke-linecap="round" stroke-linejoin="round" stroke-miterlimit="10" stroke-width="1.5" d="
		M58.2,52.5c0.4,1.6,1.1,2.9,1.1,2.9c-1.4,0.6-3.1,4.2-3.1,4.2s-1.6-3.6-3.1-4.2c0,0,0.7-1.3,1.1-2.9"/><line x1="56.2" x2="56.2" y1="55.5" y2="54.8" fill="none" stroke="#2A3C65" stroke-linecap="round" stroke-linejoin="round" stroke-miterlimit="10"/><path fill="none" stroke="#2A3C65" stroke-linecap="round" stroke-linejoin="round" stroke-miterlimit="10" stroke-width="1.5" d="
		M36.6,7.9h5.9c2.2,0,4,1.8,4,4V59c0,2.2-1.8,4-4,4H8.7c-2.2,0-4-1.8-4-4V11.9c0-2.2,1.8-4,4-4h5.9"/><line x1="21.1" x2="39.6" y1="18.4" y2="18.4" fill="none" stroke="#2A3C65" stroke-linecap="round" stroke-linejoin="round" stroke-miterlimit="10"/><line x1="21.1" x2="35.1" y1="21.5" y2="21.5" fill="none" stroke="#2A3C65" stroke-linecap="round" stroke-linejoin="round" stroke-miterlimit="10"/><line x1="21.1" x2="39.6" y1="28.4" y2="28.4" fill="none" stroke="#2A3C65" stroke-linecap="round" stroke-linejoin="round" stroke-miterlimit="10"/><line x1="21.1" x2="35.1" y1="31.6" y2="31.6" fill="none" stroke="#2A3C65" stroke-linecap="round" stroke-linejoin="round" stroke-miterlimit="10"/><line x1="21.1" x2="39.6" y1="38.5" y2="38.5" fill="none" stroke="#2A3C65" stroke-linecap="round" stroke-linejoin="round" stroke-miterlimit="10"/><line x1="21.1" x2="35.1" y1="41.6" y2="41.6" fill="none" stroke="#2A3C65" stroke-linecap="round" stroke-linejoin="round" stroke-miterlimit="10"/><line x1="21.1" x2="39.6" y1="48.5" y2="48.5" fill="none" stroke="#2A3C65" stroke-linecap="round" stroke-linejoin="round" stroke-miterlimit="10"/><line x1="21.1" x2="35.1" y1="51.7" y2="51.7" fill="none" stroke="#2A3C65" stroke-linecap="round" stroke-linejoin="round" stroke-miterlimit="10"/><path fill="none" stroke="#2A3C65" stroke-linecap="round" stroke-linejoin="round" stroke-miterlimit="10" stroke-width="1.5" d="
		M53.4,32.6V15.2c0-1.6,1.3-2.8,2.8-2.8c1.6,0,2.8,1.3,2.8,2.8v17.4l-1,17.1h-3.7L53.4,32.6z"/><line x1="53.3" x2="57.2" y1="16.6" y2="16.6" fill="none" stroke="#2A3C65" stroke-linecap="round" stroke-linejoin="round" stroke-miterlimit="10"/><line x1="56.2" x2="56.2" y1="16.6" y2="28.6" fill="none" stroke="#2A3C65" stroke-linecap="round" stroke-linejoin="round" stroke-miterlimit="10"/><line x1="56.3" x2="59" y1="32.6" y2="32.6" fill="none" stroke="#2A3C65" stroke-linecap="round" stroke-linejoin="round" stroke-miterlimit="10"/><path fill="none" stroke="#2A3C65" stroke-linecap="round" stroke-linejoin="round" stroke-miterlimit="10" stroke-width="1.5" d="M31.4 10.8H19.7c-1.2 0-2.2-1-2.2-2.2V7.2c0-1.2 1-2.2 2.2-2.2h11.7c1.2 0 2.2 1 2.2 2.2v1.4C33.7 9.8 32.7 10.8 31.4 10.8zM22.9 2.1C23.6 1.4 24.6 1 25.6 1s2 .4 2.7 1.1"/><path fill="none" stroke="#2A3C65" stroke-linecap="round" stroke-linejoin="round" stroke-miterlimit="10" d="M16.1 23h-3.7c-.5 0-.9-.4-.9-.9v-3.7c0-.5.4-.9.9-.9h3.7c.5 0 .9.4.9.9v3.7C17 22.6 16.6 23 16.1 23zM16.1 33.1h-3.7c-.5 0-.9-.4-.9-.9v-3.7c0-.5.4-.9.9-.9h3.7c.5 0 .9.4.9.9v3.7C17 32.7 16.6 33.1 16.1 33.1zM16.1 43.1h-3.7c-.5 0-.9-.4-.9-.9v-3.7c0-.5.4-.9.9-.9h3.7c.5 0 .9.4.9.9v3.7C17 42.7 16.6 43.1 16.1 43.1zM16.1 53.2h-3.7c-.5 0-.9-.4-.9-.9v-3.7c0-.5.4-.9.9-.9h3.7c.5 0 .9.4.9.9v3.7C17 52.8 16.6 53.2 16.1 53.2z"/></svg>