<svg xmlns="http://www.w3.org/2000/svg" viewBox="0 0 124 124"><path fill="#0087ff" d="M93.179 28.738c0-.266.044-.531.044-.797C93.222 13.709 81.734 2 67.809 2c-10.03 0-18.668 6.175-22.715 14.83a12.623 12.623 0 0 0-5.831-1.417c-6.44 0-11.771 5.246-12.815 11.51-7.659 2.7-13.185 9.783-13.185 18.549 0 11.023 8.725 20.275 19.495 20.275h60.138c9.791 0 17.841-8.61 17.841-18.659 0-10.094-7.702-18.328-17.558-18.35z"/><path fill="#005deb" d="M110.737 47.088c0-7.57-4.333-14.094-10.657-16.892l-.037.083c-1.04 2.35-.38 5.041 1.49 6.804 2.631 2.481 4.204 6.091 4.204 10.005 0 7.404-5.88 13.659-12.841 13.659H50.459a5 5 0 0 0-5 5h47.437c9.791 0 17.841-8.611 17.841-18.659z"/><path fill="#26a7ff" d="M18.263 45.472c0-6.294 3.866-11.724 9.848-13.833l2.784-.981.485-2.912c.685-4.111 4.147-7.332 7.883-7.332 1.24 0 2.432.29 3.542.861l4.618 2.379 2.201-4.706C53.018 11.69 60.156 7 67.809 7c1.192 0 2.371.106 3.53.318 2.627.48 5.251-.818 6.315-3.266A24.62 24.62 0 0 0 67.809 2c-10.03 0-18.668 6.175-22.715 14.83a12.623 12.623 0 0 0-5.831-1.417c-6.44 0-11.771 5.246-12.815 11.51-7.659 2.7-13.185 9.783-13.185 18.549 0 2.331.41 4.574 1.128 6.676 2.403-.82 4.069-3.117 3.905-5.651a15.9 15.9 0 0 1-.033-1.025z"/><path fill="#80c3ff" d="m100.043 30.278.037-.083a17.094 17.094 0 0 0-6.901-1.457c0-10.614-5.831-20.471-15.524-24.686-1.065 2.449-3.689 3.746-6.315 3.266a15.16 15.16 0 0 0-3.84-.306v8.3c0 15.458 12.531 27.99 27.99 27.99h9.726c-.662-2.409-1.93-4.567-3.681-6.219-1.871-1.764-2.532-4.454-1.492-6.805z" opacity=".4"/><path fill="#80aef5" d="M100.08 30.195c-.971 2.149-.562 5.158 1.454 6.887 1.827 1.568 3.02 3.81 3.681 6.219h5.143a14.568 14.568 0 0 0-.396-1.654c-1.467-4.993-5.1-9.336-9.882-11.452z" opacity=".4"/><path fill="#93d3ff" d="M71.339 7.318c2.633.446 5.251-.818 6.315-3.266a24.832 24.832 0 0 0-10.155-2.04v5c.104-.002 1.407-.106 3.84.306z" opacity=".4"/><path fill="#050577" d="M92.896 67.747H32.758c-11.853 0-21.495-9.993-21.495-22.275 0-8.92 5.24-16.662 13.447-20.026 2.055-8.499 10.96-14.212 19.456-11.193C48.995 5.535 58.079 0 67.809 0c14.757 0 26.828 11.947 27.393 26.85 9.838 1.074 17.536 9.748 17.536 20.237-.001 11.199-9.087 20.66-19.842 20.66zM39.263 17.414c-5.246 0-9.907 4.229-10.842 9.838a2.002 2.002 0 0 1-1.308 1.558c-7.199 2.538-11.851 9.078-11.851 16.662 0 10.077 7.848 18.275 17.495 18.275h60.138c8.587 0 15.841-7.629 15.841-16.659 0-9.148-6.836-16.403-15.563-16.349-1.893.012-1.952-1.66-1.952-2.797C91.222 14.74 80.719 4 67.809 4c-8.813 0-17.018 5.369-20.903 13.677-.645 1.084-1.554 1.394-2.728.931a10.626 10.626 0 0 0-4.915-1.194zM64 102.941h-4v-4.399h4v4.399zm0-8.799h-4v-4.399h4v4.399zm0-8.798h-4v-4.399h4v4.399zm0-8.799h-4v-4.399h4v4.399z"/><ellipse cx="62" cy="115.17" fill="#ff2641" rx="6.818" ry="6.83"/><path fill="#c32545" d="M68.63 116.778a6.854 6.854 0 0 0-.312-4.169l-2.407.972c-.68.275-1.073.943-1.094 1.676l-.001.033c-.063 1.559-1.489 2.693-3.05 2.7-2.079.009-2.452 1.708-3.249 3.043a6.78 6.78 0 0 0 4.599.876c2.677-.433 4.896-2.49 5.514-5.131z"/><path fill="#ff655a" d="M59.19 114.94c.099-1.334 1.206-2.467 2.538-2.588l.033-.003c.862-.068 1.642-.524 1.98-1.32l.913-2.153a6.842 6.842 0 0 0-3.634-.468c-2.878.402-5.242 2.698-5.735 5.562a6.83 6.83 0 0 0 .779 4.552c1.237-.698 3.242-1.417 3.125-3.153-.01-.141-.01-.284.001-.429z"/><path fill="#050577" d="M62 124c-4.862 0-8.818-3.961-8.818-8.83s3.956-8.83 8.818-8.83 8.818 3.961 8.818 8.83S66.862 124 62 124zm0-13.66c-2.657 0-4.818 2.167-4.818 4.83S59.343 120 62 120s4.818-2.167 4.818-4.83-2.161-4.83-4.818-4.83zM41.273 92.03h-4v-4.047h4v4.047zm0-8.094h-4v-4.047h4v4.047zm0-8.095h-4v-4.047h4v4.047zm-2 24.237h-2v-4h4v2a2 2 0 0 1-2 2zm-6.065 0h-4.065v-4h4.065v4zm-8.13 0h-4.065v-4h4.065v4z"/><ellipse cx="8.818" cy="98.077" fill="#ff2641" rx="6.818" ry="6.83"/><path fill="#c32545" d="M15.448 99.685a6.854 6.854 0 0 0-.312-4.169c-.906.127-3.23.561-3.502 2.682-.199 1.548-1.491 2.621-3.05 2.7-2.022.102-2.93 1.983-3.249 3.043a6.78 6.78 0 0 0 4.599.876c2.677-.433 4.896-2.491 5.514-5.132z"/><path fill="#ff655a" d="M6.008 97.847c.145-1.33 1.222-2.348 2.538-2.588 1.939-.353 2.689-2.367 2.925-3.475a6.842 6.842 0 0 0-3.634-.468c-2.878.402-5.242 2.698-5.735 5.562a6.83 6.83 0 0 0 .779 4.552c1.497-.536 2.869-1.218 3.127-3.583z"/><path fill="#050577" d="M8.818 106.907c-4.862 0-8.818-3.961-8.818-8.83s3.956-8.83 8.818-8.83 8.818 3.961 8.818 8.83-3.955 8.83-8.818 8.83zm0-13.659C6.162 93.248 4 95.415 4 98.078s2.162 4.83 4.818 4.83 4.818-2.167 4.818-4.83-2.161-4.83-4.818-4.83zM86.727 92.03h-4v-4.047h4v4.047zm0-8.094h-4v-4.047h4v4.047zm0-8.095h-4v-4.047h4v4.047zm0 24.237h-2a2 2 0 0 1-2-2v-2h4v4zm16.26 0h-4.065v-4h4.065v4zm-8.13 0h-4.065v-4h4.065v4z"/><ellipse cx="115.182" cy="98.562" fill="#ff2641" rx="6.818" ry="6.83"/><path fill="#c32545" d="M121.812 100.17a6.854 6.854 0 0 0-.312-4.169l-2.407.972c-.68.275-1.073.943-1.094 1.676l-.001.033c-.063 1.559-1.494 2.824-3.05 2.7-.044-.003-.087-.008-.13-.013-.714-.09-1.418.208-1.787.826l-1.332 2.23a6.78 6.78 0 0 0 4.599.876c2.677-.433 4.896-2.49 5.514-5.131z"/><path fill="#ff655a" d="M112.372 98.332c.099-1.334 1.206-2.467 2.538-2.588l.033-.003c.862-.068 1.642-.524 1.98-1.32l.913-2.153a6.842 6.842 0 0 0-3.634-.468c-2.878.402-5.242 2.698-5.735 5.562a6.83 6.83 0 0 0 .779 4.552l1.903-1.073c.752-.424 1.28-1.22 1.222-2.081-.01-.139-.01-.283.001-.428z"/><path fill="#050577" d="M115.182 107.392c-4.862 0-8.818-3.961-8.818-8.83s3.956-8.83 8.818-8.83S124 93.693 124 98.562s-3.956 8.83-8.818 8.83zm0-13.66c-2.657 0-4.818 2.167-4.818 4.83s2.161 4.83 4.818 4.83 4.818-2.167 4.818-4.83-2.162-4.83-4.818-4.83zM79.76 35.595c-4.74-4.959-11.056-7.677-17.76-7.677-6.704 0-13.011 2.726-17.759 7.676a2 2 0 1 1-2.887-2.769c5.51-5.743 12.842-8.906 20.646-8.906s15.137 3.164 20.647 8.907a2 2 0 0 1-.059 2.828c-.388.371-1.963.846-2.828-.059z"/><path fill="#050577" d="M73.819 43.91a1.994 1.994 0 0 1-1.444-.616C69.6 40.4 65.915 38.806 62 38.806c-3.914 0-7.598 1.593-10.374 4.487a2 2 0 1 1-2.887-2.769c3.538-3.687 8.247-5.717 13.26-5.717 5.015 0 9.71 2.046 13.263 5.72 1.425 1.473.344 3.157-1.443 3.383z"/><circle cx="62.001" cy="50.865" r="5" fill="#74d2f7"/><path fill="#3accf9" d="M62.001 55.865a5 5 0 0 0 5-5c0-1.06-.334-2.039-.897-2.848-.825.194-2.354.92-2.447 2.201-.108 1.492-1.431 2.66-2.928 2.588-1.151-.056-1.885.668-2.301 1.55a4.98 4.98 0 0 0 3.573 1.509z"/><path fill="#d7f4ff" d="M60.256 51.495c-.092-1.368.749-2.334 2.499-2.963 1.432-.515 1.792-1.208 2.158-1.717a4.96 4.96 0 0 0-2.912-.95 5 5 0 0 0-5 5c0 1.212.448 2.308 1.166 3.173.343-.045 2.02-1.022 2.089-2.543z"/><path fill="#050577" d="M62 57.865c-3.86 0-7-3.14-7-7s3.14-7 7-7 7 3.14 7 7-3.14 7-7 7zm0-10c-1.654 0-3 1.346-3 3s1.346 3 3 3 3-1.346 3-3-1.345-3-3-3z"/></svg>