<svg xmlns="http://www.w3.org/2000/svg" enable-background="new 0 0 512 512" viewBox="0 0 512 512"><path fill="#34314c" d="M86.6 138.4c-34.4 0-62.4-28-62.4-62.4s28-62.4 62.4-62.4S149 41.6 149 76s-28 62.4-62.4 62.4zm0-114.8c-28.9 0-52.4 23.5-52.4 52.4s23.5 52.4 52.4 52.4S139 104.9 139 76s-23.5-52.4-52.4-52.4z"/><path fill="#ff7473" d="M59.9 110.1s2.5-35.6 26.8-35.6c25.5 0 26.8 35.6 26.8 35.6"/><circle cx="86.6" cy="51.3" r="17.4" fill="#ff7473"/><path fill="#34314c" d="M253.2 338.8c-50 0-90.7-40.7-90.7-90.7s40.7-90.7 90.7-90.7 90.7 40.7 90.7 90.7c.1 50-40.6 90.7-90.7 90.7zm0-168.4c-42.9 0-77.7 34.9-77.7 77.7s34.9 77.7 77.7 77.7c42.9 0 77.7-34.9 77.7-77.7s-34.8-77.7-77.7-77.7z"/><path fill="#f5b352" d="M213.7 205.8v54.8h33.7v-54.8h-33.7zm14.3 14.9h-10v-11.4h10v11.4zm15.4 16.5h-10v-11.4h10v11.4zM249.4 186.7v73.9h43.4v-73.9h-43.4zm13 50.8h-9.3v-11.4h9.3v11.4zm0-34h-9.3v-11.4h9.3v11.4zm13.3 51.2h-9.3v-11.4h9.3v11.4zm13.2-17.2h-9.3v-11.4h9.3v11.4zm0-17.2h-9.3v-11.4h9.3v11.4z"/><path fill="#34314c" d="M74 459.7c-34.4 0-62.4-28-62.4-62.4S39.6 335 74 335s62.4 28 62.4 62.4-28 62.3-62.4 62.3zM74 345c-28.9 0-52.4 23.5-52.4 52.4s23.5 52.4 52.4 52.4 52.4-23.5 52.4-52.4S102.9 345 74 345z"/><path fill="#ff7473" d="M47.2 431.5s2.5-35.6 26.8-35.6c25.5 0 26.8 35.6 26.8 35.6"/><circle cx="74" cy="372.7" r="17.4" fill="#ff7473"/><path fill="#34314c" d="M378.8 131.1c-34.4 0-62.4-28-62.4-62.4s28-62.4 62.4-62.4 62.4 28 62.4 62.4-28 62.4-62.4 62.4zm0-114.8c-28.9 0-52.4 23.5-52.4 52.4s23.5 52.4 52.4 52.4 52.4-23.5 52.4-52.4-23.6-52.4-52.4-52.4z"/><path fill="#ff7473" d="M352 102.8s2.5-35.6 26.8-35.6c25.5 0 26.8 35.6 26.8 35.6"/><circle cx="378.8" cy="44.1" r="17.4" fill="#ff7473"/><path fill="#34314c" d="M344 507c-34.4 0-62.4-28-62.4-62.4s28-62.4 62.4-62.4 62.4 28 62.4 62.4-28 62.4-62.4 62.4zm0-114.7c-28.9 0-52.4 23.5-52.4 52.4S315.2 497 344 497s52.4-23.5 52.4-52.4-23.5-52.3-52.4-52.3z"/><path fill="#ff7473" d="M317.3 478.8s2.5-35.6 26.8-35.6c25.5 0 26.8 35.6 26.8 35.6"/><circle cx="344" cy="420" r="17.4" fill="#ff7473"/><path fill="#34314c" d="M436.1 334.2c-34.4 0-62.4-28-62.4-62.4s28-62.4 62.4-62.4 62.4 28 62.4 62.4-28 62.4-62.4 62.4zm0-114.7c-28.9 0-52.4 23.5-52.4 52.4s23.5 52.4 52.4 52.4 52.4-23.5 52.4-52.4-23.5-52.4-52.4-52.4z"/><path fill="#ff7473" d="M409.4 306s2.5-35.6 26.8-35.6c25.5 0 26.8 35.6 26.8 35.6"/><circle cx="436.1" cy="247.2" r="17.4" fill="#ff7473"/><path fill="#34314c" d="M154.1 104.8h10v98h-10z" transform="rotate(-42.958 159.101 153.831)"/><path fill="#34314c" d="M285 142.4h77.4v10H285z" transform="rotate(-55.018 323.703 147.402)"/><path fill="#34314c" d="M353.4 239.3h10v42.4h-10z" transform="rotate(-81.686 358.416 260.47)"/><path fill="#34314c" d="M299.4 316.2h10v79.6h-10z" transform="rotate(-25.365 304.357 355.958)"/><path fill="#34314c" d="M107.1 325.9h91.6v10h-91.6z" transform="rotate(-39.529 152.888 330.855)"/><path fill="#d2d4d8" d="M231 302.6c-1.4.7-4.5 1.4-8.6 1.4-11.6 0-17.5-7.2-17.5-16.7 0-11.4 8.1-17.8 18.3-17.8 3.9 0 6.9.8 8.2 1.5l-1.5 6c-1.5-.6-3.7-1.2-6.3-1.2-6 0-10.7 3.6-10.7 11.1 0 6.7 4 10.9 10.7 10.9 2.3 0 4.8-.5 6.3-1.1l1.1 5.9zM236 270.6c2.4-.4 6.1-.7 10.1-.7 5 0 8.4.7 10.8 2.6 2 1.6 3.1 3.9 3.1 7 0 4.3-3 7.2-5.9 8.2v.1c2.3.9 3.6 3.2 4.5 6.2 1 3.8 2.1 8.1 2.7 9.4h-7.7c-.5-.9-1.3-3.7-2.3-7.8-.9-4.2-2.3-5.3-5.4-5.4h-2.3v13.1H236v-32.7zm7.4 14.4h3c3.8 0 6-1.9 6-4.8 0-3.1-2.1-4.6-5.6-4.7-1.8 0-2.9.1-3.4.2v9.3zM293.6 290.8c-.1-4-.3-8.9-.3-13.7h-.1c-1 4.3-2.4 9-3.7 12.9l-4.1 13h-5.9l-3.6-12.9c-1.1-3.9-2.2-8.7-3-13h-.1c-.2 4.5-.3 9.7-.6 13.8l-.6 12.7h-7l2.1-33.4h10.1l3.3 11.2c1 3.9 2.1 8 2.8 12h.1c.9-3.9 2.1-8.3 3.2-12l3.6-11.1h9.9l1.8 33.4h-7.4l-.5-12.9z"/></svg>