<svg xmlns="http://www.w3.org/2000/svg" viewBox="0 0 4680 3120"><defs><clipPath id="a"><path fill="#f8b4a5" d="M1636,2347.22l5.82,80.44s-35.43,51.31-97.17,30l-20.83-102.49Z"/></clipPath><clipPath id="b"><path fill="#f8b4a5" d="M999.13,2286.62,962.4,2357s-47.88,30.37-95.33-14.17l35.78-95.17Z"/></clipPath></defs><g data-name="10"><rect width="4680" height="3120" fill="#fff" data-name="10" opacity="0"/><rect width="1695.79" height="1096.75" x="1932.23" y="386.2" fill="#86cabd" rx="73.21"/><path fill="#1b8f93" d="M3628,459.4v75.74H1932.23V459.4a73.2,73.2,0,0,1,73.2-73.2H3554.81A73.19,73.19,0,0,1,3628,459.4Z"/><path fill="#da4043" d="M2205.91,460.67a24.9,24.9,0,1,1-24.9-24.9A24.9,24.9,0,0,1,2205.91,460.67Z"/><path fill="#fdbb3b" d="M2141,460.67a24.9,24.9,0,1,1-24.9-24.9A24.9,24.9,0,0,1,2141,460.67Z"/><path fill="#fff" d="M2074.38,460.67a24.9,24.9,0,1,1-24.89-24.9A24.9,24.9,0,0,1,2074.38,460.67Z"/><rect width="250.72" height="468.67" x="2437.42" y="1014.27" fill="#4fb29f"/><rect width="57.41" height="468.67" x="2630.73" y="1014.27" fill="#1b8f93"/><rect width="250.72" height="645.8" x="2767.74" y="837.15" fill="#4fb29f"/><rect width="57.41" height="645.8" x="2961.05" y="837.15" fill="#1b8f93"/><rect width="250.72" height="363.12" x="2107.8" y="1119.82" fill="#4fb29f"/><rect width="57.41" height="363.12" x="2301.1" y="1119.82" fill="#1b8f93"/><rect width="250.72" height="881.67" x="3098.06" y="601.28" fill="#4fb29f"/><rect width="57.41" height="881.67" x="3291.36" y="601.28" fill="#1b8f93"/><path fill="#e38026" d="M2058.55,1276l18.29-103s745,182.33,1285.7-483.29l25.16,16.64S2913.31,1420.57,2058.55,1276Z"/><polygon fill="#e38026" points="3409.2 769.85 3299.37 685.97 3437.49 619.02 3409.2 769.85"/><rect width="414.77" height="26.47" x="2460.56" y="660.65" fill="#fff" rx="12.85"/><path fill="#fff" d="M2693.88,741.65H2473.79a13.23,13.23,0,0,1-13.23-13.24h0a13.23,13.23,0,0,1,13.23-13.24h220.09a13.23,13.23,0,0,1,13.23,13.24h0A13.23,13.23,0,0,1,2693.88,741.65Z"/><path fill="#f9a0ba" d="M2222.65,591.1c-51.89,0-98.33,23.71-129.82,61.19l129.82,116.09,129.81-116.09C2321,614.81,2274.54,591.1,2222.65,591.1Z"/><path fill="#ff739b" d="M2405,742.4l-170,25.22V944.9c94.95,0,171.78-79.29,171.78-177.28A183.84,183.84,0,0,0,2405,742.4Z"/><path fill="#f22c65" d="M2093,652.87c-61.2,74.92-52,186.65,20.62,249.81a174.64,174.64,0,0,0,19.83,14.87l90.88-150.42Z"/><path fill="#d3004c" d="M2224.12,944.65a167.08,167.08,0,0,1-92.86-28.16l92.88-149.11Z"/><path fill="#fff" d="M2413.78,732.63a179.1,179.1,0,0,0-40.21-90.86L2243.76,757.86Z"/><path fill="#4fb29f" d="M3404.54,1628.65a94.87,94.87,0,0,1,15.54-13.65c47.48-33.07,100.89-5.06,142,27,91.88,71.68,187.91,180.88,214.93,318.6,29.71,151.45,21.17,319.56,13.41,479.57-1.07,22.1,1.52,68.59-7.63,98.4-16.3-5.71-32.8-11.07-49.7-14.65-5.4-20.93-8.93-44.36-12-56.9-35.77-146.57-91.79-283.82-172.36-395.16-71.46-98.73-167-160.14-182.4-309.41C3361.53,1716.14,3374.54,1661.18,3404.54,1628.65Z"/><path fill="#07827d" d="M3819.75,2547.82l-18.57-5.16c.12-.33.21-.69.34-1,2.93-7.43,6.69-14.32,9.92-22.39,5.77-14.41,11.56-28.56,18.4-42.53,14.92-30.44,31.57-59.68,47.66-89.3,25.71-47.36,53-94,85.75-134.78,33.39-41.55,73.29-76.87,117.15-92.9,105.33-38.5,253.82,42,260.9,181.92,2.33,46.14-15.5,98.88-49.4,125.18-16.28,12.63-35,18.48-53.12,20.28a123.69,123.69,0,0,1-70.38-13.63c-52.4-27.74-110.79-67.25-173.79-63.65a104.31,104.31,0,0,0-19.09,2.93c-34.29,8.49-66,33.2-94.59,60.15C3857.61,2494.92,3834.6,2517.22,3819.75,2547.82Z"/><path fill="#86cabd" d="M3924.29,2258.25c-22.93,45.1-43.11,92.07-62.5,139.29-9.61,23.42-51.31,104.72-61.73,147.05l-1.95-.54-15.36-5.5c-5.81-42.84,10.22-85.17,15.69-130.27,21.22-175.08,28.35-371.51,107.43-533.13,45.72-93.44,113.27-176.85,194.41-214.37s175.64-21.06,223.86,55c9.17,14.45,16.69,31.12,18.85,50.11,5.34,47-22.7,95.41-53.56,130.28-26.4,29.82-56.16,54.9-87.78,73.94-33,19.91-68,33.23-100.38,55-38.34,25.7-71.19,61.6-100.15,102.27S3947.07,2213.47,3924.29,2258.25Z"/><path fill="#1c1c1b" d="M3757.21,2523.09q-2.07-20.76-4.11-41.73c-10.42-106.47-21.19-216.57-43-319.88-24.57-116.66-60.15-208.11-108.76-279.56-32-47.09-68.44-89.51-103.65-130.52l3.23-2.78c35.29,41.11,71.78,83.62,103.94,130.9,48.93,71.93,84.72,163.87,109.41,281.09,21.81,103.53,32.6,213.75,43,320.33q2.05,21,4.11,41.73Z"/><path fill="#1c1c1b" d="M3812.62,2542.8l-3.53-2.38c33.25-49.18,69-100.56,108.11-141,41.79-43.13,82.63-69.23,128.53-82.13,65.54-17.35,125.07,7.42,172.9,27.33l-1.64,3.93c-47.24-19.66-106-44.12-170.14-27.15C3950.15,2348.63,3886.19,2434,3812.62,2542.8Z"/><path fill="#1c1c1b" d="M3794.18,2532.76l-4.09-1.19c12.28-42.08,23.44-85,35.25-130.52,27.6-106.27,56.15-216.16,99.51-312.64,23.45-52.18,49-95.62,78-132.78,32.81-42,69.1-74.76,111-100.23l2.22,3.63c-41.42,25.2-77.34,57.66-109.83,99.22-28.84,36.89-54.19,80-77.5,131.91-43.21,96.15-71.71,205.86-99.27,312C3817.64,2447.64,3806.47,2490.62,3794.18,2532.76Z"/><path fill="#4fb29f" d="M1192.3,1209a87.09,87.09,0,0,0-14.17-12.44c-43.27-30.14-92-4.62-129.38,24.59-83.75,65.33-171.27,164.87-195.9,290.38-27.08,138-19.29,291.27-12.23,437.11,1,20.14-1.38,62.52,7,89.69,14.86-5.21,29.9-10.1,45.3-13.36,4.92-19.07,8.14-40.43,10.92-51.86,32.61-133.59,83.66-258.68,157.1-360.16,65.13-90,152.22-146,166.25-282C1231.5,1288.78,1219.64,1238.69,1192.3,1209Z"/><path fill="#07827d" d="M813.86,2046.82l16.92-4.71c-.11-.3-.19-.63-.31-.92-2.67-6.77-6.09-13-9-20.41-5.26-13.13-10.53-26-16.77-38.76-13.6-27.75-28.78-54.4-43.44-81.4-23.43-43.16-48.28-85.67-78.15-122.84-30.44-37.86-66.81-70.06-106.79-84.67-96-35.09-231.33,38.3-237.79,165.81-2.13,42.06,14.13,90.12,45,114.09,14.84,11.51,31.86,16.85,48.41,18.49a112.81,112.81,0,0,0,64.15-12.43c47.76-25.28,101-61.29,158.4-58a95.47,95.47,0,0,1,17.4,2.67c31.25,7.74,60.18,30.26,86.22,54.82C779.35,1998.6,800.32,2018.92,813.86,2046.82Z"/><path fill="#86cabd" d="M718.57,1782.88c20.91,41.11,39.3,83.92,57,127,8.76,21.35,46.78,95.45,56.27,134l1.78-.49,14-5c5.29-39-9.32-77.63-14.3-118.74-19.34-159.57-25.84-338.61-97.92-485.91-41.67-85.17-103.24-161.2-177.19-195.4s-160.09-19.19-204,50.11c-8.35,13.18-15.21,28.37-17.18,45.68-4.86,42.82,20.69,87,48.82,118.74,24.06,27.18,51.19,50,80,67.4,30.11,18.14,61.94,30.28,91.5,50.09,34.94,23.43,64.88,56.15,91.28,93.22S697.81,1742.07,718.57,1782.88Z"/><path fill="#1c1c1b" d="M871,2024.29l-4.23-.42q1.88-18.91,3.74-38c9.51-97.15,19.34-197.61,39.22-292,22.51-106.86,55.14-190.68,99.75-256.26,29.33-43.11,62.59-81.85,94.75-119.32l3.23,2.77c-32.09,37.38-65.27,76-94.46,119-44.29,65.1-76.71,148.43-99.1,254.74-19.83,94.15-29.65,194.49-39.15,291.53Q872.92,2005.37,871,2024.29Z"/><path fill="#1c1c1b" d="M820.2,2042.35c-67-99.13-125.31-176.93-213.41-201.69-58.35-15.44-111.9,6.84-154.93,24.75l-1.63-3.93c43.62-18.16,97.91-40.75,157.68-24.93C697.43,1861.72,756.2,1940.1,823.73,2040Z"/><path fill="#1c1c1b" d="M837,2033.14c-11.2-38.41-21.38-77.59-32.16-119.07-25.11-96.7-51.09-196.69-90.47-284.31C669.93,1530.91,614.1,1462,543.69,1419.18l2.21-3.63c71.18,43.3,127.55,112.8,172.34,212.46,39.53,88,65.54,188.12,90.7,285,10.77,41.45,20.94,80.6,32.13,119Z"/><ellipse cx="2222.71" cy="2575.38" fill="#9f845a" rx="1794.22" ry="158.43"/><path fill="#ef639e" d="M1695.14,1025.15l-2.18-3.78a.57.57,0,0,1,.21-.77l13.91-8.05a.56.56,0,0,1,.77.2l2.18,3.79a.57.57,0,0,1-.21.77l-13.91,8A.57.57,0,0,1,1695.14,1025.15Z"/><path fill="#ef639e" d="M1702.2,878.67l3.69-2.33a.56.56,0,0,1,.78.18l8.56,13.62a.58.58,0,0,1-.18.78l-3.69,2.33a.58.58,0,0,1-.78-.18L1702,879.45A.56.56,0,0,1,1702.2,878.67Z"/><rect width="5.49" height="17.23" x="1744.28" y="944.91" fill="#ef639e" rx=".49" transform="rotate(174.05 1746.997 953.576)"/><path fill="#f28ab8" d="M1767.87,860.6s-4.39,116.56-19.75,149.55l-17.55,44,9.87,1.1s54.49-110,55.22-166Z"/><path fill="#fbc5a9" d="M1720.83,812.21l37.56-65.05s15-21.73,38.06-36.2c28.12-17.67,64-49.05,64-49.05s14.15,6.79,2.5,20.75l-31.3,38.62,24,13.73c9.46,4.86,11.59,18,3.53,25-.42.37-.87.72-1.35,1.07,0,0,6.51,13.79-7,22.31a16.19,16.19,0,0,1-8.17,16c-9.82,5.65-28.34,1-28.34,1s-1.25,21.83-31.58,31.58l-13.15,29.15Z"/><path fill="#fbc5a9" d="M1789.83,736.47l63-13.7s8.09,16.83-7.75,22.8a323.31,323.31,0,0,0-31.8,14.38s5.67,24.83-18.52,34.65Z"/><path fill="#f7a18a" d="M1794.75,795.84a1.24,1.24,0,0,1-.47-2.39c22.91-9.29,18-32.25,17.78-33.22l-.21-.93.84-.44a326.64,326.64,0,0,1,31.94-14.45c4.07-1.53,6.8-4,8.1-7.21,2-5,.2-10.82-.65-13l-50.84,11.06a1.24,1.24,0,0,1-.53-2.43l52.81-11.48.42.88c.16.34,4,8.54,1.09,15.88-1.57,3.93-4.78,6.84-9.53,8.62a322.87,322.87,0,0,0-30.85,13.91c.74,4.77,2.71,26.12-19.44,35.11A1.25,1.25,0,0,1,1794.75,795.84Z"/><path fill="#f7a18a" d="M1843.58,764.42c-13.51,0-29.58-3.06-30.55-3.25a1.24,1.24,0,1,1,.47-2.43c.33.06,33.23,6.33,43.8,1.18a1.24,1.24,0,0,1,1.08,2.23C1854.93,763.83,1849.5,764.42,1843.58,764.42Z"/><path fill="#f7a18a" d="M1840.16,785.73c-15.11,0-28.33-6-29-6.33a1.24,1.24,0,1,1,1-2.25c.2.09,20.15,9.15,38.38,5a1.24,1.24,0,0,1,.55,2.42A49.57,49.57,0,0,1,1840.16,785.73Z"/><path fill="#f7a18a" d="M1814.32,801.56a1.21,1.21,0,0,1-.61-.16c-1.19-.69-11.62-6.85-11.2-12.21a1.25,1.25,0,0,1,1.33-1.14,1.23,1.23,0,0,1,1.13,1.33c-.22,2.88,6,7.58,10,9.87a1.24,1.24,0,0,1-.62,2.31Z"/><polygon fill="#f7a18a" points="1720.83 812.21 1778.1 840.97 1769.34 861.8 1720.83 812.21"/><path fill="#cc4445" d="M1544.69,2457.65s65.35,25.18,103-39l168.75,65.59c24.11,10,38.45,32.22,35.86,55.49-.54,0-294.45-3.47-294.85-3.49-10.43-.35-22.6-6.7-27.77-15C1521.72,2512.67,1543.74,2467.06,1544.69,2457.65Z"/><path fill="#f8b4a5" d="M1636,2347.22l5.82,80.44s-35.43,51.31-97.17,30l-20.83-102.49Z"/><g clip-path="url(#a)"><path fill="#f38171" d="M1654.32,2370.64,1522,2403.77s-17.55-66.7-10.8-70,130.62,0,130.62,0Z"/></g><path fill="#cc4445" d="M867.07,2342.85s40.71,47.88,104.8,9l104.84,124.13c14.63,18.29,15,42.9.82,61.53h0L837.45,2414.77c-8.44-4.32-15.32-14.64-15.52-23.72C819.49,2380.18,861.11,2350.67,867.07,2342.85Z"/><path fill="#f8b4a5" d="M999.13,2286.62,962.4,2357s-47.88,30.37-95.33-14.17l35.78-95.17Z"/><g clip-path="url(#b)"><path fill="#f38171" d="M996.42,2333.56l-125.8-25.8s20-63.55,27.27-63.62,107.34,53.15,107.34,53.15Z"/></g><path fill="#153f67" d="M1641.86,1754.42c-4-22.47-170.9-460.73-170.9-460.73H1104.78c-97,149.22-35.13,218.76-20.93,486.29h0L870.62,2271l153.92,53.44c113.22-190,290.56-403.77,315.19-666.93l82.42,152.06L1475.74,2363l188.74-15.81S1645.84,1776.88,1641.86,1754.42Z"/><polygon fill="#022849" points="1339.73 1657.5 1374.16 1466.16 1422.15 1809.56 1339.73 1657.5"/><path fill="#1bb9ec" d="M1353.53,758s95.45,8.07,151,68.18,125.81,105.57,125.81,105.57l84.84-127.56,80.45,85s-43.88,243.4-136,219.94-166.76-85.05-166.76-85.05l21.94,349H1036.46s1.47-406.15,41-479.46S1184.94,723.51,1353.53,758Z"/><rect width="3.57" height="546.71" x="1313.16" y="819.09" fill="#002c9b" opacity=".43" transform="rotate(-1.42 1313.292 1091.286)"/><path fill="#fff" d="M1338.17,1244.39a6.77,6.77,0,1,1-6.77-6.6A6.68,6.68,0,0,1,1338.17,1244.39Z"/><ellipse cx="1331.77" cy="1290.57" fill="#fff" rx="6.77" ry="6.6"/><path fill="#fff" d="M1339.27,1335.66a6.77,6.77,0,1,1-6.77-6.6A6.69,6.69,0,0,1,1339.27,1335.66Z"/><polygon fill="#da4043" points="1129.35 1067.89 1155.13 928.78 1391.01 935.93 1344.39 1193.8 1117.28 1185 1129.35 1067.89"/><path fill="#1bb9ec" d="M1210.17,762.73s-138.6,12.09-186.87,89.8S871.17,1125.25,978,1183.9,1255.89,1203,1255.89,1203L1253,1072.47s-165.3,11.73-163.83-26.39S1210.17,762.73,1210.17,762.73Z"/><path fill="#0995cc" d="M930.78,1098.13s51.56-2.2,61.43,31.89-1.09,59.38-1.09,59.38S936.26,1180.6,930.78,1098.13Z" opacity=".67"/><path fill="#0995cc" d="M998.8,1192.7s234.78-2.2,255.62-56.08l1.47,66.34S1084.37,1235.59,998.8,1192.7Z" opacity=".67"/><path fill="#0995cc" d="M1038.29,1205.9l-1.83,167.15L1103,1372s-76.8-24.2-41.69-81.38c0,0,28.53-60.48,178.83-84.67C1240.16,1205.9,1110.7,1235.59,1038.29,1205.9Z"/><path fill="#0995cc" d="M1643.9,1101.43s36.2-63.78,96.54-46.19C1740.44,1055.24,1704.24,1134.42,1643.9,1101.43Z" opacity=".67"/><path fill="#fbc5a9" d="M1251,1099.16s29-13.19,38.2-25.09,40.83-28.74,40.83-28.74l-3,26.07s97.21-30.4,109.52-25.55-11.43,19.4-11.43,19.4,22.87-8.27,23.75-3.47-7,17.58-11.88,21.11c0,0,6.16-1.77,6.6,4.4s-31.67,32.19-58.06,42.33c0,0,29.47-6.17,37.83,0,0,0-43.11,21.6-59,26.45S1256,1171.49,1256,1171.49Z"/><path fill="#f7a18a" d="M1345.54,1093.06a1.36,1.36,0,0,1-.43-2.65l79.62-26.45a1.36,1.36,0,0,1,.85,2.58L1346,1093A1.29,1.29,0,0,1,1345.54,1093.06Z"/><path fill="#f7a18a" d="M1353.9,1113.34a1.36,1.36,0,0,1-.35-2.67c29.06-7.82,82.45-28.84,83-29.05a1.36,1.36,0,0,1,1,2.53c-.54.21-54.07,21.28-83.28,29.15A1.45,1.45,0,0,1,1353.9,1113.34Z"/><path fill="#f7a18a" d="M1359.18,1138.48a1.36,1.36,0,0,1-.37-2.67l26.39-7.5a1.36,1.36,0,0,1,.74,2.62l-26.39,7.49A1.24,1.24,0,0,1,1359.18,1138.48Z"/><polygon fill="#f7a18a" points="1251.04 1099.16 1256.04 1171.49 1272.65 1169.54 1251.04 1099.16"/><path fill="#fbc5a9" d="M1330.07,1045.33s41.48-23.24,38.59-10.17-26.8,32.66-26.8,32.66l-14.79,3.58Z"/><path fill="#0995cc" d="M1129.35,1067.89l25.78-139.11L1103,1054.14S1110.7,1068.44,1129.35,1067.89Z" opacity=".67"/><path fill="#fff" d="M1248.94,735.24s-31.09,0-38.77,27.49h0s23.77,93.84,47.18,106.3c0,0,30.35-49.49,50.83-49.85,0,0,39.86-4.4,58.88,37,0,0,3.66-59.38-13.53-98.24,0,0-7.68-19.42-19-20.89Z"/><path fill="#faba97" d="M1256.62,687.58s0,45.46-14.63,67.45c0,0,4.39,50.59,68,59.38,0,0,37.3-34.45,32.18-60.85,0,0-7.31-8.79-11.7-46.18C1330.49,707.38,1304.89,722,1256.62,687.58Z"/><path fill="#5e1213" d="M1390.09,628.83l-164,15.3s-17.53-19.88-34.24-62.09,4.43-58.89,21.8-55.64c0,0-1.35-55.29,58.86-66.5,40.5-7.53,78.57,1,103,25.49.13.13.26.27.42.42q2.8,2.87,5.36,6l0,0a87,87,0,0,1,7.79,11.34,98.61,98.61,0,0,1,10.56,27.3C1405.63,556.4,1403.49,589.18,1390.09,628.83Z"/><path fill="#3c1413" d="M1392.79,611.18s9.71-44.45-12.82-64.09-12.57,78.74-12.57,78.74Z"/><path fill="#3c1413" d="M1220.07,631.41l-3.12-2c-3-7.93-12.28-48.24,3.11-63.54C1236.77,549.2,1220.07,631.41,1220.07,631.41Z"/><path fill="#63291d" d="M1326.87,517.12l0,.08s0,0,0,0Z"/><path fill="#3c1413" d="M1399.67,530.5c-8.44,5.78-20.49,11.89-25.53,12.47-9.34,1.07-61.53-49.81-61.53-49.81s38,9.49,60.15-6c1-.67,1.88-1.26,2.75-1.78.13.13.26.27.42.42,1.21,1.27,3.1,3.39,5.36,6l0,0a87,87,0,0,1,7.79,11.34A98.61,98.61,0,0,1,1399.67,530.5Z"/><path fill="#e4c2a9" d="M1239.72,540.86c0,2.14.07,4.21.06,6.24A22.09,22.09,0,0,1,1239.72,540.86Z"/><path fill="#faba97" d="M1328.91,657.62l4.71,99.87s-10.95,5.83-44,10c-27.76,3.47-44.7-5.76-44.7-5.76l-5.27-111.82Z"/><polygon fill="#f5927e" points="1333.65 757.98 1268.19 705.98 1332.3 729.31 1333.65 757.98"/><path fill="#faba97" d="M1387,555.55l6.17,130.79a17.77,17.77,0,0,1-6.8,14.84l-34.27,26.66a17.53,17.53,0,0,1-16.89,2.66l-67.25-24.44a17.81,17.81,0,0,1-11.66-15.88l-6-128.16Z"/><path fill="#f08372" d="M1390.08,621.44,1392.5,673a25.78,25.78,0,0,1-2.42-51.51Z" opacity=".32"/><path fill="#de7360" d="M1339,651.65a2,2,0,0,1-.1-4l17.62-.83-8.06-53.47a2,2,0,1,1,3.9-.59l8.39,55.64a2,2,0,0,1-.42,1.55,2,2,0,0,1-1.44.72l-19.8.94Z"/><ellipse cx="1230.78" cy="649.88" fill="#faba97" rx="32.56" ry="32.63"/><path fill="#3c1413" d="M1309.14,580.38c.21,7.51-24.31,13.58-25.89,6.79C1280.62,575.9,1308.79,568.49,1309.14,580.38Z"/><path fill="#3c1413" d="M1396.16,580.4c-3.15,6.15-25.61.14-23.88-6C1375.15,564.09,1401.15,570.66,1396.16,580.4Z"/><ellipse cx="1290.58" cy="650.24" fill="#f08372" opacity=".32" rx="25.73" ry="25.79"/><path fill="#281c1c" d="M1321.11,612.32c.12,5.21-2.22,9.48-5.25,9.56s-5.57-4.09-5.7-9.29,2.23-9.48,5.25-9.56S1321,607.12,1321.11,612.32Z"/><path fill="#281c1c" d="M1376.63,609.69c.12,5.21-2.22,9.48-5.25,9.56s-5.57-4.09-5.7-9.29,2.23-9.48,5.25-9.56S1376.51,604.49,1376.63,609.69Z"/><path fill="#de7360" d="M1238.59,668.93a2,2,0,0,1-1.14-.36,2,2,0,0,1-.47-2.76,24,24,0,0,0,3.88-12c1.43-16.78-18.36-18.75-19.21-18.82a2,2,0,0,1,.36-3.95c8.49.76,24.19,6.57,22.79,23.11-.48,5.6-2,10.28-4.6,13.92A2,2,0,0,1,1238.59,668.93Z"/><path fill="#de7360" d="M1242.83,656a2,2,0,0,1-1.6-.82c-6.55-9.06-14.52-3.78-15.4-3.15a2,2,0,0,1-2.31-3.21c4.09-3,13.71-5.92,20.91,4a2,2,0,0,1-.44,2.76A1.94,1.94,0,0,1,1242.83,656Z"/><path fill="#5e1213" d="M1419.75,501c0,.33-.11.67-.17,1-21.85,133.17-178.46,40.88-178.46,40.88.05,2.13-1.33,2.2-1.34,4.23-.17,53-20.62,69.12-20.62,69.12-29.66-124.45,73-137.48,118.65-119.86s64.19-20,64.19-20c9.49,35.33-20.79,50.57-20.79,50.57C1411.93,521.09,1419.75,501,1419.75,501Z"/><path fill="#3c1413" d="M1419.58,502c-21.85,133.17-182.75,43.5-182.75,43.5s64.82,20.68,120.33,9.27C1410.94,543.7,1417.67,513.36,1419.58,502Z"/><path fill="#5e1213" d="M1252.65,625.39s25-40.25,17.52-65l-26.51-4.08Z"/><path fill="#f08372" d="M1327.93,672l35.11-3.85s-2.2,20.89-15.91,17.59A30.4,30.4,0,0,1,1327.93,672Z"/><rect width="5.49" height="17.23" x="1248.21" y="886.26" fill="#0995cc" rx=".49"/><rect width="5.5" height="17.19" x="1410.21" y="843.21" fill="#0995cc" rx=".49" transform="rotate(93.33 1412.954 851.79)"/><path fill="#0995cc" d="M1516.64,884l1.7-4a.56.56,0,0,1,.74-.3l14.79,6.26a.56.56,0,0,1,.3.74l-1.69,4a.57.57,0,0,1-.74.31l-14.8-6.27A.57.57,0,0,1,1516.64,884Z"/><path fill="#0995cc" d="M1578.3,980.61l-2.18-3.78a.56.56,0,0,1,.21-.77l13.91-8a.56.56,0,0,1,.77.21l2.17,3.78a.56.56,0,0,1-.2.77l-13.91,8.05A.56.56,0,0,1,1578.3,980.61Z"/><path fill="#0995cc" d="M1665.22,956.87l4,1.81a.56.56,0,0,1,.28.75l-6.64,14.65a.56.56,0,0,1-.75.28l-4-1.8a.56.56,0,0,1-.28-.75l6.64-14.66A.57.57,0,0,1,1665.22,956.87Z"/><rect width="5.49" height="17.23" x="1639.22" y="1042.02" fill="#0995cc" rx=".49" transform="rotate(175.38 1641.954 1050.654)"/><path fill="#0995cc" d="M1420.66,937.78l2.85-3.3a.56.56,0,0,1,.79-.06L1436.45,945a.56.56,0,0,1,0,.79l-2.85,3.31a.56.56,0,0,1-.79.05l-12.15-10.53A.57.57,0,0,1,1420.66,937.78Z"/><path fill="#0995cc" d="M1198.19,1337.71l3.9-1.94a.56.56,0,0,1,.76.25l7.13,14.43a.55.55,0,0,1-.26.75l-3.9,1.94a.56.56,0,0,1-.76-.25l-7.13-14.43A.56.56,0,0,1,1198.19,1337.71Z"/><path fill="#0995cc" d="M1476.85,1312.41l3.91-1.94a.56.56,0,0,1,.75.26l7.13,14.42a.56.56,0,0,1-.25.76l-3.91,1.94a.56.56,0,0,1-.75-.25l-7.13-14.43A.56.56,0,0,1,1476.85,1312.41Z"/><path fill="#0995cc" d="M1403.22,1244.32l4.13,1.4a.57.57,0,0,1,.35.72l-5.14,15.25a.57.57,0,0,1-.72.35l-4.12-1.4a.56.56,0,0,1-.36-.71l5.15-15.25A.56.56,0,0,1,1403.22,1244.32Z"/><path fill="#0995cc" d="M1089.45,1341.09l4.13,1.4a.57.57,0,0,1,.35.72l-5.14,15.25a.57.57,0,0,1-.72.35l-4.13-1.4a.56.56,0,0,1-.35-.71l5.14-15.25A.57.57,0,0,1,1089.45,1341.09Z"/><path fill="#0995cc" d="M1423.26,1166.46l2.18-3.78a.56.56,0,0,1,.77-.21l13.9,8a.56.56,0,0,1,.21.77l-2.18,3.78a.56.56,0,0,1-.77.21l-13.91-8A.56.56,0,0,1,1423.26,1166.46Z"/><path fill="#0995cc" d="M1559.14,1041.89l3.9-1.93a.56.56,0,0,1,.76.25l7.13,14.42a.57.57,0,0,1-.26.76l-3.9,1.94a.56.56,0,0,1-.76-.25l-7.13-14.43A.57.57,0,0,1,1559.14,1041.89Z"/><path fill="#0995cc" d="M1149.14,1299.65l4.22,1.09a.55.55,0,0,1,.4.68l-4,15.59a.55.55,0,0,1-.68.41l-4.22-1.09a.56.56,0,0,1-.41-.69l4-15.59A.56.56,0,0,1,1149.14,1299.65Z"/><path fill="#0995cc" d="M1150,1170.35l3.9-1.94a.56.56,0,0,1,.76.25l7.13,14.43a.57.57,0,0,1-.26.76l-3.9,1.93a.56.56,0,0,1-.76-.25l-7.13-14.43A.56.56,0,0,1,1150,1170.35Z"/><rect width="5.49" height="17.23" x="1084.74" y="958.84" fill="#0995cc" rx=".49"/><path fill="#0995cc" d="M1124.33,893.48l1.12-4.22a.57.57,0,0,1,.69-.4l15.52,4.15a.57.57,0,0,1,.4.69l-1.13,4.22a.57.57,0,0,1-.69.4l-15.51-4.15A.57.57,0,0,1,1124.33,893.48Z"/><rect width="5.49" height="17.23" x="1150.56" y="818.9" fill="#0995cc" rx=".49"/><path fill="#0995cc" d="M1055,871.18l-3.93,1.89a.57.57,0,0,1-.75-.27l-6.95-14.51a.55.55,0,0,1,.26-.75l3.93-1.89a.55.55,0,0,1,.75.26l7,14.51A.57.57,0,0,1,1055,871.18Z"/><rect width="5.49" height="17.23" x="1005.93" y="1082.37" fill="#0995cc" rx=".49" transform="rotate(-171.9 1007.057 1093.72)"/><rect width="5.5" height="17.19" x="1006.56" y="940.44" fill="#0995cc" rx=".49" transform="rotate(-83.22 1009.325 949.034)"/><rect width="571.26" height="571.26" x="1813.61" y="1449.68" fill="#e38026"/><rect width="571.26" height="571.26" x="1686.65" y="1449.68" fill="#fcc735"/><path fill="#fff" d="M2085,1876.25H1913l-32,79H1763.7l179.51-406.65h113.28l180.08,406.65H2116.9Zm-33.69-84.81L1999,1661.31l-52.29,130.13Z"/><rect width="539.37" height="539.37" x="605.49" y="2021.7" fill="#e38026"/><rect width="539.37" height="539.37" x="485.62" y="2021.7" fill="#fcc735"/><rect width="539.37" height="539.37" x="1223.11" y="2021.7" fill="#e38026"/><rect width="539.37" height="539.37" x="1103.24" y="2021.7" fill="#fcc735"/><rect width="539.37" height="539.37" x="2341.37" y="2021.7" fill="#e38026"/><rect width="539.37" height="539.37" x="2221.5" y="2021.7" fill="#fcc735"/><path fill="#fff" d="M947.29,2336.87q18.63,24.4,18.65,59,0,50.48-40.59,77.89T808,2501.14H600.64V2117.19H797q73.5,0,111.89,27.15t38.4,73.23q0,27.43-13.44,49.09t-38.12,34.28Q928.64,2312.46,947.29,2336.87ZM708.14,2195.63v74h74.6q54.84,0,54.85-37.29,0-36.75-54.85-36.75Zm148.1,188.13q0-38.94-57-38.94H708.14v77.89h91.05Q856.24,2422.71,856.24,2383.76Z"/><path fill="#fff" d="M1357.18,2393.16h-59.24v102h-108.6V2111.23h175.52q52.1,0,90.5,17.28t59.24,49.36q20.84,32.09,20.84,75.42,0,41.7-19.47,72.68t-55.67,48.54l82.82,120.67H1426.84Zm51.56-181.55q-17-14.82-50.46-14.81h-60.34v112.44h60.34q33.45,0,50.46-14.54t17-41.41Q1425.74,2226.43,1408.74,2211.61Z"/><path fill="#fff" d="M2686,2105.27v383.95h-89.4l-169.49-204.59v204.59H2320.68V2105.27h89.41l169.49,204.59V2105.27Z"/><rect width="539.37" height="539.37" x="3157.33" y="2021.7" fill="#e38026"/><rect width="539.37" height="539.37" x="3037.46" y="2021.7" fill="#fcc735"/><path fill="#fff" d="M3124.3,2093.35h181.55q63.08,0,111.9,23.58t75.69,66.92q26.86,43.33,26.87,101.47t-26.87,101.47q-26.88,43.34-75.69,66.92t-111.9,23.59H3124.3Zm177.16,297.28q49.36,0,79.26-28t29.89-77.34q0-49.37-29.89-77.34t-79.26-28H3232.9v210.62Z"/><polygon fill="#f9b383" points="2997.34 2455.94 2980.66 2540.5 2899.51 2544.59 2899.51 2462.76 2997.34 2455.94"/><path fill="#e38026" d="M2729.78,2658l265-1c2-3.62,3-8.75,3.43-14.86,1.58-22.61-5.7-58.65-9.29-81.39-.44-2.65-.81-5.13-1.1-7.37a77.69,77.69,0,0,1-.82-9.29c-.07-18.56-16.36-15.32-16.36-15.32-26.71,26.62-57.23-13-74.91.07,0,0-7.61,5.55-28.58,24.72s-56.71,31.9-87.12,44.87c-39.26,16.72-50.35,33.32-52.49,44.74C2725.86,2652.17,2729.78,2658,2729.78,2658Z"/><path fill="#a52e30" d="M2729.53,2657.46h265c2-3.61,3-8.73,3.49-14.84H2727.35C2725.63,2651.65,2729.53,2657.46,2729.53,2657.46Z"/><path fill="#a52e30" d="M2967.5,2657.46h7.87c-7.85-9.05-15.2-22.94-14.24-42.79,1.28-26.41,17-44.21,27.9-53.48-.42-2.66-.78-5.14-1.07-7.38-11.77,9.07-31.59,28.92-33.14,60.54C2953.9,2633.31,2960.07,2647.45,2967.5,2657.46Z"/><path fill="#fff" d="M2871.78,2569.3a4.4,4.4,0,0,0,1-8.67l-16.55-4.15a4.4,4.4,0,0,0-2.11,8.55l16.56,4.14A4.19,4.19,0,0,0,2871.78,2569.3Z"/><path fill="#fff" d="M2888.23,2555.41a4.41,4.41,0,0,0,1.05-8.68l-16.55-4.15a4.4,4.4,0,0,0-2.11,8.55l16.56,4.14A4.21,4.21,0,0,0,2888.23,2555.41Z"/><path fill="#fff" d="M2855.23,2579a4.41,4.41,0,0,0,1.05-8.68l-16.56-4.14a4.35,4.35,0,0,0-5.29,3.21,4.4,4.4,0,0,0,3.19,5.33l16.55,4.15A4.8,4.8,0,0,0,2855.23,2579Z"/><path fill="#fff" d="M2838.67,2588.34a4.41,4.41,0,0,0,1-8.68l-16.55-4.15a4.4,4.4,0,0,0-2.11,8.55l16.56,4.14A4.21,4.21,0,0,0,2838.67,2588.34Z"/><path fill="#fff" d="M2820.62,2597a4.41,4.41,0,0,0,1.05-8.68l-16.55-4.14a4.36,4.36,0,0,0-5.29,3.21,4.4,4.4,0,0,0,3.18,5.34l16.56,4.14A4.19,4.19,0,0,0,2820.62,2597Z"/><path fill="#fff" d="M2801.05,2604.32a4.41,4.41,0,0,0,1-8.68l-16.56-4.14a4.4,4.4,0,0,0-2.1,8.54l16.55,4.15A4.33,4.33,0,0,0,2801.05,2604.32Z"/><polygon fill="#f9b383" points="2809.56 2390.25 2798.52 2475.72 2712.41 2475.72 2711.06 2389.11 2809.56 2390.25"/><path fill="#e38026" d="M2545.52,2588.54l265-1c1.95-3.62,3-8.75,3.43-14.86,1.57-22.61-5.71-58.66-9.3-81.39-.43-2.65-.81-5.13-1.1-7.38a79.71,79.71,0,0,1-.82-9.28c-.07-18.57-16.35-15.32-16.35-15.32-26.72,26.62-57.23-13-74.91.07,0,0-7.62,5.55-28.59,24.72s-56.7,31.9-87.11,44.87c-39.27,16.72-50.36,33.32-52.49,44.74C2541.6,2582.75,2545.52,2588.54,2545.52,2588.54Z"/><path fill="#a52e30" d="M2545.27,2588h265c2-3.61,3-8.74,3.49-14.84H2543.1C2541.38,2582.23,2545.27,2588,2545.27,2588Z"/><path fill="#a52e30" d="M2783.25,2588h7.87c-7.86-9.05-15.21-22.94-14.25-42.79,1.28-26.41,17-44.21,27.91-53.48-.43-2.66-.79-5.14-1.08-7.38-11.76,9.07-31.59,28.92-33.14,60.54C2769.65,2563.89,2775.82,2578,2783.25,2588Z"/><path fill="#fff" d="M2687.53,2499.88a4.41,4.41,0,0,0,1-8.68l-16.55-4.14a4.36,4.36,0,0,0-5.29,3.21,4.41,4.41,0,0,0,3.19,5.34l16.55,4.14A4.27,4.27,0,0,0,2687.53,2499.88Z"/><path fill="#fff" d="M2704,2486a4.41,4.41,0,0,0,1-8.68l-16.55-4.15a4.36,4.36,0,0,0-5.29,3.21,4.41,4.41,0,0,0,3.19,5.34l16.55,4.14A4.29,4.29,0,0,0,2704,2486Z"/><path fill="#fff" d="M2671,2509.59a4.41,4.41,0,0,0,1.05-8.68l-16.56-4.15a4.36,4.36,0,0,0-5.29,3.22,4.4,4.4,0,0,0,3.19,5.33l16.56,4.15A4.71,4.71,0,0,0,2671,2509.59Z"/><path fill="#fff" d="M2654.42,2518.91a4.4,4.4,0,0,0,1-8.67l-16.55-4.15a4.36,4.36,0,0,0-5.29,3.21,4.41,4.41,0,0,0,3.19,5.34l16.55,4.14A4.27,4.27,0,0,0,2654.42,2518.91Z"/><path fill="#fff" d="M2636.37,2527.54a4.41,4.41,0,0,0,1-8.68l-16.55-4.14a4.36,4.36,0,0,0-5.29,3.21,4.42,4.42,0,0,0,3.19,5.34l16.55,4.14A4.27,4.27,0,0,0,2636.37,2527.54Z"/><path fill="#fff" d="M2616.79,2534.9a4.41,4.41,0,0,0,1.05-8.68l-16.55-4.14a4.4,4.4,0,0,0-2.11,8.54l16.56,4.15A4.19,4.19,0,0,0,2616.79,2534.9Z"/><path d="M3275.94,912a54.5,54.5,0,0,0,14.65-17.31c6.47-12.19,3.32-27.09,2.06-28.39-3.86-4-9.61-3.46-10.07-2.31s5.27,17.31,3.44,25.62S3278,908.35,3275.94,912Z"/><path d="M3247.76,925.06c1.5-.32,35.64-5.6,58.52-17.42,15.5-8,26.25-18.22,26.77-21.28s-1.58-12.84-4.53-15.5c0,0-3.8,7.33-22.26,23.18C3285,912.31,3247.76,925.06,3247.76,925.06Z"/><path fill="#292929" d="M3359,986.83a48.16,48.16,0,0,1-10.69,23.14c-2.51,9.51-16.58,28.31-16.58,28.31-4.9-12.62-12.66-64.89-12.66-64.89.32,4.43-2.06,17.67-2.83,22-1.57,8.88-4.4,12.05-4.4,12.05s3.38-37-8.48-50.34c-12.45-14-25.15-34.66-25.15-34.66s-2.53,6.38-5,9.55-20.13,14.58-44.33,25.11-54.39,16.29-54.39,16.29a129.79,129.79,0,0,1-2.52,22.32c-2.51,13-9.36,42.57-9.36,42.57-3.07-6.89-16.68-16.17-16.68-16.17s-23.32-15.62-22.74-25.1,15.46-36.83,15.46-36.83c-3.61-9.09-1.18-14.67,18.64-36.29l0,0,0,0c.9-1,1.86-2,2.84-3.08,17.27-18.62,58.14-42.84,83.87-48.14h0c7.77-1.6,14.16-1.46,18.1,1.08,17,10.93,16,36.17,16,36.17,14.15-3.45,33.64,11.69,50.48,24.06a70.83,70.83,0,0,1,9.94,9C3351.1,956.51,3360.73,975.71,3359,986.83Z"/><path d="M3359,986.83a48.16,48.16,0,0,1-10.69,23.14c-2.51,9.51-16.58,28.31-16.58,28.31-4.9-12.62-12.66-64.89-12.66-64.89a28.52,28.52,0,0,1-.15,4.21c-.53,5.81-2.09,14.46-2.68,17.79-1.57,8.88-4.4,12.05-4.4,12.05s-.14-29.07-12-42.39c-12.45-14-22.53-17.21-22.53-17.21s3.54-3.51,1-.34-19.48,8.74-43.68,19.27-62.79,21-62.79,21,2.59-5,.07,8-9.36,42.57-9.36,42.57a23.29,23.29,0,0,0-4.58-6.15,91.67,91.67,0,0,0-12.1-10s-23.32-15.62-22.74-25.1,15.46-36.83,15.46-36.83c-3.61-9.09-1.18-14.67,18.64-36.29-.87,1.27-10.2,15-11.1,24,0,0,18.86-13.07,47.79-21.63,0,0-44.65,26-56,54.21,0,0,79.8-23.46,119.78-52.26,5.35-3.85,15-14.63,15-14.63s-27.28-4.7-36.08-5.36c-8.51-.64-29.88,8.34-31.25,8.91,1.43-.85,24.52-14.34,35.72-15a122.75,122.75,0,0,1,23.2,1.26s-18.55-11.57-25.47-13.87-42.44,12.29-65.08,25c0,0,30.4-30.66,70.22-42h0c7.77-1.6,14.16-1.46,18.1,1.08,17,10.93,16,36.17,16,36.17s16.64,6.3,27.95,21.8c-.86-.81-14.65-13.92-23.86-16.76,0,0,13.2,28.85,28.29,42.17s34.64,38.36,34.64,38.36,1-35.55-6.6-52.47a92.74,92.74,0,0,1,17.5,27.37C3358.53,976.53,3359.68,982.34,3359,986.83Z"/><path fill="#4a4a4a" d="M3219.07,917.18s-14.78,7-33.33,21.18c0,0,14.47-.35,19.18,6s4.72,7.61,4.72,7.61,26.91-10.26,34.8-15.14C3244.44,936.82,3220,931.22,3219.07,917.18Z"/><path fill="#4a4a4a" d="M3179.14,926.6s26.72-12.68,41.19-20c0,0-6.32-4.17-5.24-7.93s-1.37,0-1.37,0-19.49,17-40.24,18.48C3173.48,917.18,3170.44,923.12,3179.14,926.6Z"/><path d="M3172.87,987.07s1.56-4.35-1,8.64-9.36,42.57-9.36,42.57a23.29,23.29,0,0,0-4.58-6.15c-10.27-17-32.63-30.33-30.39-35.12C3130.24,991.31,3156.2,991.32,3172.87,987.07Z"/><path fill="#faba97" d="M3230.28,1088v112.55s12.54,6,49.65,8.86c31.22,2.42,49.66-8.86,49.66-8.86v-126Z"/><polygon fill="#f5927e" points="3230.26 1201.14 3300.69 1139.18 3230.26 1168.82 3230.26 1201.14"/><path fill="#faba97" d="M3160,976.33v147.42a20,20,0,0,0,8.38,16.32l39.71,28.15a19.51,19.51,0,0,0,19,2.1l73.87-31.07a20,20,0,0,0,12.2-18.47V976.33Z"/><path fill="#f08372" d="M3160,1050.59v58.06a29,29,0,0,0,0-58.06Z" opacity=".32"/><path fill="#de7360" d="M3218.61,1081.85h-22.18a2.19,2.19,0,0,1-1.64-.74,2.24,2.24,0,0,1-.56-1.72l6.44-63a2.21,2.21,0,1,1,4.4.46l-6.19,60.55h19.73a2.23,2.23,0,0,1,0,4.46Z"/><ellipse cx="3339.56" cy="1074.1" fill="#faba97" rx="36.43" ry="36.74"/><path fill="#0e0d0b" d="M3231.06,1005c.16,8.45,27.89,14,29.3,6.25C3262.7,998.46,3230.82,991.63,3231.06,1005Z"/><path fill="#0e0d0b" d="M3157.59,1010.64c3.85,6.75,28.64-1.21,26.38-8.07C3180.21,991.18,3151.5,1000,3157.59,1010.64Z"/><ellipse cx="3272.72" cy="1077.69" fill="#f08372" opacity=".32" rx="28.8" ry="29.04"/><path fill="#281c1c" d="M3233.39,1037.78c.13,5.86,3,10.54,6.37,10.46s6-4.89,5.88-10.75-3-10.54-6.37-10.46S3233.25,1031.92,3233.39,1037.78Z"/><path fill="#281c1c" d="M3172.93,1037.74c.13,5.86,3,10.54,6.37,10.46s6-4.89,5.88-10.75-3-10.54-6.37-10.46S3172.79,1031.88,3172.93,1037.74Z"/><path fill="#de7360" d="M3216.41,1120.18a30.41,30.41,0,0,1-17.27-5.69,2.23,2.23,0,0,1-.61-3.09,2.2,2.2,0,0,1,3.07-.61c16.84,11.39,30-.26,30.52-.76a2.19,2.19,0,0,1,3.12.15,2.25,2.25,0,0,1-.15,3.14A30,30,0,0,1,3216.41,1120.18Z"/><path fill="#de7360" d="M3331.72,1095.94a2.18,2.18,0,0,1-1.74-.85c-3.07-4-5.05-9.14-5.87-15.41-2.44-18.53,14.8-25.89,24.26-27.2a2.23,2.23,0,0,1,.6,4.42h0c-.94.13-22.95,3.45-20.48,22.19.72,5.47,2.39,9.93,5,13.25a2.25,2.25,0,0,1-.38,3.13A2.16,2.16,0,0,1,3331.72,1095.94Z"/><path fill="#de7360" d="M3326.3,1081.61a2.22,2.22,0,0,1-1.21-.36,2.25,2.25,0,0,1-.64-3.09c7.52-11.58,18.44-8.76,23.16-5.66a2.25,2.25,0,0,1,.64,3.09,2.19,2.19,0,0,1-3.05.65c-1-.67-10.22-6.16-17,4.36A2.2,2.2,0,0,1,3326.3,1081.61Z"/><path fill="#212121" d="M3158.3,996.68c6.22,2.41,75.2-4.91,95.09-16.42,0,0,28.76,14.93,29.19,49.06,0,0,5.92-16.21,1.27-37.12l28.77,57.6s21.19-12,30.46-13.23c0,0,11.84-23.46,13.11-39.68,0,0-19-11.51-19.46-12.79s-23.69-15.79-29.19-21.34-38.92-32-38.92-30.71-115.5,46.07-115.5,46.07-28.35,14.51-27.5,20.91S3136.83,988.36,3158.3,996.68Z"/><path d="M3341.7,946.77s39.66,45.43,10.16,93.11c0,0-13.65-5.76-19.68,0C3332.18,1039.88,3369.52,988.79,3341.7,946.77Z"/><path fill="#4a4a4a" d="M3313.82,926.35s0,8.25-12.57,14.15c0,0,1.75,7.93,14.61,17.08,0,0,2.89-13.54,14.89-16.79A39.52,39.52,0,0,0,3313.82,926.35Z"/><path fill="#252b6b" d="M3358,1711.2c-4.43,26.67-22.66,163.82-33.82,187.81-80.76,173.44-458.56,156.74-458.56,156.74l-30.11,359.73-157.62-12.17s-16.05-306.17,20.65-438.63c28.6-103.21,398.88-127.5,418.45-159.37,14.08-22.94,15.21-45.08,21.43-94.11Z"/><path fill="#2b307d" d="M3458.68,1711.2h-230.3v119.91s-329.64,167-338.67,250.45c-17.39,160.8-20.46,395.25-20.46,395.25l157.93,3.07,42.52-327.71s413.06-88.83,413.06-283.11C3482.76,1822,3470.47,1759.77,3458.68,1711.2Z"/><path fill="#fff" d="M3330.73,1193.07c-34.49,48.22-78.38,27.1-94.84-5.31L3098.05,1739c104.63,45.44,230.93,3.21,325.2-50.68l-59.59-475.65Z"/><path fill="#da4043" d="M3292.7,1871.15c43.77,9.67,164.49,19.25,221.49,10.47-14-128.52-33.19-251.87-62.73-364.93l58.9-13.89c-1.15-20,7.62-15.47,3.54-36.59-4.57-23.79,1.3-30.37-7.08-55.33-.27-.89,1.22-66,.89-66.92-29.71-86.72-45.06-129-177.75-151.34C3288.4,1392.4,3222.14,1677.43,3292.7,1871.15Z"/><path fill="#da4043" d="M3045,1715.24c-7.48,45-14.06,90.08-20.79,137,42.52,15.27,34.19,16.25,93.13,13.59,24.65-80,62.88-181.09,72.53-267.28,0-.33-.49-2.33-.44-2.66,15.19-137,41.92-252.89,24.61-403.35-54.28,3.89-88.08,16-140.2,49.72-17.88,11.58-32.37,28.61-42.06,48.77-36.45,75.66-53.44,142.21-67.55,210.94l114.07,46.73q-5,21.06-9.5,41.65C3059.52,1632.8,3051.85,1674,3045,1715.24Z"/><path fill="#ad3133" d="M3045,1715.24c66.33-6.5,60.24-8.74,114.1-65.71.23-.29,26.69-23.21,26.93-23.49l3.61-20-105.73-40C3074.63,1608.48,3051.85,1674,3045,1715.24Z" opacity=".72"/><polygon fill="#fcc8d9" points="3329.64 1195.56 3261.05 1247.94 3231.8 1187.9 3198.5 1190.92 3225.89 1284.29 3257.98 1258.14 3294.02 1297.14 3361.77 1198.95 3329.64 1195.56"/><polygon fill="#faba97" points="3329.64 1195.56 3261.05 1247.94 3236 1192.59 3329.64 1195.56"/><path fill="#f3a31f" d="M3256.64,1260.52c.88,2.67,22.12,24.09,22.12,24.09l-14.16,14.28-7.06,332.46-45.72,36.35-24.61-48.76,57.92-319.16-6.19-19.63Z"/><polygon fill="#ad3133" points="3372.39 1213.68 3390.97 1344.85 3332.57 1385.01 3388.31 1430.52 3261.41 1686.73 3379.47 1435.87 3321.06 1384.11 3383.89 1340.39 3372.39 1213.68"/><path fill="#243f86" d="M3098.67,1364.2l-23.52,136s41.93,28,54.82,5.06C3140,1487.34,3126.84,1428.82,3098.67,1364.2Z" opacity=".4"/><path fill="#da4043" d="M3429.17,1224.38s-49.65,113.42-45.61,288.3c0,0,0,150.49,32.26,155.91s102.18,16.27,110.25-50.16S3550,1261.86,3429.17,1224.38Z"/><path fill="#da4043" d="M3403.72,1515.4l-279.63-38L3105.26,1571s209.73,97.61,348.21,101.68c0,0,67.22,2.34,72.6-66.8S3403.72,1515.4,3403.72,1515.4Z"/><path fill="#c6343c" d="M2948,1539.8s176.12-284.7,180.15-283.34,55.12,66.43,83.35,69.14c0,0-98.14,301-121,311.81,0,0-53.77,44.74-104.86,10.85S2941.24,1556.07,2948,1539.8Z"/><path fill="#f8b093" d="M3139,1274.5l12.64-22.11s-6.05-40.57,2.41-67.05c0,0-.33-25.93-1.41-35.65-.94-8.57,4-17.28,10.09-8.13s19.16,47.79,19.16,47.79,4,0,14.11,1,72.6-26.43,78.65-25.41,31.26-12.21,33.27-2-13.1,19.32-19.15,19.32-15.13,5.08-15.13,5.08,3,2-1,9.16-7.06,7.11-7.06,7.11,2,1,0,9.15-42.34,59-42.34,59L3210.13,1287l-6.88,42.1s-26.46-14.07-40.57-29.32S3139,1274.5,3139,1274.5Z"/><polygon fill="#f5927e" points="3216.54 1216.53 3215.82 1215.04 3273.29 1186.57 3274.01 1188.06 3216.54 1216.53"/><polygon fill="#f5927e" points="3226.74 1232.72 3225.78 1231.38 3265.11 1202.91 3266.06 1204.25 3226.74 1232.72"/><path fill="#f8b093" d="M3018.55,1430.33s-40.33-9.16-47.39-7.12-39.33,32.53-39.33,32.53a9.72,9.72,0,0,0,4.71,10.85l6.72,4.07s-13.44,11.52-4,21l2.69,1.36s-7.4,12.88,2,16.27c0,0-3.36,16.94,6.05,25.08Z"/><polygon fill="#f5927e" points="2941.11 1468.57 2940.04 1467.32 2968.61 1442.58 2969.67 1443.83 2941.11 1468.57"/><polygon fill="#f5927e" points="2942.43 1493.67 2941.4 1492.39 2974.34 1465.27 2975.37 1466.55 2942.43 1493.67"/><polygon fill="#f5927e" points="2944.04 1511.68 2943.15 1510.3 2973.74 1490.3 2974.63 1491.69 2944.04 1511.68"/><polygon fill="#ad3133" points="3383.56 1512.68 3409.93 1378.31 3421.87 1524.21 3383.56 1512.68" opacity=".53"/><path fill="#ad3133" d="M3484.26,1667.43s-53.1,20.08-168.58-17.4c0,0,115.08,100.79,184.11,118.19Z" opacity=".72"/><polygon fill="#ad3133" points="3146.56 1589.67 3209.23 1488.52 3157.73 1480.04 3119.74 1580.35 3146.56 1589.67" opacity=".53"/></g></svg>