<svg xmlns="http://www.w3.org/2000/svg" viewBox="0 0 128 128"><path fill="#faa819" d="M43.34,100A20.66,20.66,0,1,0,64,79.39,20.56,20.56,0,0,0,43.34,100Z"/><path fill="#4b5aa7" d="M64 100h0a6 6 0 006-6V92a6 6 0 00-6-6h0a6 6 0 00-6 6v2A6 6 0 0064 100zM49.12 114.36a20.65 20.65 0 0029.76 0 14.88 14.88 0 00-8.81-13 14.45 14.45 0 00-3.51-1.08 15.71 15.71 0 00-5.12 0 14.91 14.91 0 00-12.32 14.13z"/><path fill="#2c317d" d="M61,112.07l1.1,2a2.22,2.22,0,0,0,3.88,0l1.1-2a2.23,2.23,0,0,0,.26-1.22l-.74-10.62a15.71,15.71,0,0,0-5.12,0l-.74,10.62A2.23,2.23,0,0,0,61,112.07Z"/><path fill="#faa819" d="M79.38,31.48A20.66,20.66,0,1,0,100,10.83,20.58,20.58,0,0,0,79.38,31.48Z"/><path fill="#4b5aa7" d="M100,31.39h0a6,6,0,0,0,6-6v-2a6,6,0,0,0-6-6h0a6,6,0,0,0-6,6v2A6,6,0,0,0,100,31.39Z"/><path fill="#4b5aa7" d="M85.16,45.81a20.65,20.65,0,0,0,29.76,0A14.88,14.88,0,0,0,102.6,31.68a15,15,0,0,0-5.12,0A14.89,14.89,0,0,0,85.16,45.81Z"/><path fill="#2c317d" d="M97,43.51l1.1,2a2.21,2.21,0,0,0,3.87,0l1.1-2a2.15,2.15,0,0,0,.27-1.22l-.74-10.61a15,15,0,0,0-5.12,0l-.75,10.61A2.24,2.24,0,0,0,97,43.51Z"/><path fill="#faa819" d="M7.3,31.5A20.66,20.66,0,1,0,28,10.85,20.58,20.58,0,0,0,7.3,31.5Z"/><path fill="#4b5aa7" d="M28,31.41h0a6,6,0,0,0,6-6v-2a6,6,0,0,0-6-6h0a6,6,0,0,0-6,6v2A6,6,0,0,0,28,31.41Z"/><path fill="#4b5aa7" d="M13.08,45.83a20.65,20.65,0,0,0,29.76,0A14.88,14.88,0,0,0,30.52,31.7a15,15,0,0,0-5.12,0A14.89,14.89,0,0,0,13.08,45.83Z"/><path fill="#2c317d" d="M24.93,43.54l1.1,2a2.21,2.21,0,0,0,3.87,0l1.1-2a2.29,2.29,0,0,0,.27-1.23L30.52,31.7a15,15,0,0,0-5.12,0l-.74,10.61A2.2,2.2,0,0,0,24.93,43.54Z"/><circle cx="64" cy="57.15" r="14.88" fill="#faa819" transform="rotate(-22.5 63.994 57.152)"/><path fill="#231f20" d="M78.75,83.52a1.5,1.5,0,1,0-2,2.24,19.14,19.14,0,0,1,6.07,10.68,1.5,1.5,0,1,0,2.94-.56A22.09,22.09,0,0,0,78.75,83.52Z"/><path fill="#231f20" d="M116,46.85A22.16,22.16,0,1,0,82.5,45l-5,2.84a16.35,16.35,0,0,0-26.92,0l-5-2.83a22.1,22.1,0,0,0,4-18.44,1.5,1.5,0,0,0-2.92.68,19.1,19.1,0,0,1-2.83,15A16.51,16.51,0,0,0,34.64,31.4c-.5-.22-1-.41-1.51-.58a7.44,7.44,0,0,0,2.3-5.37v-2a7.47,7.47,0,1,0-14.93,0v2a7.44,7.44,0,0,0,2.29,5.37,16.21,16.21,0,0,0-6.42,4,16.46,16.46,0,0,0-4.26,7.47A19.15,19.15,0,0,1,42.53,19.07a1.5,1.5,0,1,0,2.28-1.94A22.15,22.15,0,1,0,28,53.66a21.83,21.83,0,0,0,15.52-6.37l5.59,3.16a16.35,16.35,0,0,0,13.43,23v4.48a22.16,22.16,0,1,0,22.74,28.4,1.5,1.5,0,0,0-2.88-.84,18.63,18.63,0,0,1-2.51,5.29A16.4,16.4,0,0,0,69.17,99.36,7.44,7.44,0,0,0,71.46,94V92a7.46,7.46,0,1,0-14.92,0v2a7.43,7.43,0,0,0,2.29,5.36,16.37,16.37,0,0,0-10.68,11.43A19.14,19.14,0,0,1,64,80.88H64a18.77,18.77,0,0,1,4.85.64,1.5,1.5,0,0,0,.78-2.9,22.55,22.55,0,0,0-4.17-.69V73.46a16.36,16.36,0,0,0,13.44-23l5.62-3.16A22.11,22.11,0,0,0,116,46.85ZM29.11,33l.66,9.39c0,.36-.13.4-1.18,2.38a.71.71,0,0,1-1.25,0c-1-1.92-1.21-2-1.19-2.38L26.81,33A19.55,19.55,0,0,1,29.11,33ZM23.5,23.45a4.47,4.47,0,1,1,8.93,0v2a4.47,4.47,0,0,1-8.93,0Zm-5,13.45a13.35,13.35,0,0,1,5.27-3.25l-.6,8.56c-.11,1.63.81,2.49,1.55,4a3.71,3.71,0,0,0,6.5,0c.76-1.56,1.67-2.4,1.55-4l-.6-8.54a11.21,11.21,0,0,1,1.26.47A13.48,13.48,0,0,1,41.3,45.22a19.08,19.08,0,0,1-26.68,0A13.41,13.41,0,0,1,18.49,36.9Zm46.66,64.67.66,9.39c0,.36-.13.4-1.19,2.38a.71.71,0,0,1-1.24,0c-1-1.93-1.21-2-1.19-2.38l.66-9.39h0A16,16,0,0,1,65.15,101.57ZM59.54,92a4.46,4.46,0,1,1,8.92,0v2a4.46,4.46,0,0,1-8.92,0Zm-5,13.46a13.21,13.21,0,0,1,5.27-3.25l-.6,8.56c-.12,1.63.79,2.46,1.55,4a3.71,3.71,0,0,0,6.5,0c.76-1.57,1.67-2.41,1.55-4l-.6-8.54a13.39,13.39,0,0,1,9.14,11.54,19.08,19.08,0,0,1-26.68,0A13.39,13.39,0,0,1,54.53,105.44ZM64,70.53A13.38,13.38,0,1,1,77.38,57.15,13.39,13.39,0,0,1,64,70.53Zm36-58.2a19.13,19.13,0,0,1,15.85,29.89A16.44,16.44,0,0,0,105.21,30.8a7.44,7.44,0,0,0,2.29-5.37v-2a7.47,7.47,0,0,0-14.93,0v2a7.41,7.41,0,0,0,2.29,5.36A16.35,16.35,0,0,0,84.19,42.22a19,19,0,0,1-3.31-10.74A19.17,19.17,0,0,1,100,12.33ZM101.19,33l.66,9.39a.89.89,0,0,1-.09.39l-1.1,2a.7.7,0,0,1-.62.37.72.72,0,0,1-.63-.37l-1.09-2a.68.68,0,0,1-.09-.39L98.89,33A17.56,17.56,0,0,1,101.19,33Zm3.31-7.58a4.47,4.47,0,0,1-8.93,0v-2a4.47,4.47,0,0,1,8.93,0ZM86.7,45.2a13.38,13.38,0,0,1,9.14-11.57l-.6,8.56a3.68,3.68,0,0,0,.45,2.05l1.1,2a3.71,3.71,0,0,0,6.5,0l1.1-2a3.76,3.76,0,0,0,.45-2.05l-.6-8.54a13.41,13.41,0,0,1,9.14,11.55,19.08,19.08,0,0,1-26.68,0Z"/><path fill="#231f20" d="M70.27,55.65a6.44,6.44,0,0,0-.78-1.87l1.6-1.6A1.5,1.5,0,0,0,69,50.06l-1.6,1.6a6.44,6.44,0,0,0-1.87-.78V48.62a1.5,1.5,0,0,0-3,0v2.26a6.44,6.44,0,0,0-1.87.78L59,50.06a1.5,1.5,0,0,0-2.12,2.12l1.6,1.6a6.44,6.44,0,0,0-.78,1.87H55.47a1.5,1.5,0,0,0,0,3h2.26a6.44,6.44,0,0,0,.78,1.87l-1.6,1.6a1.49,1.49,0,0,0,0,2.12,1.45,1.45,0,0,0,1.06.44A1.47,1.47,0,0,0,59,64.24l1.6-1.6a6.44,6.44,0,0,0,1.87.78v2.26a1.5,1.5,0,0,0,3,0V63.42a6.44,6.44,0,0,0,1.87-.78l1.6,1.6a1.47,1.47,0,0,0,1.06.44,1.45,1.45,0,0,0,1.06-.44,1.49,1.49,0,0,0,0-2.12l-1.6-1.6a6.44,6.44,0,0,0,.78-1.87h2.26a1.5,1.5,0,0,0,0-3ZM64,60.6a3.45,3.45,0,1,1,3.45-3.45A3.46,3.46,0,0,1,64,60.6Z"/></svg>