<svg xmlns="http://www.w3.org/2000/svg" enable-background="new 0 0 2950 2950" viewBox="0 0 2950 2950"><path fill="#e63a48" d="M675.47,1487.33c-6.13,0-12.13-3.04-15.66-8.6c-5.48-8.64-2.92-20.08,5.71-25.56l170.63-108.24
							c2.97-1.88,6.41-2.88,9.92-2.88h140l148.65-149.88c4.83-4.87,11.97-6.66,18.53-4.68l186.38,56.62l105.01-205.24
							c2.34-4.57,6.46-7.96,11.4-9.37c4.92-1.42,10.22-0.72,14.62,1.93l240.92,144.79l80.42-171.17
							c4.25-9.07,14.95-13.11,24.15-9.11l137.53,59.85c6.59,2.87,10.93,9.3,11.12,16.49l5.25,198.16l104.69-427.47
							c1.3-5.29,4.86-9.75,9.74-12.17c4.88-2.43,10.58-2.59,15.58-0.42l166.51,71.85l68.11-240.71c1.58-5.59,5.7-10.11,11.11-12.22
							c5.4-2.1,11.5-1.55,16.45,1.51l280.72,173.49l218.43-364.64c5.25-8.77,16.62-11.62,25.4-6.37c8.77,5.26,11.62,16.63,6.37,25.4
							l-228.08,380.75c-2.54,4.25-6.69,7.31-11.5,8.48c-4.82,1.16-9.91,0.36-14.12-2.24l-275.82-170.46l-67.18,237.43
							c-1.45,5.13-5.05,9.39-9.87,11.68c-4.82,2.29-10.39,2.39-15.29,0.28l-165.8-71.54l-132.31,540.29
							c-2.21,9.01-10.74,15-19.97,14.01c-9.22-0.99-16.29-8.65-16.54-17.92l-8.6-324.39l-110.22-47.96l-81.48,173.45
							c-2.22,4.74-6.36,8.32-11.37,9.84c-5.02,1.52-10.44,0.85-14.93-1.84l-241.5-145.14l-103.03,201.37
							c-4.08,7.98-13.28,11.89-21.87,9.29l-190.52-57.88l-146.22,147.43c-3.48,3.51-8.21,5.48-13.15,5.48H851.46l-166.09,105.36
							C682.3,1486.4,678.87,1487.33,675.47,1487.33z"/><polygon fill="#e63a48" points="2918.37 571.42 2862.23 494.32 2767.77 481.2 2950 347.81"/><circle cx="841.62" cy="1359.89" r="40.44" fill="#e63a48"/><circle cx="841.62" cy="1359.89" r="25.13" fill="#fff"/><circle cx="994.15" cy="1359.89" r="40.44" fill="#e63a48"/><circle cx="994.15" cy="1359.89" r="25.13" fill="#fff"/><circle cx="1148.41" cy="1209.67" r="40.44" fill="#e63a48"/><circle cx="1148.41" cy="1209.67" r="25.13" fill="#fff"/><circle cx="1347.74" cy="1261.67" r="40.44" fill="#e63a48"/><circle cx="1347.74" cy="1261.67" r="25.13" fill="#fff"/><circle cx="1463.01" cy="1053.67" r="40.44" fill="#e63a48"/><circle cx="1463.01" cy="1053.67" r="25.13" fill="#fff"/><circle cx="1717.81" cy="1196.09" r="40.44" fill="#e63a48"/><circle cx="1717.81" cy="1196.09" r="25.13" fill="#fff"/><circle cx="1810.54" cy="1018.43" r="40.44" fill="#e63a48"/><circle cx="1810.54" cy="1018.43" r="25.13" fill="#fff"/><circle cx="1943.14" cy="1075.63" r="40.44" fill="#e63a48"/><circle cx="1943.14" cy="1075.63" r="25.13" fill="#fff"/><circle cx="1954.41" cy="1407.56" r="40.44" fill="#e63a48"/><circle cx="1954.41" cy="1407.56" r="25.13" fill="#fff"/><circle cx="2093.94" cy="851.16" r="40.44" fill="#e63a48"/><circle cx="2093.94" cy="851.16" r="25.13" fill="#fff"/><circle cx="2275.94" cy="922.23" r="40.44" fill="#e63a48"/><circle cx="2275.94" cy="922.23" r="25.13" fill="#fff"/><g><circle cx="2353.36" cy="673.5" r="40.44" fill="#e63a48"/><circle cx="2353.36" cy="673.5" r="25.13" fill="#fff"/></g><g><circle cx="2646.29" cy="841.34" r="40.44" fill="#e63a48"/><circle cx="2646.29" cy="841.34" r="25.13" fill="#fff"/></g><g><path fill="#5facf2" d="M872.74,447.42c-119.18,0-215.8,96.62-215.8,215.8c0,51.33,17.93,98.52,47.94,135.55
						c39.51,48.93,100.01,80.25,167.86,80.25c19.75,0,38.93-2.64,57.11-7.69c63.39-17.27,115.22-62.9,140.92-122.32
						c11.49-26.28,17.77-55.29,17.77-85.79C1088.54,544.04,991.92,447.42,872.74,447.42z M914.14,814.15
						c-13.14,3.72-27.03,5.62-41.41,5.62c-49.26,0-93.15-22.73-121.75-58.27c-21.82-26.86-34.8-61.08-34.8-98.27
						c0-86.45,70.09-156.54,156.54-156.54c86.45,0,156.46,70.09,156.46,156.54c0,22.07-4.55,43.14-12.89,62.15
						C997.7,768.52,960.18,801.58,914.14,814.15z"/><path fill="#ffd800" d="M1070.77,749.02c-25.7,59.43-77.53,105.05-140.92,122.32l-15.7-57.19
						c46.04-12.56,83.56-45.62,102.16-88.77L1070.77,749.02z"/><path fill="#e63a48" d="M929.85,871.34c-18.18,5.04-37.36,7.69-57.11,7.69c-67.86,0-128.36-31.32-167.86-80.25l46.12-37.28
						c28.6,35.54,72.49,58.27,121.75,58.27c14.38,0,28.27-1.9,41.41-5.62L929.85,871.34z"/><path fill="#5facf2" d="M1461.56,879.03c-119.18,0-215.8-96.62-215.8-215.8c0-51.33,17.93-98.52,47.94-135.55
						c39.51-48.93,100.01-80.25,167.86-80.25c19.75,0,38.93,2.64,57.11,7.69c63.39,17.27,115.22,62.9,140.92,122.32
						c11.49,26.28,17.77,55.29,17.77,85.79C1677.36,782.41,1580.74,879.03,1461.56,879.03z M1502.97,512.31
						c-13.14-3.72-27.03-5.62-41.41-5.62c-49.26,0-93.15,22.73-121.75,58.27c-21.82,26.86-34.8,61.08-34.8,98.27
						c0,86.45,70.09,156.54,156.54,156.54c86.45,0,156.46-70.09,156.46-156.54c0-22.07-4.55-43.14-12.89-62.15
						C1586.53,557.93,1549.01,524.87,1502.97,512.31z"/><path fill="#ffd800" d="M1659.59,577.43c-25.7-59.43-77.53-105.05-140.92-122.32l-15.7,57.19
						c46.04,12.56,83.56,45.62,102.16,88.77L1659.59,577.43z"/><path fill="#e63a48" d="M1518.67,455.11c-18.18-5.04-37.36-7.69-57.11-7.69c-67.86,0-128.36,31.32-167.86,80.25l46.12,37.28
						c28.6-35.54,72.49-58.27,121.75-58.27c14.38,0,28.27,1.9,41.41,5.62L1518.67,455.11z"/></g><g><rect width="83.14" height="77.38" x="124.65" y="2476.84" fill="#fcd3a2" transform="rotate(-89.83 166.218 2515.517)"/><path fill="#6a6a6d" d="M122.28,2601.62l192.77,0.57c2.9,0.01,4.59-2.26,5.53-5.54c3.56-12.41-5.59-24.93-18.37-26.77
						c-23.56-3.38-58.93-19.36-92.64-43.49c-0.8-0.57-1.76-0.89-2.75-0.89l-79.18-0.23c-2.48-0.01-4.56,1.87-4.82,4.34l-6.65,65.28
						C115.84,2598.49,118.66,2601.61,122.28,2601.62z"/><rect width="83.14" height="77.38" x="350.46" y="2476.84" fill="#fcd3a2" transform="rotate(-89.83 392.03 2515.517)"/><path fill="#6a6a6d" d="M348.1,2601.62l192.77,0.57c2.9,0.01,4.59-2.26,5.53-5.54c3.56-12.41-5.59-24.93-18.37-26.77
						c-23.56-3.38-58.93-19.36-92.64-43.49c-0.8-0.57-1.76-0.89-2.75-0.89l-79.18-0.23c-2.48-0.01-4.56,1.87-4.82,4.34l-6.65,65.28
						C341.65,2598.49,344.48,2601.61,348.1,2601.62z"/><path fill="#6a6a6d" d="M308.42,2063.08l22.49,431.04l112.24,1.25c0,0,12.18-744.64,5.56-846.64c-1.52-23-2.91-42.17-4.07-56.33
					c-1.39-17.77-2.29-27.71-2.29-27.71l-162.2,12.17l0.88,29.73L308.42,2063.08z"/><path fill="#6a6a6d" d="M271.37,2068.89l-49.88,428.37l-105.34,0.21c0,0,24.61-748.11,36.48-849.62
					c2.7-22.89,5.08-41.96,6.97-56.04c2.3-17.68,3.71-27.55,3.71-27.55l161.36,20.53l-2.42,29.64L271.37,2068.89z"/><path fill="#fcd3a2" d="M632.23,1093.26l48.34,31.37l16.77-18.24c0,0,76.21-43.46,21.43-93.76c-21.34-19.59-55.84-1.91-52.04,26.8
						c0.06,0.4,0.11,0.81,0.17,1.22c0.15,0.99-1.2,1.44-1.66,0.55l-11.03-21.37c-1.88-3.64-6.3-5.13-10-3.37l0,0
						c-3.39,1.62-5.09,5.47-3.99,9.07l7.43,24.24c1.66,5.42,1.14,11.28-1.45,16.32L632.23,1093.26z"/><path fill="#5facf2" d="M638.19,1071.87l-85.39,117.16c-19.07-39.67-57.37-80.77-92.83-111.9c-27.68-24.3-62.01-39.52-98.54-44.22
					l0,0c-68.27-3.26-132.39-1.28-189.19,9.94c-28.76,4.45-53.66,22.58-66.67,48.6l-58.82,117.64l12.42,6.59l89.66-15.45
					l-0.95,62.75c-4.28,25.14-0.41,51.04-3.38,77.84c59.77,0.18,123.4-19.79,198.63-46.76c0,0,63.39-20.2,117.17,10.82
					c0.28-11.03-3.74-58.39-3.08-93.75l53.84,69.68c19.49,25.22,59.53,27.18,77.46,0.83c0.12-0.18,0.25-0.37,0.38-0.56
					l107.43-161.72L638.19,1071.87z"/><path fill="#5facf2" d="M462.27,1657.39c0,0-3.19-243.71-2.34-332.79c0.06-6.53,0.18-13.07,0.36-19.72
					c-53.77-31.01-117.17-10.82-117.17-10.82c-75.22,26.97-196.61-33.91-196.61-33.91l-8.9,398.09L462.27,1657.39z"/><path fill="#5facf2" d="M201.79,1247.96l-0.06,0.03l-2.1-5.97l-87.09,22.82c2.11-3.86,4.22-8.42,6.32-12.99
					c67.63-100.83,64.8-175.72,60.81-204.02l-26.4,1.76c-29.85,11.24-55.13,31.95-72.33,58.99l-64.8,128.29
					C4.94,1253.09,0.33,1269.9,0,1287.08c0,19.66,9.83,37.93,26.34,48.81c47.75,30.97,198.57-24.35,198.57-24.35L201.79,1247.96z"/><path fill="#d7e7f9" d="M558.8,1200.63l159.38-23.59c5.78-0.86,10.06-5.83,10.03-11.68l-1.15-240.68
					c-0.04-7.15-6.39-12.61-13.47-11.56l-159.38,23.6c-5.78,0.85-10.06,5.83-10.03,11.67l1.16,240.68
					C545.36,1196.21,551.72,1201.68,558.8,1200.63z"/><path fill="#fcd3a2" d="M728.18,1024.53c0,0-30.46,10.98,2.9,47.16L728.18,1024.53z"/><path fill="#fcd3a2" d="M296.69,1276.69l14.75-3.86c0,0,80.77,4.57,63.56-61.8c-6.67-25.99-42.14-29.85-53.73-5.62
					c0,0.35-0.35,0.7-0.35,1.05c-0.35,1.05-1.75,0.7-1.75-0.35l2.46-22.12c0.35-3.86-2.46-7.02-6.32-7.73c-0.35,0-0.35,0-0.7,0
					c-2.81,0-5.97,2.11-6.67,4.92l-6.67,22.82c-1.41,4.91-4.92,9.13-9.13,11.94l-14.69,8.05"/><polygon fill="#ffd800" points="264.98 1141.36 394.79 1236.87 408.47 1253.93 418.36 1266.25 409.06 1262.6 383.31 1252.47 253.5 1156.96"/><polygon fill="#ffdbac" points="394.79 1236.87 408.47 1253.93 418.36 1266.25 409.06 1262.6 383.31 1252.47"/><rect width="3.52" height="163.15" x="316.89" y="1121.13" fill="#ffbf00" transform="rotate(-53.658 318.653 1202.706)"/><path fill="#fff" d="M265.51,1141.75l-11.48,15.6l-10.35-8.13c-1.91-1.41-2.04-4.48-0.29-6.85l5.14-6.99
						c1.75-2.38,4.72-3.17,6.63-1.76L265.51,1141.75z"/><path fill="#fcd3a2" d="M374.99,1211.02c-6.67-25.99-42.14-29.85-53.73-5.62c0,0.35-0.35,0.7-0.35,1.05
					c-0.35,1.05-1.75,0.7-1.75-0.35l-18.19,1.06c-1.78,3.44-5.65,6.63-8.85,8.76l-14.7,8.05l19.26,52.7l14.75-3.86
					C311.43,1272.83,392.2,1277.39,374.99,1211.02z"/><g><path fill="#fcd3a2" d="M324.22,1034.08c0.4-6.75,0.68-11.59,0.68-11.59s32.92-5.71,36.1-7.27c6.33-3.11,15.67-24.54,15.78-49.82
					s-2.6-50.85-3.79-61.41c-1.2-10.56-6.04-53.11-46.2-67.32c-40.15-14.2-91.28,7.82-103.44,47.68
					c-12.17,39.86-4.99,69.96,2.94,81.61c7.93,11.65,14.79,32.45,15.98,40.58c0.47,3.19,0.56,13.52,0.49,24.89
					c-0.12,21.32,16.22,39.13,37.47,40.85h0C303,1074.13,322.85,1056.89,324.22,1034.08z"/><path fill="#323131" d="M246.32,930.26c3.27,4.35,7.67,14.53,7.67,14.53c5.96-7.54,12.28-56,5.8-68.47
					c3.05,8.53,72.04-7.74,89.86-13.46c3.7-1.19,8.75,0.1,11.18,3.94c2.63,4.15,9.59,24.54,11.16,29.83
					c0.44-7.79-0.18-15.31-0.4-23.08c-0.21-7.36,21.75-36.38,11.02-49.95c-15.6-19.73-101.34-5.08-111.64-2.44
					c-11.32,2.91-46.43,18.43-48.32,34.85c-12.63,7.37-21.26,15.79-18.51,40.48c1.32,11.89,3.16,23.84,4.9,35.72
					c1.73,11.79,6.29,21.6,10.81,32.56c3.86,9.37,8.51,18.34,12.66,27.56c0.73,1.63,6.59,15.11,9.7,13.86
					c0.53-0.21,3.58-12.49,4.3-15.64c1.15-4.99,0.7-9.95,0.47-14.97c-0.09-1.87,0.22-4.08-0.74-5.78c-1.51-2.65-4.79-2.08-7.34-2.61
					c-8.1-1.68-12.59-9.41-14.21-16.95c-1.74-8.15-1.88-19.03,6.97-23.14c4.6-2.14,10.65-1.3,14.14,2.52
					C245.98,929.83,246.16,930.04,246.32,930.26z"/></g></g><g><rect width="84.49" height="228.9" x="2262.95" y="1460.73" fill="#d2d8d5"/><rect width="84.49" height="321.19" x="2664.44" y="1368.45" fill="#d2d8d5"/><rect width="84.62" height="614.97" x="2865.38" y="1074.94" fill="#d2d8d5"/><rect width="84.62" height="469.63" x="2865.38" y="1220.29" fill="#5facf2"/><rect width="84.49" height="255.87" x="2664.44" y="1433.77" fill="#e63a48"/><rect width="84.62" height="509.03" x="2463.57" y="1180.88" fill="#d2d8d5"/><rect width="84.62" height="443.14" x="2463.57" y="1246.77" fill="#2bedba"/><rect width="84.49" height="128.83" x="2262.95" y="1560.8" fill="#ffd800"/></g></svg>