<svg xmlns="http://www.w3.org/2000/svg" enable-background="new 0 0 512 512" viewBox="0 0 512 512"><polygon fill="#64A0F9" points="288 392 224 392 200 464 312 464"/><path fill="#64A0F9" d="M473,408H39c-8.284,0-15-6.716-15-15V119c0-8.284,6.716-15,15-15h434c8.284,0,15,6.716,15,15v274
	C488,401.284,481.284,408,473,408z"/><path fill="#4670AE" d="M352 488H160l1.973-7.892C165.515 465.94 178.245 456 192.85 456h126.3c14.604 0 27.335 9.94 30.877 24.108L352 488zM473 408H39c-8.284 0-15-6.716-15-15v-33h464v33C488 401.284 481.284 408 473 408z"/><path fill="#F7CB63" d="M304 392h-96c-4.418 0-8-3.582-8-8s3.582-8 8-8h96c4.418 0 8 3.582 8 8S308.418 392 304 392zM352 392h-16c-4.418 0-8-3.582-8-8s3.582-8 8-8h16c4.418 0 8 3.582 8 8S356.418 392 352 392zM176 392h-16c-4.418 0-8-3.582-8-8s3.582-8 8-8h16c4.418 0 8 3.582 8 8S180.418 392 176 392zM233.236 328H70.764C62.61 328 56 321.39 56 313.236V38.764C56 30.61 62.61 24 70.764 24h162.472C241.39 24 248 30.61 248 38.764v274.472C248 321.39 241.39 328 233.236 328z"/><rect width="80" height="80" x="112" y="248" fill="#4670AE"/><rect width="16" height="80" x="144" y="248" fill="#263D5F"/><path fill="#263D5F" d="M160,296h-16c-4.418,0-8-3.582-8-8s3.582-8,8-8h16c4.418,0,8,3.582,8,8S164.418,296,160,296z"/><rect width="48" height="32" x="88" y="184" fill="#4670AE"/><rect width="48" height="32" x="168" y="184" fill="#4670AE"/><rect width="48" height="32" x="88" y="120" fill="#4670AE"/><rect width="48" height="32" x="168" y="120" fill="#4670AE"/><rect width="48" height="32" x="88" y="56" fill="#4670AE"/><rect width="48" height="32" x="168" y="56" fill="#4670AE"/><path fill="#D46559" d="M446.091,168H289.909c-5.472,0-9.909-4.436-9.909-9.909V49.909c0-5.472,4.436-9.909,9.909-9.909h156.182
	c5.472,0,9.909,4.436,9.909,9.909v108.182C456,163.564,451.564,168,446.091,168z"/><path fill="#294166" d="M304 64c-4.418 0-8-3.582-8-8V24c0-4.418 3.582-8 8-8s8 3.582 8 8v32C312 60.418 308.418 64 304 64zM336 64c-4.418 0-8-3.582-8-8V24c0-4.418 3.582-8 8-8s8 3.582 8 8v32C344 60.418 340.418 64 336 64zM368 64c-4.418 0-8-3.582-8-8V24c0-4.418 3.582-8 8-8s8 3.582 8 8v32C376 60.418 372.418 64 368 64zM400 64c-4.418 0-8-3.582-8-8V24c0-4.418 3.582-8 8-8s8 3.582 8 8v32C408 60.418 404.418 64 400 64zM432 64c-4.418 0-8-3.582-8-8V24c0-4.418 3.582-8 8-8s8 3.582 8 8v32C440 60.418 436.418 64 432 64z"/><path fill="#F7CB63" d="M424 96h-8c-4.418 0-8-3.582-8-8s3.582-8 8-8h8c4.418 0 8 3.582 8 8S428.418 96 424 96zM392 96h-8c-4.418 0-8-3.582-8-8s3.582-8 8-8h8c4.418 0 8 3.582 8 8S396.418 96 392 96zM360 96h-8c-4.418 0-8-3.582-8-8s3.582-8 8-8h8c4.418 0 8 3.582 8 8S364.418 96 360 96zM424 120h-8c-4.418 0-8-3.582-8-8s3.582-8 8-8h8c4.418 0 8 3.582 8 8S428.418 120 424 120zM424 144h-8c-4.418 0-8-3.582-8-8s3.582-8 8-8h8c4.418 0 8 3.582 8 8S428.418 144 424 144zM392 144h-8c-4.418 0-8-3.582-8-8s3.582-8 8-8h8c4.418 0 8 3.582 8 8S396.418 144 392 144zM360 120h-8c-4.418 0-8-3.582-8-8s3.582-8 8-8h8c4.418 0 8 3.582 8 8S364.418 120 360 120zM360 144h-8c-4.418 0-8-3.582-8-8s3.582-8 8-8h8c4.418 0 8 3.582 8 8S364.418 144 360 144zM328 120h-8c-4.418 0-8-3.582-8-8s3.582-8 8-8h8c4.418 0 8 3.582 8 8S332.418 120 328 120zM328 144h-8c-4.418 0-8-3.582-8-8s3.582-8 8-8h8c4.418 0 8 3.582 8 8S332.418 144 328 144zM392 120h-8c-4.418 0-8-3.582-8-8s3.582-8 8-8h8c4.418 0 8 3.582 8 8S396.418 120 392 120zM410.475 328h-84.95c-7.47 0-13.525-6.055-13.525-13.525v-4.95c0-7.47 6.055-13.525 13.525-13.525h84.95c7.47 0 13.525 6.055 13.525 13.525v4.95C424 321.945 417.945 328 410.475 328z"/><circle cx="368" cy="216" r="56" fill="#F7CB63"/><path fill="#294166" d="M352,248c-2.048,0-4.095-0.781-5.657-2.343l-16-16c-3.124-3.124-3.124-8.189,0-11.313
		c3.125-3.124,8.189-3.124,11.314,0L352,228.687l34.343-34.343c3.125-3.124,8.189-3.124,11.314,0c3.124,3.124,3.124,8.189,0,11.313
		l-40,40C356.095,247.219,354.048,248,352,248z"/><polygon fill="#294166" points="362.177 314.177 367.833 376.402 384.804 359.431 441.373 416 464 393.373 407.431 336.804 424.402 319.833"/><path d="M473,96h-9V49.91c0-9.875-8.034-17.91-17.91-17.91H440v-8c0-4.418-3.582-8-8-8s-8,3.582-8,8v8h-16v-8c0-4.418-3.582-8-8-8
		s-8,3.582-8,8v8h-16v-8c0-4.418-3.582-8-8-8s-8,3.582-8,8v8h-16v-8c0-4.418-3.582-8-8-8s-8,3.582-8,8v8h-16v-8c0-4.418-3.582-8-8-8
		s-8,3.582-8,8v8h-6.09C280.034,32,272,40.035,272,49.91V96h-16V38.764C256,26.212,245.788,16,233.236,16H70.764
		C58.212,16,48,26.212,48,38.764V96h-9c-12.683,0-23,10.318-23,23v274c0,12.682,10.317,23,23,23h168.57l-10.667,32h-4.054
		c-18.31,0-34.197,12.405-38.639,30.168l-1.972,7.892c-0.598,2.39-0.061,4.922,1.455,6.863c1.517,1.942,3.842,3.077,6.306,3.077h192
		c2.464,0,4.789-1.135,6.306-3.077c1.516-1.941,2.053-4.473,1.455-6.863l-1.973-7.893C353.348,460.405,337.46,448,319.15,448h-4.054
		l-10.667-32h125.629l5.657,5.657c1.501,1.5,3.535,2.343,5.657,2.343s4.156-0.843,5.657-2.343l5.657-5.657H473
		c12.683,0,23-10.318,23-23V119C496,106.318,485.683,96,473,96z M288,49.91c0-1.053,0.856-1.91,1.91-1.91H296v8c0,4.418,3.582,8,8,8
		s8-3.582,8-8v-8h16v8c0,4.418,3.582,8,8,8s8-3.582,8-8v-8h16v8c0,4.418,3.582,8,8,8s8-3.582,8-8v-8h16v8c0,4.418,3.582,8,8,8
		s8-3.582,8-8v-8h16v8c0,4.418,3.582,8,8,8s8-3.582,8-8v-8h6.09c1.054,0,1.91,0.857,1.91,1.91v108.18c0,0.33-0.081,0.64-0.25,0.936
		c-0.13,0.229-0.632,0.974-1.66,0.974h-47.15c-9.177-5.091-19.723-8-30.94-8s-21.763,2.909-30.94,8h-47.15
		c-1.054,0-1.91-0.857-1.91-1.91V49.91z M416,216c0,26.467-21.532,48-48,48s-48-21.533-48-48s21.532-48,48-48S416,189.533,416,216z
		 M64,38.764C64,35.034,67.034,32,70.764,32h162.473c3.729,0,6.764,3.034,6.764,6.764v274.473c0,3.729-3.034,6.764-6.764,6.764H200
		v-72c0-4.418-3.582-8-8-8h-80c-4.418,0-8,3.582-8,8v72H70.764c-3.729,0-6.764-3.034-6.764-6.764V38.764z M160,280v-24h24v64h-24
		v-24c4.418,0,8-3.582,8-8S164.418,280,160,280z M144,296v24h-24v-64h24v24c-4.418,0-8,3.582-8,8S139.582,296,144,296z M319.15,464
		c10.235,0,19.207,6.48,22.506,16H170.344c3.3-9.521,12.271-16,22.506-16H319.15z M213.77,448l10.667-32h63.127l10.667,32H213.77z
		 M293.195,400c-0.011,0-0.022,0-0.033,0H39c-3.859,0-7-3.14-7-7v-25h327.037l0.83,9.126c0.28,3.091,2.324,5.741,5.243,6.798
		c2.92,1.058,6.186,0.331,8.381-1.865l11.313-11.313L414.059,400H293.195z M354.21,314.901l0.463,5.099H325.52
		c-3.044,0-5.52-2.476-5.52-5.52v-4.96c0-3.044,2.476-5.52,5.52-5.52h84.961c3.044,0,5.52,2.476,5.52,5.52v1.516l-53.099-4.827
		c-2.36-0.213-4.703,0.631-6.382,2.311C354.841,310.199,353.995,312.537,354.21,314.901z M443.746,402.313
		c-0.021,0.021-0.042,0.042-0.063,0.063l-2.31,2.31l-50.912-50.912c-1.562-1.562-3.609-2.343-5.657-2.343
		c-2.047,0-4.095,0.781-5.657,2.343l-4.893,4.893l-3.241-35.654l35.655,3.241l-4.894,4.893c-3.124,3.124-3.124,8.189,0,11.313
		l50.912,50.912L443.746,402.313z M480,393c0,3.86-3.141,7-7,7h-4.313l0.971-0.971c3.124-3.124,3.124-8.189,0-11.313L449.941,368
		H480V393z M480,352h-46.059l-15.196-15.196l11.314-11.314c2.194-2.195,2.922-5.461,1.865-8.38c-0.022-0.06-0.054-0.114-0.077-0.173
		c0.092-0.812,0.152-1.63,0.152-2.457v-4.96c0-11.866-9.653-21.52-21.52-21.52H325.52c-11.866,0-21.52,9.654-21.52,21.52v4.96
		c0,11.866,9.653,21.52,21.52,21.52h30.608l1.454,16H32V119c0-3.86,3.141-7,7-7h9v201.236C48,325.788,58.212,336,70.764,336h162.473
		C245.788,336,256,325.788,256,313.236V112h16v46.09c0,9.875,8.034,17.91,17.91,17.91h28.183C309.286,186.966,304,200.874,304,216
		c0,35.29,28.71,64,64,64s64-28.71,64-64c0-15.126-5.286-29.034-14.093-40h28.183c6.435,0,12.404-3.481,15.572-9.071
		c1.529-2.686,2.338-5.743,2.338-8.839V112h9c3.859,0,7,3.14,7,7V352z"/><path d="M304 376h-96c-4.418 0-8 3.582-8 8s3.582 8 8 8h96c4.418 0 8-3.582 8-8S308.418 376 304 376zM352 376h-16c-4.418 0-8 3.582-8 8s3.582 8 8 8h16c4.418 0 8-3.582 8-8S356.418 376 352 376zM176 376h-16c-4.418 0-8 3.582-8 8s3.582 8 8 8h16c4.418 0 8-3.582 8-8S180.418 376 176 376zM88 224h48c4.418 0 8-3.582 8-8v-32c0-4.418-3.582-8-8-8H88c-4.418 0-8 3.582-8 8v32C80 220.418 83.582 224 88 224zM96 192h32v16H96V192zM168 224h48c4.418 0 8-3.582 8-8v-32c0-4.418-3.582-8-8-8h-48c-4.418 0-8 3.582-8 8v32C160 220.418 163.582 224 168 224zM176 192h32v16h-32V192zM88 160h48c4.418 0 8-3.582 8-8v-32c0-4.418-3.582-8-8-8H88c-4.418 0-8 3.582-8 8v32C80 156.418 83.582 160 88 160zM96 128h32v16H96V128zM168 160h48c4.418 0 8-3.582 8-8v-32c0-4.418-3.582-8-8-8h-48c-4.418 0-8 3.582-8 8v32C160 156.418 163.582 160 168 160zM176 128h32v16h-32V128zM88 96h48c4.418 0 8-3.582 8-8V56c0-4.418-3.582-8-8-8H88c-4.418 0-8 3.582-8 8v32C80 92.418 83.582 96 88 96zM96 64h32v16H96V64zM168 96h48c4.418 0 8-3.582 8-8V56c0-4.418-3.582-8-8-8h-48c-4.418 0-8 3.582-8 8v32C160 92.418 163.582 96 168 96zM176 64h32v16h-32V64zM416 96h8c4.418 0 8-3.582 8-8s-3.582-8-8-8h-8c-4.418 0-8 3.582-8 8S411.582 96 416 96zM384 96h8c4.418 0 8-3.582 8-8s-3.582-8-8-8h-8c-4.418 0-8 3.582-8 8S379.582 96 384 96zM352 96h8c4.418 0 8-3.582 8-8s-3.582-8-8-8h-8c-4.418 0-8 3.582-8 8S347.582 96 352 96zM416 120h8c4.418 0 8-3.582 8-8s-3.582-8-8-8h-8c-4.418 0-8 3.582-8 8S411.582 120 416 120zM416 144h8c4.418 0 8-3.582 8-8s-3.582-8-8-8h-8c-4.418 0-8 3.582-8 8S411.582 144 416 144zM384 144h8c4.418 0 8-3.582 8-8s-3.582-8-8-8h-8c-4.418 0-8 3.582-8 8S379.582 144 384 144zM352 120h8c4.418 0 8-3.582 8-8s-3.582-8-8-8h-8c-4.418 0-8 3.582-8 8S347.582 120 352 120zM352 144h8c4.418 0 8-3.582 8-8s-3.582-8-8-8h-8c-4.418 0-8 3.582-8 8S347.582 144 352 144zM320 120h8c4.418 0 8-3.582 8-8s-3.582-8-8-8h-8c-4.418 0-8 3.582-8 8S315.582 120 320 120zM320 144h8c4.418 0 8-3.582 8-8s-3.582-8-8-8h-8c-4.418 0-8 3.582-8 8S315.582 144 320 144zM384 120h8c4.418 0 8-3.582 8-8s-3.582-8-8-8h-8c-4.418 0-8 3.582-8 8S379.582 120 384 120zM352 248c2.048 0 4.095-.781 5.657-2.343l40-40c3.124-3.124 3.124-8.189 0-11.313-3.125-3.124-8.189-3.124-11.314 0L352 228.687l-10.343-10.343c-3.125-3.124-8.189-3.124-11.314 0-3.124 3.124-3.124 8.189 0 11.313l16 16C347.905 247.219 349.952 248 352 248z"/></svg>