<svg xmlns="http://www.w3.org/2000/svg" data-name="Layer 1" viewBox="0 0 128 128"><rect width="66.625" height="19.5" x="51.625" y="99.25" fill="#d68751"/><path fill="#fc785e" d="M36.54169,62.45831l-.68793-.51227A12.22918,12.22918,0,0,1,31.374,60.73389a12.79667,12.79667,0,0,1-6.14569-6.70038L22.83331,52.25S8.41669,71.91663,7.08331,74.29163s.33337,6.66669.33337,6.66669l22.20831,18.75,4.54169,25.375,8.375-1.5L40.58331,95.5,27.25,82.375l3.79169-8.08337,13.04163,5,3.625-5.375-13.125-7.08331Z"/><path fill="#2d4356" d="M41.2,38.85a8.10924,8.10924,0,0,0-6.49-.33A8.70983,8.70983,0,0,0,29.72,43.35l-.78,1.83a9.33379,9.33379,0,0,0,4.21,11.97,8.15755,8.15755,0,0,0,3.63.85,8.06563,8.06563,0,0,0,2.85-.52,8.65248,8.65248,0,0,0,4.99-4.83l.79-1.83A9.3338,9.3338,0,0,0,41.2,38.85Zm.53,10.39-.78,1.84a4.7074,4.7074,0,0,1-2.71,2.65,4.158,4.158,0,0,1-3.33-.17,5.11863,5.11863,0,0,1-2.74-4.64,5.49105,5.49105,0,0,1,.44-2.16l.79-1.84a4.7193,4.7193,0,0,1,2.7-2.65A4.1559,4.1559,0,0,1,37.57,42a4.2743,4.2743,0,0,1,1.87.44A5.2796,5.2796,0,0,1,41.73,49.24Z"/><path fill="#e1ebf4" d="M41.73,49.24l-.78,1.84a4.7074,4.7074,0,0,1-2.71,2.65,4.158,4.158,0,0,1-3.33-.17,5.11863,5.11863,0,0,1-2.74-4.64,5.49105,5.49105,0,0,1,.44-2.16l.79-1.84a4.7193,4.7193,0,0,1,2.7-2.65A4.1559,4.1559,0,0,1,37.57,42a4.2743,4.2743,0,0,1,1.87.44A5.2796,5.2796,0,0,1,41.73,49.24Z"/><path fill="#2d4356" d="M62,72H61V71a9.0156,9.0156,0,0,0-7-8.77V61a2,2,0,0,0-4,0v1.23a9.02011,9.02011,0,0,0-6.64,6.31l-5.63-2.38a6.73031,6.73031,0,0,0,.54-4.26,12.29141,12.29141,0,0,1-1.49.1,12.07513,12.07513,0,0,1-2.88-.35,2.82035,2.82035,0,0,1,.17,2.96l-8.15-3.45a1.9985,1.9985,0,0,0-1.56,3.68L44,73.15a2.04816,2.04816,0,0,1,1.03,2.63,1.93653,1.93653,0,0,1-1.04,1.08,1.66981,1.66981,0,0,1-1.35,0l-18.69-7.9A1.99852,1.99852,0,0,0,22.39,72.64l5.85,2.47-3.43,6.2a2.00532,2.00532,0,0,0,.4,2.45L36.66,94.14a6.50953,6.50953,0,0,1,2.15,4.22l2.06,21.51a1.37575,1.37575,0,0,0,.05.28,2.94014,2.94014,0,0,1-.57,2.53,3.39135,3.39135,0,0,1-2.69,1.27A3.33963,3.33963,0,0,1,34.47,121.77l-2.36-21.9a1.97441,1.97441,0,0,0-.74-1.35L21.5,90.68a1.84392,1.84392,0,0,0-.51-.41l-9.93-7.89A5.26274,5.26274,0,0,1,9.7,75.6L21.3,55.51A3.1623,3.1623,0,0,1,23.56,54a3.36673,3.36673,0,0,1,1.73.18,13.5546,13.5546,0,0,1-1.05-4.22,8.53167,8.53167,0,0,0-1.32.09,7.14147,7.14147,0,0,0-5.08,3.46L6.24,73.6a9.1807,9.1807,0,0,0,.74,10.3L.13,118.75a6.67378,6.67378,0,0,0,1.4,5.57A7.39227,7.39227,0,0,0,7.29,127a7.17121,7.17121,0,0,0,7.09-5.35l6.77-26.14L28.22,101.13l2.3,21.26a2.01858,2.01858,0,0,0,.06.34,7.43424,7.43424,0,0,0,12.91,2.42,6.92358,6.92358,0,0,0,1.35-5.79L42.79,97.98a10.53213,10.53213,0,0,0-3.45-6.81l-10.26-9.3,2.87-5.19,9.13,3.86a5.65,5.65,0,0,0,2.24.46,5.757,5.757,0,0,0,2.22-.45,5.91108,5.91108,0,0,0,3.21-3.3A6.27174,6.27174,0,0,0,49.09,76H62a2,2,0,0,0,0-4ZM10.5,120.68A3.23806,3.23806,0,0,1,7.29,123a3.40234,3.40234,0,0,1-2.66-1.21,2.657,2.657,0,0,1-.57-2.26l6.39-32.52,7.28,5.78ZM57,72H48.37a5.933,5.933,0,0,0-1.31-1.6A4.98736,4.98736,0,0,1,57,71Z"/><path fill="#e1ebf4" d="M57,71v1H48.37a5.933,5.933,0,0,0-1.31-1.6A4.98736,4.98736,0,0,1,57,71Z"/><path fill="#fc785e" d="M17.73,92.79,10.5,120.68A3.23806,3.23806,0,0,1,7.29,123a3.40234,3.40234,0,0,1-2.66-1.21,2.657,2.657,0,0,1-.57-2.26l6.39-32.52Z"/><path fill="#2d4356" d="M124,87V79.82c0-7.22-4.77-12.21-12-12.76V65.64A8.91392,8.91392,0,0,0,114,60V56a9,9,0,0,0-18,0v4a8.91392,8.91392,0,0,0,2,5.64v1.42c-7.23.55-12,5.54-12,12.76V87H77V84.71A7.02352,7.02352,0,0,0,82,78V71a2.00587,2.00587,0,0,0-2-2H70a1.99943,1.99943,0,0,0-2,2v7a7.02352,7.02352,0,0,0,5,6.71V87H48a3.99887,3.99887,0,0,0-4,4v6a3.99891,3.99891,0,0,0,4,4h2v25a2,2,0,0,0,4,0v-5.33h63V126a2,2,0,0,0,4,0V101h3a3.99891,3.99891,0,0,0,4-4V91A3.99887,3.99887,0,0,0,124,87ZM100,56a5,5,0,0,1,10,0v4a5,5,0,0,1-10,0Zm8,12.47v2.41l-3,3.2-3-3.2V68.47a8.75511,8.75511,0,0,0,6,0ZM98,71.08v.59a1.98211,1.98211,0,0,0,.54,1.36l5,5.34a2.00679,2.00679,0,0,0,2.92,0l5-5.34a1.98211,1.98211,0,0,0,.54-1.36v-.59c3.4.36,6.67,2.13,7.68,6.09l-4.02.57a1.52446,1.52446,0,0,0-.37.08,6.00606,6.00606,0,0,0-4.07,5.68V87H98.78V83.5a6.00189,6.00189,0,0,0-4.08-5.68,1.35272,1.35272,0,0,0-.36-.08l-4.02-.57C91.33,73.21,94.6,71.44,98,71.08Zm22,10.08V87h-4.78V83.5a1.98327,1.98327,0,0,1,1.22-1.83Zm-30,0,3.56.51a1.98327,1.98327,0,0,1,1.22,1.83V87H90ZM72,78V73h6v5a3,3,0,0,1-6,0Zm45,38.67H54V101h63ZM124,97H48V91h76Z"/><path fill="#81d9e3" d="M78,73v5a3,3,0,0,1-6,0V73Z"/><rect width="76" height="6" x="48" y="91" fill="#ffdb80"/><path fill="#e1ebf4" d="M108 68.47v2.41l-3 3.2-3-3.2V68.47a8.75511 8.75511 0 006 0zM120 81.16V87h-4.78V83.5a1.98327 1.98327 0 011.22-1.83zM94.78 83.5V87H90V81.16l3.56.51A1.98327 1.98327 0 0194.78 83.5z"/><path fill="#fc785e" d="M119.68,77.17l-4.02.57a1.52446,1.52446,0,0,0-.37.08,6.00606,6.00606,0,0,0-4.07,5.68V87H98.78V83.5a6.00189,6.00189,0,0,0-4.08-5.68,1.35272,1.35272,0,0,0-.36-.08l-4.02-.57c1.01-3.96,4.28-5.73,7.68-6.09v.59a1.98211,1.98211,0,0,0,.54,1.36l5,5.34a2.00679,2.00679,0,0,0,2.92,0l5-5.34a1.98211,1.98211,0,0,0,.54-1.36v-.59C115.4,71.44,118.67,73.21,119.68,77.17Z"/><path fill="#e1ebf4" d="M110,56v4a5,5,0,0,1-10,0V56a5,5,0,0,1,10,0Z"/><path fill="#2d4356" d="M66,17.23V2a2,2,0,0,0-4,0V17.23A9.0156,9.0156,0,0,0,55,26v2a1.99947,1.99947,0,0,0,2,2H71a2.00591,2.00591,0,0,0,2-2V26A9.0156,9.0156,0,0,0,66,17.23ZM59,26a5,5,0,0,1,10,0Z"/><path fill="#d68751" d="M69,26H59a5,5,0,0,1,10,0Z"/><path fill="#2d4356" d="M88,7.23V2a2,2,0,0,0-4,0V7.23A9.0156,9.0156,0,0,0,77,16v2a2.00591,2.00591,0,0,0,2,2H93a2.00591,2.00591,0,0,0,2-2V16A9.0156,9.0156,0,0,0,88,7.23ZM81,16a5,5,0,0,1,10,0Z"/><path fill="#d68751" d="M91,16H81a5,5,0,0,1,10,0Z"/><path fill="#2d4356" d="M44,7.23V2a2,2,0,0,0-4,0V7.23A9.0156,9.0156,0,0,0,33,16v2a1.99947,1.99947,0,0,0,2,2H49a2.00591,2.00591,0,0,0,2-2V16A9.0156,9.0156,0,0,0,44,7.23ZM37,16a5,5,0,0,1,10,0Z"/><path fill="#d68751" d="M47,16H37a5,5,0,0,1,10,0Z"/><path fill="#e5d0c3" d="M69 26h-.41A5.01139 5.01139 0 0059.41 26H59a5 5 0 0110 0zM91 16h-.41A5.01139 5.01139 0 0081.41 16H81a5 5 0 0110 0zM47 16h-.41A5.01139 5.01139 0 0037.41 16H37a5 5 0 0110 0z" opacity=".3"/><path fill="#fff" d="M42.08,48.07a4.98954,4.98954,0,0,0-2.64-3.63A4.2743,4.2743,0,0,0,37.57,44a4.1559,4.1559,0,0,0-1.47.27,4.7193,4.7193,0,0,0-2.7,2.65l-.79,1.84a5.21115,5.21115,0,0,0-.35,1.19,5.88826,5.88826,0,0,1-.09-1.03,5.49105,5.49105,0,0,1,.44-2.16l.79-1.84a4.7193,4.7193,0,0,1,2.7-2.65A4.1559,4.1559,0,0,1,37.57,42a4.2743,4.2743,0,0,1,1.87.44A5.19058,5.19058,0,0,1,42.08,48.07Z" opacity=".5"/><path fill="#9fa5aa" d="M41.73,49.24l-.78,1.84a4.7074,4.7074,0,0,1-2.71,2.65,4.158,4.158,0,0,1-3.33-.17,5.11863,5.11863,0,0,1-2.74-4.64,5.30542,5.30542,0,0,1,.09-.97,5.01179,5.01179,0,0,0,2.65,3.61,4.158,4.158,0,0,0,3.33.17,4.7074,4.7074,0,0,0,2.71-2.65l.78-1.84a5.59553,5.59553,0,0,0,.35-1.17A5.44758,5.44758,0,0,1,41.73,49.24Z" opacity=".5"/><path fill="#fff" d="M110,56v2a5,5,0,0,0-10,0V56a5,5,0,0,1,10,0Z" opacity=".5"/><path fill="#9fa5aa" d="M110,58v2a5,5,0,0,1-10,0V58a5,5,0,0,0,10,0Z" opacity=".5"/><path fill="#f9dbd7" d="M119.67993,77.17l-.74.1A8.588,8.588,0,0,0,112,73.08v.59a1.98211,1.98211,0,0,1-.54,1.36l-5,5.34a2.00679,2.00679,0,0,1-2.92,0l-5-5.34A1.98211,1.98211,0,0,1,98,73.67v-.59a8.58825,8.58825,0,0,0-6.94,4.19l-.74-.1c1.01-3.96,4.28-5.73,7.68-6.09v.59a1.98211,1.98211,0,0,0,.54,1.36l5,5.34a2.00679,2.00679,0,0,0,2.92,0l5-5.34a1.98211,1.98211,0,0,0,.54-1.36v-.59C115.4,71.44,118.66992,73.21,119.67993,77.17Z" opacity=".3"/><rect width="4.78" height="2" x="115.22" y="85" fill="#9fa5aa" opacity=".5"/><rect width="4.78" height="2" x="90" y="85" fill="#9fa5aa" opacity=".5"/><rect width="12.44" height="2" x="98.78" y="85" fill="#a54b3f" opacity=".5"/><path fill="#0f423c" d="M78,76v2a3,3,0,0,1-6,0V76a3,3,0,0,0,6,0Z" opacity=".3"/><rect width="76" height="2" x="48" y="95" fill="#ad9359" opacity=".45"/><rect width="76" height="2" x="48" y="91" fill="#f9edd2" opacity=".5"/><path fill="#a54b3f" d="M40.35,122.68a3.39135,3.39135,0,0,1-2.69,1.27A3.33963,3.33963,0,0,1,34.47,121.77l-2.36-21.9a1.97441,1.97441,0,0,0-.74-1.35L21.5,90.68a1.84392,1.84392,0,0,0-.51-.41l-9.93-7.89A5.2978,5.2978,0,0,1,9.1,77.2a5.39764,5.39764,0,0,0,1.96,3.18l9.93,7.89a1.84392,1.84392,0,0,1,.51.41l9.87,7.84a1.97441,1.97441,0,0,1,.74,1.35l2.36,21.9A3.33963,3.33963,0,0,0,37.66,121.95a3.39135,3.39135,0,0,0,2.69-1.27,3.08187,3.08187,0,0,0,.51-.94l.01.13a1.37575,1.37575,0,0,0,.05.28A2.94014,2.94014,0,0,1,40.35,122.68Z" opacity=".5"/><path fill="#a54b3f" d="M17.73,92.79,10.5,120.68A3.23806,3.23806,0,0,1,7.29,123a3.40234,3.40234,0,0,1-2.66-1.21,2.657,2.657,0,0,1-.57-2.26l.11-.54a2.81178,2.81178,0,0,0,.46.8A3.40234,3.40234,0,0,0,7.29,121a3.23806,3.23806,0,0,0,3.21-2.32l6.8-26.23Z" opacity=".5"/><path fill="#fff" d="M57,71v1h-.1a4.98043,4.98043,0,0,0-9.38-1.16,4.792,4.792,0,0,0-.46-.44A4.98736,4.98736,0,0,1,57,71Z" opacity=".5"/></svg>