<svg xmlns="http://www.w3.org/2000/svg" viewBox="0 0 134 134"><path fill="#E5E5E4" d="M46.997 4.921v20.064h-34.7c-1.07 0-2.05-.43-2.75-1.14-.7-.7-1.14-1.67-1.14-2.75V4.92c0-1.356 1.1-2.456 2.456-2.456H44.54c1.356 0 2.456 1.1 2.456 2.456z"/><path fill="#69697D" d="M37.322 17.73a1.02 1.02 0 0 1-1.02 1.02h-17.2a1.02 1.02 0 0 1 0-2.04h17.2c.563 0 1.02.457 1.02 1.02zm4-4.814a1.02 1.02 0 0 1-1.02 1.02h-25.2a1.02 1.02 0 0 1 0-2.04h25.2c.563 0 1.02.457 1.02 1.02zm0-4.814a1.02 1.02 0 0 1-1.02 1.02h-25.2a1.02 1.02 0 0 1 0-2.04h25.2c.563 0 1.02.457 1.02 1.02z"/><path fill="#AF8DC0" d="M125.593 59.452v43.585c0 1.963-1.244 3.555-2.78 3.555H70.737c-1.535 0-2.78-1.592-2.78-3.555V59.452c0-1.963 1.245-3.555 2.78-3.555h52.078c1.535 0 2.78 1.592 2.78 3.555z"/><path fill="#FFF" d="M80.37 93.407v3.652a.726.726 0 0 1-.726.726h-9.181a.726.726 0 0 1-.726-.726v-3.652c0-.402.325-.727.726-.727h9.181c.401 0 .726.325.726.727zm15.075 0v3.652a.726.726 0 0 1-.727.726h-9.18a.726.726 0 0 1-.727-.726v-3.652c0-.402.325-.727.726-.727h9.181c.401 0 .727.325.727.727zm15.074 0v3.652a.726.726 0 0 1-.726.726h-9.181a.726.726 0 0 1-.727-.726v-3.652c0-.402.325-.727.727-.727h9.18c.402 0 .727.325.727.727zm15.074 0v3.652a.726.726 0 0 1-.726.726h-9.181a.726.726 0 0 1-.726-.726v-3.652c0-.402.325-.727.726-.727h9.181c.401 0 .726.325.726.727z"/><path fill="#69697D" d="m78.321 40.47-7.597 81.666c-.4 3.614-3.576 6.356-7.363 6.356H24.01c-3.788 0-6.964-2.742-7.364-6.356L9.05 40.47c-.465-4.198 2.964-7.858 7.363-7.858h54.545c4.4 0 7.828 3.66 7.363 7.858z"/><path fill="#464C59" d="m76.49 43.513-7.253 81.665a7.108 7.108 0 0 1-7.068 6.357H24.4a7.108 7.108 0 0 1-7.067-6.357L10.08 43.513c-.446-4.199 2.845-7.858 7.068-7.858H69.42c4.223 0 7.514 3.66 7.068 7.858z"/><path fill="#FFF" d="m66.663 72.08 1.496-24.697a2.48 2.48 0 0 0-2.467-2.728H20.878a2.48 2.48 0 0 0-2.467 2.728l1.495 24.698a2.48 2.48 0 0 0 2.467 2.23h41.823a2.48 2.48 0 0 0 2.467-2.23zM33.67 82.106v5.39c0 .44-.35.79-.79.79H22.63c-.44 0-.79-.35-.79-.79v-5.39c0-.43.35-.78.79-.78h10.25c.44 0 .79.35.79.78zm15.633 0v5.39c0 .44-.35.79-.79.79h-10.25c-.44 0-.79-.35-.79-.79v-5.39c0-.43.35-.78.79-.78h10.25c.44 0 .79.35.79.78zm15.632 0v5.39c0 .44-.35.79-.79.79h-10.25c-.44 0-.79-.35-.79-.79v-5.39c0-.43.35-.78.79-.78h10.25c.44 0 .79.35.79.78zM33.669 93.46v5.39c0 .44-.35.79-.79.79H22.63c-.44 0-.79-.35-.79-.79v-5.39c0-.43.35-.78.79-.78h10.25c.44 0 .79.35.79.78zm15.633 0v5.39c0 .44-.35.79-.79.79h-10.25c-.44 0-.79-.35-.79-.79v-5.39c0-.43.35-.78.79-.78h10.25c.44 0 .79.35.79.78zm15.632 0v5.39c0 .44-.35.79-.79.79h-10.25c-.44 0-.79-.35-.79-.79v-5.39c0-.43.35-.78.79-.78h10.25c.44 0 .79.35.79.78zm-31.265 11.355v5.39c0 .44-.35.79-.79.79H22.63c-.44 0-.79-.35-.79-.79v-5.39c0-.43.35-.78.79-.78h10.25c.44 0 .79.35.79.78zm15.633 0v5.39c0 .44-.35.79-.79.79h-10.25c-.44 0-.79-.35-.79-.79v-5.39c0-.43.35-.78.79-.78h10.25c.44 0 .79.35.79.78zm15.632 0v5.39c0 .44-.35.79-.79.79h-10.25c-.44 0-.79-.35-.79-.79v-5.39c0-.43.35-.78.79-.78h10.25c.44 0 .79.35.79.78z"/><path fill="#F05D55" d="M33.67 116.17v5.39c0 .44-.35.79-.79.79H22.63c-.44 0-.79-.35-.79-.79v-5.39c0-.43.35-.78.79-.78h10.25c.44 0 .79.35.79.78z"/><path fill="#96CB72" d="M49.302 116.17v5.39c0 .44-.35.79-.79.79h-10.25c-.44 0-.79-.35-.79-.79v-5.39c0-.43.35-.78.79-.78h10.25c.44 0 .79.35.79.78zm15.632 0v5.39c0 .44-.35.79-.79.79h-10.25c-.44 0-.79-.35-.79-.79v-5.39c0-.43.35-.78.79-.78h10.25c.44 0 .79.35.79.78zm-13.2-56.681c0 5.492-4.442 9.935-9.935 9.935s-9.934-4.443-9.934-9.935c0-5.492 4.442-9.953 9.934-9.953s9.935 4.461 9.935 9.953z"/><path fill="#FFF" d="M39.932 63.063a.999.999 0 0 1-.756-.345l-2.64-3.042a1 1 0 0 1 1.51-1.31l2.007 2.311 5.626-4.557a1 1 0 1 1 1.259 1.554L40.56 62.84a.996.996 0 0 1-.629.223zm80.345 6.032c0 3.5-2.83 6.33-6.33 6.33a6.33 6.33 0 1 1 6.33-6.33z"/><path fill="#E5E5E4" d="M112.213 69.095c0 3.5-2.83 6.33-6.33 6.33a6.33 6.33 0 1 1 6.33-6.33zM62.577 14.491v27.314h-38.59v-27.4c0-1.08-.44-2.05-1.14-2.75a3.85 3.85 0 0 0-2.75-1.14H58.6a3.976 3.976 0 0 1 3.976 3.976zm-50.45 10.484c.06.01.11.01.17.01h-.17v-.01z"/><path fill="#D3D1D1" d="M23.987 14.405v10.58h-11.69c2.15 0 3.89-1.74 3.89-3.89v-.81h.02v-5.88c0-2.15 1.74-3.89 3.89-3.89 1.07 0 2.05.43 2.75 1.14.7.7 1.14 1.67 1.14 2.75z"/><path fill="#FFF" d="M52.777 36.34a1.02 1.02 0 0 1-1.02 1.02h-17.2a1.02 1.02 0 0 1 0-2.04h17.2c.563.001 1.02.458 1.02 1.02zm4-4.813a1.02 1.02 0 0 1-1.02 1.02h-25.2a1.02 1.02 0 0 1 0-2.04h25.2c.563 0 1.02.457 1.02 1.02zm0-4.814a1.02 1.02 0 0 1-1.02 1.02h-25.2a1.02 1.02 0 0 1 0-2.04h25.2c.563 0 1.02.457 1.02 1.02zm0-4.814a1.02 1.02 0 0 1-1.02 1.02h-25.2a1.02 1.02 0 0 1 0-2.04h25.2c.563 0 1.02.456 1.02 1.02zm0-4.815a1.02 1.02 0 0 1-1.02 1.02h-25.2a1.02 1.02 0 0 1 0-2.04h25.2c.563 0 1.02.457 1.02 1.02z"/><path fill="#464C59" d="M110.012 43.23a.748.748 0 0 1-.53-.22 13.95 13.95 0 0 0-9.931-4.114c-3.752 0-7.278 1.46-9.928 4.113a.75.75 0 1 1-1.061-1.06 15.435 15.435 0 0 1 10.989-4.553 15.44 15.44 0 0 1 10.991 4.553.75.75 0 0 1-.53 1.28z"/><path fill="#464C59" d="M107.116 46.124a.748.748 0 0 1-.53-.22 9.878 9.878 0 0 0-7.035-2.914 9.88 9.88 0 0 0-7.034 2.914.75.75 0 1 1-1.06-1.06 11.368 11.368 0 0 1 8.094-3.354 11.37 11.37 0 0 1 8.096 3.354.75.75 0 0 1-.53 1.28z"/><path fill="#464C59" d="M104.222 49.019a.748.748 0 0 1-.53-.22 5.816 5.816 0 0 0-4.141-1.715c-1.563 0-3.033.609-4.14 1.715a.75.75 0 0 1-1.06-1.06 7.307 7.307 0 0 1 5.2-2.155c1.965 0 3.812.765 5.201 2.155a.75.75 0 0 1-.53 1.28zM101.327 51.913a.748.748 0 0 1-.53-.22c-.665-.664-1.825-.665-2.49 0a.75.75 0 1 1-1.061-1.06c1.231-1.232 3.379-1.232 4.611 0a.75.75 0 0 1-.53 1.28z"/></svg>