<svg xmlns="http://www.w3.org/2000/svg" viewBox="0 0 256 256"><circle cx="128" cy="128" r="127" fill="#2E4555"/><circle cx="74.6" cy="110.6" r="43.4" fill="#CC872F"/><circle cx="74.6" cy="114.5" r="43.4" fill="#F6BD72"/><circle cx="74.7" cy="114.5" r="37.7" fill="#E2A04A"/><path fill="#BB782B" d="M71.7 147.1v-8.3c-5-.1-10.2-1.6-13.2-3.6l2.1-5.5c3.1 2 7.6 3.5 12.5 3.5 6.1 0 10.3-3.3 10.3-8 0-4.5-3.4-7.3-9.8-9.7-8.8-3.3-14.3-7-14.3-14.1 0-6.8 5.1-11.9 13.1-13.2V80h5.4v7.9c5.2.2 8.7 1.5 11.2 2.9l-2.2 5.4c-1.8-1-5.4-2.8-10.9-2.8-6.7 0-9.2 3.8-9.2 7 0 4.2 3.2 6.4 10.7 9.3 8.9 3.4 13.4 7.7 13.4 15 0 6.5-4.8 12.5-13.7 13.9v8.5h-5.4z"/><path fill="#FFF" d="M72 148.9v-8.2c-4.7-.1-9.6-1.6-12.5-3.6l2-5.5c2.9 2 7.2 3.5 11.8 3.5 5.8 0 9.7-3.3 9.7-8 0-4.5-3.2-7.3-9.2-9.7-8.3-3.3-13.5-7-13.5-14.1 0-6.8 4.8-11.9 12.3-13.2v-8.2h5.1v7.9c4.9.2 8.2 1.5 10.6 2.9l-2 5.4c-1.7-1-5.1-2.8-10.3-2.8-6.3 0-8.7 3.8-8.7 7 0 4.2 3 6.4 10.1 9.3 8.4 3.4 12.7 7.7 12.7 15 0 6.5-4.5 12.5-12.9 13.9v8.5H72z"/><path fill="#EDEFF1" d="M82.2 110h107.2v88.2H82.2z"/><path fill="#EDEFF1" d="m135.8 66.9-53.6 43.5 53.6 43.4 53.6-43.4z"/><path fill="#BCBFC2" d="m193.6 121.3-8.4-7.9v85.2h8.4zM78 121.3v77.3h8.4v-85.2z"/><path fill="#BBC1C5" d="M185.2 113.4v-3.1l-49.4-39.9-49.4 39.9v3.1l49.4-42.9z"/><path fill="#CB2128" d="M173.7 79h15.7v25.9h-15.7z"/><path fill="#CB2128" d="m207.8 116.9-72-59.6-72 59.6c-5.7 4.7-2.4 14 5 14 1.8 0 3.6-.6 5-1.8l61.9-51.2 61.9 51.2c1.4 1.2 3.2 1.8 5 1.8 7.6 0 10.9-9.3 5.2-14z"/><path fill="#2DA3D3" d="m224.8 81.5-19.3 4.8 4.4 4.3-37.9 39.3-13.2-25.9-49.7 49.8-17.8-19.6-39.6 31.7 4.7 5.8 34.1-27.3 18.3 20.2 48-48.1 13.3 26.1 45.1-46.7 4.9 4.9z"/><path fill="#D8B43E" d="M154.6 178.7H143V173c0-2.1.3-3.7.8-4.7s1.7-2.5 3.4-4.3l5.2-5.4c.8-.9 1.2-2.1 1.2-3.6s-.4-2.7-1.2-3.6c-.8-1-1.9-1.5-3.2-1.5-1.3 0-2.4.6-3.3 1.7-.9 1.2-1.4 2.7-1.7 4.6H132c.6-5.1 2.4-9.1 5.6-12.1 3.2-2.9 7.2-4.4 11.9-4.4 4.8 0 8.7 1.3 11.7 3.9 3 2.6 4.5 6.2 4.5 10.8 0 2-.3 3.6-.8 4.6-.5 1-.9 1.7-1.1 2.2-.2.4-.7 1.1-1.4 2-.7.9-1.2 1.4-1.5 1.7l-3.5 3.5c-1.1 1.1-1.8 2-2.2 2.6-.4.7-.5 1.7-.5 3.1v4.6zm-10.4 14.7c-1.3-1.3-2-2.9-2-4.8s.7-3.5 2-4.8c1.3-1.3 2.9-2 4.8-2s3.5.7 4.8 2c1.3 1.3 2 2.9 2 4.8s-.7 3.5-2 4.8c-1.3 1.3-2.9 2-4.8 2-1.9-.1-3.5-.7-4.8-2z"/></svg>