<svg xmlns="http://www.w3.org/2000/svg" viewBox="0 0 64 64"><path fill="#2E79BE" d="M61.833 12.295a8.723 8.723 0 0 0-5.697-3.548 8.827 8.827 0 0 0-1.431-.118 8.736 8.736 0 0 0-8.656 7.338 8.746 8.746 0 0 0 1.045 5.787 5.071 5.071 0 0 1-.317.394A1955.552 1955.552 0 0 0 32.86 38.34a3.648 3.648 0 0 1-.42.438 8.676 8.676 0 0 0-2.548-.83 8.87 8.87 0 0 0-5.104.686c-.05-.044-.103-.1-.163-.163-2.542-2.783-5.144-5.517-7.595-8.081a1.704 1.704 0 0 1-.072-.078 8.707 8.707 0 0 0 .986-2.835 8.7 8.7 0 0 0-1.523-6.536 8.704 8.704 0 0 0-5.697-3.545A8.733 8.733 0 0 0 .64 24.616a8.674 8.674 0 0 0 .221 3.848 8.825 8.825 0 0 0 1.684 3.186 8.758 8.758 0 0 0 5.316 3.053 8.796 8.796 0 0 0 5.499-.889c1.36 1.376 2.705 2.809 4.015 4.203 1.16 1.235 2.361 2.514 3.571 3.752.041.041.081.085.116.122a8.828 8.828 0 0 0-1.25 3.277 8.712 8.712 0 0 0 1.52 6.536 8.722 8.722 0 0 0 5.7 3.548c.473.076.955.117 1.431.118a8.734 8.734 0 0 0 8.656-7.341 8.75 8.75 0 0 0-1.026-5.756c4.65-5.511 9.575-11.241 14.642-17.037l.009-.009a8.61 8.61 0 0 0 2.532.826c.473.079.952.12 1.428.121a8.808 8.808 0 0 0 7.074-3.583 8.583 8.583 0 0 0 1.535-3.514c.016-.072.028-.147.047-.247a8.715 8.715 0 0 0-1.527-6.535zm-11.918 4.394c.375-2.285 2.522-4.07 4.88-4.068.247 0 .492.019.733.057 2.727.432 4.48 2.798 4.079 5.506-.357 2.445-2.384 4.214-4.82 4.212a4.93 4.93 0 0 1-.639-.041 4.96 4.96 0 0 1-3.307-1.967c-.798-1.075-1.137-2.422-.926-3.699zm-26.378 29.08c.375-2.285 2.522-4.07 4.88-4.068.247 0 .495.019.733.057 2.727.432 4.48 2.798 4.079 5.506-.357 2.445-2.384 4.215-4.817 4.212-.216 0-.429-.013-.642-.041a4.96 4.96 0 0 1-3.307-1.967c-.798-1.072-1.137-2.422-.926-3.699zM8.611 30.795c-1.299-.167-2.504-.886-3.31-1.967-.797-1.072-1.134-2.422-.926-3.696.378-2.288 2.522-4.073 4.883-4.071.244 0 .492.019.733.057 2.723.432 4.48 2.798 4.079 5.506-.357 2.445-2.385 4.214-4.82 4.212-.213 0-.429-.013-.639-.041z"/></svg>