<svg xmlns="http://www.w3.org/2000/svg" enable-background="new 0 0 64 64" viewBox="0 0 64 64"><path fill="#82d9ff" d="M25.587,29.295c0-1.408-1.152-2.51-2.559-2.448L8.117,26.861c-1.409,0.061-2.56,1.266-2.56,2.674v3.301h0.896
			v8.261H24.69v-8.261h0.897V29.295z"/><polygon fill="#f9dd9d" points="18.523 26.845 17.445 22.284 13.698 22.284 12.62 26.845"/><path fill="#63312d" d="M18.523,27.345h-5.904c-0.153,0-0.297-0.07-0.393-0.189c-0.095-0.12-0.129-0.277-0.094-0.426l1.079-4.561
			c0.053-0.226,0.255-0.385,0.486-0.385h3.747c0.231,0,0.434,0.159,0.486,0.385l1.078,4.561c0.035,0.149,0.001,0.306-0.094,0.426
			C18.82,27.274,18.677,27.345,18.523,27.345z M13.251,26.345h4.641l-0.842-3.561h-2.956L13.251,26.345z"/><path fill="#63312d" d="M24.689,41.597H6.453c-0.276,0-0.5-0.224-0.5-0.5v-7.761H5.557c-0.276,0-0.5-0.224-0.5-0.5v-3.301
			c0-1.678,1.363-3.102,3.039-3.174l14.932-0.015c0.793-0.033,1.57,0.254,2.154,0.812s0.905,1.317,0.905,2.136v3.541
			c0,0.276-0.224,0.5-0.5,0.5h-0.397v7.761C25.189,41.373,24.966,41.597,24.689,41.597z M6.953,40.597h17.236v-7.761
			c0-0.276,0.224-0.5,0.5-0.5h0.397v-3.041c0-0.543-0.212-1.045-0.597-1.413c-0.386-0.369-0.904-0.573-1.441-0.535L8.117,27.361
			c-1.127,0.049-2.061,1.024-2.061,2.174v2.801h0.396c0.276,0,0.5,0.224,0.5,0.5V40.597z"/><path fill="#f9dd9d" d="M15.571 24.523c2.431 0 4.402-1.799 4.402-4.018v-2.664h-8.802v2.664C11.171 22.725 13.142 24.523 15.571 24.523zM9.127 19.12c0 .706.523 1.279 1.168 1.279h.774v-2.559h-.774C9.65 17.841 9.127 18.414 9.127 19.12z"/><path fill="#63312d" d="M11.07,20.899h-0.774c-0.92,0-1.669-0.798-1.669-1.779s0.749-1.779,1.669-1.779h0.774
			c0.276,0,0.5,0.224,0.5,0.5v2.559C11.57,20.676,11.347,20.899,11.07,20.899z M10.296,18.341c-0.369,0-0.669,0.35-0.669,0.779
			s0.3,0.779,0.669,0.779h0.274v-1.559H10.296z"/><path fill="#f9dd9d" d="M21.916,19.12c0-0.706-0.522-1.279-1.168-1.279h-0.774v2.559h0.774C21.393,20.399,21.916,19.826,21.916,19.12
			z"/><path fill="#63312d" d="M20.747,20.899h-0.774c-0.276,0-0.5-0.224-0.5-0.5v-2.559c0-0.276,0.224-0.5,0.5-0.5h0.774
			c0.92,0,1.669,0.798,1.669,1.779S21.667,20.899,20.747,20.899z M20.473,19.899h0.274c0.369,0,0.669-0.35,0.669-0.779
			s-0.3-0.779-0.669-0.779h-0.274V19.899z"/><path fill="#63312d" d="M15.571,25.023c-2.702,0-4.9-2.027-4.9-4.519v-2.664c0-0.276,0.224-0.5,0.5-0.5h8.802
			c0.276,0,0.5,0.224,0.5,0.5v2.664C20.473,22.996,18.273,25.023,15.571,25.023z M11.671,18.341v2.164c0,1.94,1.75,3.519,3.9,3.519
			c2.151,0,3.901-1.578,3.901-3.519v-2.164H11.671z"/><path fill="#f9dd9d" d="M10.1,31.267c0-0.946-0.772-1.685-1.716-1.643l-0.214,0.01c-0.944,0.042-1.716,0.848-1.716,1.794v7.742
				c0,0.944,0.772,1.752,1.716,1.791l0.214,0.011c0.944,0.041,1.716-0.696,1.716-1.641V31.267z"/><path fill="#63312d" d="M8.46,41.474c-0.032,0-0.065-0.001-0.098-0.002L8.144,41.46c-1.206-0.05-2.19-1.077-2.19-2.29v-7.742
				c0-1.211,0.984-2.239,2.193-2.293l0.215-0.01c0.591-0.031,1.155,0.183,1.579,0.588c0.425,0.406,0.659,0.958,0.659,1.554v8.064
				c0,0.594-0.233,1.145-0.657,1.55C9.541,41.265,9.018,41.474,8.46,41.474z M8.46,30.122c-0.018,0-0.036,0.001-0.054,0.001
				l-0.215,0.01c-0.683,0.031-1.238,0.611-1.238,1.295v7.742c0,0.672,0.566,1.264,1.236,1.291l0.22,0.012
				c0.295,0,0.615-0.097,0.842-0.314C9.476,39.943,9.6,39.649,9.6,39.331v-8.064c0-0.32-0.124-0.615-0.35-0.831
				C9.037,30.232,8.759,30.122,8.46,30.122z"/><path fill="#f8f3f3" d="M10.996,32.824v-3.541c0-1.41-1.151-2.512-2.559-2.448l-0.32,0.012c-1.409,0.061-2.56,1.266-2.56,2.677
				v3.301H10.996z"/><path fill="#63312d" d="M10.996,33.324H5.557c-0.276,0-0.5-0.224-0.5-0.5v-3.301c0-1.679,1.363-3.104,3.039-3.177l0.323-0.012
				c0.83-0.033,1.586,0.251,2.17,0.81c0.585,0.559,0.907,1.318,0.907,2.139v3.541C11.496,33.101,11.272,33.324,10.996,33.324z
				 M6.057,32.324h4.439v-3.041c0-0.545-0.212-1.048-0.598-1.416C9.513,27.5,9.001,27.325,8.46,27.334l-0.324,0.013
				c-1.145,0.05-2.079,1.026-2.079,2.177V32.324z"/><path fill="#f9dd9d" d="M24.69,31.267c0-0.946-0.771-1.685-1.716-1.643l-0.214,0.01c-0.944,0.042-1.716,0.848-1.716,1.794v7.742
				c0,0.944,0.771,1.752,1.716,1.791l0.214,0.011c0.944,0.041,1.716-0.696,1.716-1.641V31.267z"/><path fill="#63312d" d="M23.051,41.474c-0.032,0-0.065-0.001-0.098-0.002l-0.219-0.012c-1.206-0.05-2.19-1.077-2.19-2.29v-7.742
				c0-1.211,0.984-2.239,2.193-2.293l0.215-0.01c0.596-0.034,1.155,0.183,1.578,0.588c0.425,0.406,0.659,0.958,0.659,1.554v8.064
				c0,0.594-0.233,1.145-0.657,1.551C24.132,41.266,23.608,41.474,23.051,41.474z M23.051,30.122c-0.018,0-0.036,0.001-0.054,0.001
				l-0.215,0.01c-0.683,0.031-1.238,0.611-1.238,1.295v7.742c0,0.672,0.566,1.264,1.236,1.291L23,40.473
				c0.3,0,0.615-0.097,0.841-0.313c0.225-0.216,0.349-0.51,0.349-0.828v-8.064c0-0.32-0.124-0.615-0.35-0.831
				C23.627,30.232,23.349,30.122,23.051,30.122z"/><path fill="#f8f3f3" d="M25.587,32.824v-3.541c0-1.41-1.152-2.512-2.559-2.448l-0.321,0.012c-1.408,0.061-2.56,1.266-2.56,2.677
				v3.301H25.587z"/><path fill="#63312d" d="M25.587,33.324h-5.439c-0.276,0-0.5-0.224-0.5-0.5v-3.301c0-1.679,1.362-3.104,3.038-3.177l0.323-0.012
				c0.83-0.033,1.587,0.252,2.171,0.81c0.585,0.56,0.907,1.318,0.907,2.139v3.541C26.087,33.101,25.863,33.324,25.587,33.324z
				 M20.647,32.324h4.439v-3.041c0-0.544-0.212-1.047-0.598-1.416c-0.386-0.368-0.897-0.555-1.439-0.533l-0.324,0.013
				c-1.145,0.05-2.078,1.026-2.078,2.177V32.324z"/><rect width="50.768" height="5.62" x="8.599" y="37.021" fill="#db785a"/><path fill="#63312d" d="M59.366,43.142H8.599c-0.276,0-0.5-0.224-0.5-0.5v-5.62c0-0.276,0.224-0.5,0.5-0.5h50.768
			c0.276,0,0.5,0.224,0.5,0.5v5.62C59.866,42.918,59.643,43.142,59.366,43.142z M9.099,42.142h49.768v-4.62H9.099V42.142z"/><rect width="50.768" height="5.62" x="2.335" y="37.021" fill="#f9a287"/><polygon fill="#ffc8bb" points="4.335 39.021 53.103 39.021 53.103 37.021 2.335 37.021 2.335 42.642 4.335 42.642"/><path fill="#63312d" d="M53.103,43.142H2.335c-0.276,0-0.5-0.224-0.5-0.5v-5.62c0-0.276,0.224-0.5,0.5-0.5h50.768
			c0.276,0,0.5,0.224,0.5,0.5v5.62C53.603,42.918,53.379,43.142,53.103,43.142z M2.835,42.142h49.768v-4.62H2.835V42.142z"/><rect width="44.451" height="18.021" x="11.757" y="42.642" fill="#db785a"/><path fill="#63312d" d="M56.208,61.162H11.757c-0.276,0-0.5-0.224-0.5-0.5V42.642c0-0.276,0.224-0.5,0.5-0.5h44.451
			c0.276,0,0.5,0.224,0.5,0.5v18.021C56.708,60.938,56.484,61.162,56.208,61.162z M12.257,60.162h43.451V43.142H12.257V60.162z"/><polygon fill="#efc36a" points="54.32 37.021 50.61 30.995 37.695 30.995 33.983 37.021"/><path fill="#63312d" d="M54.32,37.521H33.983c-0.182,0-0.349-0.098-0.437-0.256s-0.084-0.353,0.011-0.507l3.712-6.026
			c0.091-0.147,0.252-0.237,0.426-0.237h12.914c0.174,0,0.335,0.09,0.426,0.238l3.711,6.026c0.095,0.153,0.099,0.348,0.011,0.506
			S54.502,37.521,54.32,37.521z M34.879,36.521h18.546l-3.095-5.026H37.975L34.879,36.521z"/><rect width="44.451" height="18.021" x="5.493" y="42.642" fill="#f9a287"/><rect width="2" height="18.021" x="5.493" y="42.642" fill="#ffc8bb"/><path fill="#63312d" d="M49.944,61.162H5.493c-0.276,0-0.5-0.224-0.5-0.5V42.642c0-0.276,0.224-0.5,0.5-0.5h44.451
			c0.276,0,0.5,0.224,0.5,0.5v18.021C50.444,60.938,50.221,61.162,49.944,61.162z M5.993,60.162h43.451V43.142H5.993V60.162z"/><polygon fill="#f9dd9d" points="48.057 37.021 44.346 30.995 31.432 30.995 27.719 37.021"/><polygon fill="#ffeecf" points="32.994 32.995 45.578 32.995 44.346 30.995 31.432 30.995 27.719 37.021 30.514 37.021"/><path fill="#63312d" d="M48.057,37.521H27.719c-0.182,0-0.349-0.098-0.437-0.256s-0.084-0.353,0.011-0.507l3.713-6.026
			c0.091-0.147,0.252-0.237,0.426-0.237h12.915c0.174,0,0.335,0.09,0.426,0.238l3.71,6.026c0.095,0.154,0.099,0.348,0.011,0.506
			S48.238,37.521,48.057,37.521z M28.614,36.521h18.548l-3.095-5.026H31.711L28.614,36.521z"/><path fill="#f8f3f3" d="M41.937,4.006c-6.332,0-11.463,5.134-11.463,11.466c0,1.333,0.238,2.607,0.657,3.797l-3.411,4.999
			l6.678-0.174c2.017,1.764,4.649,2.841,7.54,2.841c6.331,0,11.464-5.132,11.464-11.463C53.401,9.14,48.268,4.006,41.937,4.006z"/><path fill="#f9a287" d="M19.973,13.1h-5.755c-1.676,0-3.047,1.371-3.047,3.047v1.694h8.802V13.1z"/><path fill="#ffc8bb" d="M16.218,13.1h-2c-1.676,0-3.047,1.371-3.047,3.047v1.694h2v-1.694C13.171,14.471,14.542,13.1,16.218,13.1z"/><path fill="#63312d" d="M19.973 18.341h-8.802c-.276 0-.5-.224-.5-.5v-1.694c0-1.956 1.591-3.547 3.547-3.547h5.755c.276 0 .5.224.5.5v4.741C20.473 18.117 20.249 18.341 19.973 18.341zM11.671 17.341h7.802V13.6h-5.255c-1.404 0-2.547 1.143-2.547 2.547V17.341zM41.938 27.435c-2.823 0-5.557-1.006-7.72-2.836l-6.486.169c-.189-.026-.362-.097-.452-.261-.09-.165-.079-.366.026-.521l3.271-4.792c-.4-1.217-.603-2.468-.603-3.722 0-6.598 5.367-11.966 11.964-11.966s11.964 5.368 11.964 11.966C53.901 22.068 48.534 27.435 41.938 27.435zM34.397 23.594c.121 0 .238.044.329.124 2.004 1.752 4.564 2.717 7.211 2.717 6.046 0 10.964-4.918 10.964-10.963 0-6.047-4.918-10.966-10.964-10.966S30.974 9.425 30.974 15.472c0 1.224.211 2.445.628 3.631.053.15.031.316-.059.448l-2.86 4.191 5.702-.148C34.389 23.594 34.394 23.594 34.397 23.594z"/><path fill="#52b8d9" d="M50.639,18.426l-5.24-7.955c-0.086-0.131-0.199-0.196-0.312-0.196h-6.299V18.9h1.059h10.48
			C50.669,18.9,50.81,18.688,50.639,18.426z"/><polygon fill="#efc36a" points="44.66 15.851 47.16 15.851 45.489 13.313 42.989 13.313"/><path fill="#63312d" d="M47.16,16.351h-2.501c-0.168,0-0.325-0.085-0.418-0.226l-1.67-2.537c-0.101-0.153-0.109-0.35-0.022-0.512
				c0.088-0.162,0.257-0.263,0.44-0.263h2.499c0.168,0,0.325,0.085,0.418,0.225l1.672,2.537c0.101,0.154,0.109,0.351,0.022,0.513
				C47.513,16.25,47.344,16.351,47.16,16.351z M44.929,15.351h1.303l-1.013-1.537h-1.302L44.929,15.351z"/><path fill="#63312d" d="M50.326,19.4H38.787c-0.276,0-0.5-0.224-0.5-0.5v-8.626c0-0.276,0.224-0.5,0.5-0.5h6.299
			c0.288,0,0.555,0.153,0.73,0.422l5.24,7.954c0,0.001,0,0.001,0.001,0.002c0.18,0.275,0.204,0.578,0.066,0.831
			C50.98,19.248,50.689,19.4,50.326,19.4z M50.222,18.7c0,0.002,0.001,0.003,0.002,0.005l0.415-0.279L50.222,18.7z M39.287,18.4
			h10.736L45,10.774h-5.713V18.4z"/><path fill="#82d9ff" d="M33.546,18.9c-0.343,0-0.484-0.213-0.312-0.475l5.239-7.955c0.171-0.262,0.454-0.262,0.626,0l5.24,7.955
			c0.171,0.262,0.031,0.475-0.313,0.475H33.546z"/><path fill="#63312d" d="M44.026,19.4H33.547c-0.364,0-0.656-0.152-0.8-0.418c-0.137-0.253-0.111-0.557,0.069-0.831l5.238-7.956
			c0.176-0.267,0.442-0.421,0.73-0.421c0,0,0,0,0.001,0c0.288,0,0.554,0.153,0.73,0.421l5.24,7.955
			c0.181,0.275,0.206,0.579,0.069,0.832C44.683,19.248,44.391,19.4,44.026,19.4z M33.85,18.4h9.874l-4.938-7.496L33.85,18.4z"/><rect width="3.309" height="1.85" x="32.004" y="33.205" fill="#f8f3f3"/><rect width="6.388" height="1.85" x="37.241" y="33.205" fill="#f8f3f3"/><path fill="#63312d" d="M35.313 35.556h-3.31c-.276 0-.5-.224-.5-.5v-1.851c0-.276.224-.5.5-.5h3.31c.276 0 .5.224.5.5v1.851C35.813 35.332 35.59 35.556 35.313 35.556zM32.504 34.556h2.31v-.851h-2.31V34.556zM43.629 35.556h-6.388c-.276 0-.5-.224-.5-.5v-1.851c0-.276.224-.5.5-.5h6.388c.276 0 .5.224.5.5v1.851C44.129 35.332 43.905 35.556 43.629 35.556zM37.741 34.556h5.388v-.851h-5.388V34.556z"/></svg>