<svg xmlns="http://www.w3.org/2000/svg" viewBox="0 0 64 64"><path fill="#1d2f6f" d="M55 44h-5c0 3.31-8.06 6-18 6s-18-2.69-18-6H9c0 3.79 4.85 7.09 12 8.78V62h22v-9.22c7.15-1.7 12-4.99 12-8.78Z"/><circle cx="32" cy="44" r="6" fill="#1d2f6f"/><path fill="#f88dad" d="M27 2h10v10H27z"/><path fill="#8390fa" d="M7 12h10v10H7zM7 30h10v10H7zM47 12h10v10H47zM47 30h10v10H47z"/><path d="M55 43h-5c-.55 0-1 .45-1 1 0 1.72-4.41 4-11.87 4.75A6.965 6.965 0 0 0 39 44c0-3.86-3.14-7-7-7s-7 3.14-7 7c0 1.83.71 3.5 1.87 4.75C19.41 48 15 45.72 15 44c0-.55-.45-1-1-1H9c-.55 0-1 .45-1 1 0 4.08 4.47 7.62 12 9.57V62c0 .55.45 1 1 1h22c.55 0 1-.45 1-1v-8.43c7.53-1.94 12-5.49 12-9.57 0-.55-.45-1-1-1Zm-23-4c2.76 0 5 2.24 5 5s-2.24 5-5 5-5-2.24-5-5 2.24-5 5-5Zm10.77 12.81c-.45.11-.77.51-.77.97V61H22v-8.22c0-.46-.32-.87-.77-.97-6.09-1.45-10.26-4.04-11.08-6.81h3.02c1.32 3.91 10.32 6 18.83 6s17.52-2.09 18.83-6h3.02c-.82 2.77-4.99 5.37-11.08 6.81Z"/><path d="M57 11h-4V7c0-.55-.45-1-1-1H38V2c0-.55-.45-1-1-1H27c-.55 0-1 .45-1 1v4H12c-.55 0-1 .45-1 1v4H7c-.55 0-1 .45-1 1v10c0 .55.45 1 1 1h4v6H7c-.55 0-1 .45-1 1v10c0 .55.45 1 1 1h10c.55 0 1-.45 1-1V30c0-.55-.45-1-1-1h-4v-6h4c.55 0 1-.45 1-1V12c0-.55-.45-1-1-1h-4V8h13v4c0 .55.45 1 1 1h10c.55 0 1-.45 1-1V8h13v3h-4c-.55 0-1 .45-1 1v10c0 .55.45 1 1 1h4v6h-4c-.55 0-1 .45-1 1v10c0 .55.45 1 1 1h10c.55 0 1-.45 1-1V30c0-.55-.45-1-1-1h-4v-6h4c.55 0 1-.45 1-1V12c0-.55-.45-1-1-1ZM16 31v8H8v-8h3v3.13l-1.45-.96-1.11 1.66 3 2c.17.11.36.17.55.17s.39-.06.55-.17l3-2-1.11-1.66-1.45.96V31h3Zm0-18v8H8v-8h3v3.13l-1.45-.96-1.11 1.66 3 2c.17.11.36.17.55.17s.39-.06.55-.17l3-2-1.11-1.66-1.45.96V13h3Zm20-2h-8V3h8v8Zm20 20v8h-8v-8h3v3.13l-1.45-.96-1.11 1.66 3 2c.17.11.36.17.55.17s.39-.06.55-.17l3-2-1.11-1.66-1.45.96V31h3Zm0-10h-8v-8h3v3.13l-1.45-.96-1.11 1.66 3 2c.17.11.36.17.55.17s.39-.06.55-.17l3-2-1.11-1.66-1.45.96V13h3v8Z"/></svg>