<svg xmlns="http://www.w3.org/2000/svg" viewBox="0 0 60 60"><path fill="#6b6b75" d="M58.89,27.51a1.7,1.7,0,0,0-1.07-1.39l-3.37-1.35a24.966,24.966,0,0,0-3.47-8.35l1.43-3.35a1.664,1.664,0,0,0-.23-1.74,30.617,30.617,0,0,0-3.51-3.51,1.664,1.664,0,0,0-1.74-.23L43.58,9.02a24.966,24.966,0,0,0-8.35-3.47L33.88,2.18a1.7,1.7,0,0,0-1.39-1.07,27.61,27.61,0,0,0-4.98,0,1.7,1.7,0,0,0-1.39,1.07L24.77,5.55a24.966,24.966,0,0,0-8.35,3.47L13.07,7.59a1.666,1.666,0,0,0-1.74.23,29.092,29.092,0,0,0-3.51,3.51,1.664,1.664,0,0,0-.23,1.74l1.43,3.35a24.966,24.966,0,0,0-3.47,8.35L2.18,26.12a1.7,1.7,0,0,0-1.07,1.39,27.61,27.61,0,0,0,0,4.98,1.7,1.7,0,0,0,1.07,1.39l3.37,1.35a24.966,24.966,0,0,0,3.47,8.35L7.59,46.93a1.664,1.664,0,0,0,.23,1.74,30.617,30.617,0,0,0,3.51,3.51,1.666,1.666,0,0,0,1.74.23l3.35-1.43a24.966,24.966,0,0,0,8.35,3.47l1.35,3.37a1.7,1.7,0,0,0,1.39,1.07,27.609,27.609,0,0,0,4.98,0,1.7,1.7,0,0,0,1.39-1.07l1.35-3.37a24.966,24.966,0,0,0,8.35-3.47l3.35,1.43a1.664,1.664,0,0,0,1.74-.23,29.092,29.092,0,0,0,3.51-3.51,1.664,1.664,0,0,0,.23-1.74l-1.43-3.35a24.966,24.966,0,0,0,3.47-8.35l3.37-1.35a1.7,1.7,0,0,0,1.07-1.39A27.609,27.609,0,0,0,58.89,27.51ZM30,51A21,21,0,1,1,51,30,21,21,0,0,1,30,51Z"/><path fill="#deeeff" d="M46,25.31V43.6a20.993,20.993,0,0,1-32,0V25.31a2.985,2.985,0,0,1,1.53-2.61l13-7.31a2.965,2.965,0,0,1,2.94,0l13,7.31A2.985,2.985,0,0,1,46,25.31Z"/><path fill="#6b6b75" d="M18,47.23V31a1,1,0,0,1,1-1H41a1,1,0,0,1,1,1V47.23h0a20.336,20.336,0,0,1-24,0Z"/><path fill="#f2b051" d="M37,44H35V37a1,1,0,0,0-1-1H28a1,1,0,0,0-1,1v7H23a1,1,0,0,0-1,1v4.42L30,51l8-1.58V45A1,1,0,0,0,37,44Z"/><path fill="#e09e47" d="M22,49.42V45a1,1,0,0,1,1-1h7v7Z"/><path fill="#ffce5f" d="M28,36h6a1,1,0,0,1,1,1v7a0,0,0,0,1,0,0H27a0,0,0,0,1,0,0V37A1,1,0,0,1,28,36Z"/><path fill="#373737" d="M58.194,25.191l-2.888-1.154a25.762,25.762,0,0,0-3.2-7.709l1.222-2.862a2.645,2.645,0,0,0-.393-2.784,29.761,29.761,0,0,0-3.617-3.617,2.646,2.646,0,0,0-2.783-.4L43.672,7.893a25.762,25.762,0,0,0-7.709-3.2L34.807,1.8A2.7,2.7,0,0,0,32.574.118a28.335,28.335,0,0,0-5.147,0,2.7,2.7,0,0,0-2.236,1.688L24.037,4.694a25.762,25.762,0,0,0-7.709,3.2L13.466,6.671a2.646,2.646,0,0,0-2.785.394,29.831,29.831,0,0,0-3.617,3.617,2.644,2.644,0,0,0-.394,2.782l1.223,2.864a25.762,25.762,0,0,0-3.2,7.709L1.8,25.193A2.7,2.7,0,0,0,.118,27.426a28.248,28.248,0,0,0,0,5.147,2.7,2.7,0,0,0,1.688,2.236l2.888,1.154a25.762,25.762,0,0,0,3.2,7.709L6.671,46.534a2.642,2.642,0,0,0,.393,2.784,29.779,29.779,0,0,0,3.618,3.618,2.644,2.644,0,0,0,2.782.394l2.864-1.223a25.762,25.762,0,0,0,7.709,3.2L25.193,58.2a2.706,2.706,0,0,0,2.234,1.685c.879.078,1.775.116,2.647.116s1.721-.038,2.5-.116a2.708,2.708,0,0,0,2.235-1.689l1.154-2.888a25.762,25.762,0,0,0,7.709-3.2l2.862,1.222a2.642,2.642,0,0,0,2.784-.393,29.686,29.686,0,0,0,3.617-3.617,2.642,2.642,0,0,0,.395-2.783l-1.223-2.864a25.762,25.762,0,0,0,3.2-7.709L58.2,34.807a2.706,2.706,0,0,0,1.685-2.234,28.482,28.482,0,0,0,0-5.152A2.707,2.707,0,0,0,58.194,25.191Zm-.3,7.205a.7.7,0,0,1-.439.555L54.074,34.3a1,1,0,0,0-.607.72,23.819,23.819,0,0,1-3.324,8.016,1,1,0,0,0-.081.937l1.429,3.349a.66.66,0,0,1-.087.708,27.765,27.765,0,0,1-3.387,3.386.653.653,0,0,1-.7.073l-3.347-1.428a1.006,1.006,0,0,0-.937.081,23.819,23.819,0,0,1-8.016,3.324,1,1,0,0,0-.72.607l-1.348,3.374a.7.7,0,0,1-.567.444,26.5,26.5,0,0,1-4.782,0,.7.7,0,0,1-.555-.439L25.7,54.074a1,1,0,0,0-.72-.607,23.819,23.819,0,0,1-8.016-3.324.994.994,0,0,0-.937-.081l-3.349,1.429a.664.664,0,0,1-.708-.086,27.854,27.854,0,0,1-3.386-3.388.658.658,0,0,1-.073-.7l1.428-3.347a1,1,0,0,0-.081-.937,23.819,23.819,0,0,1-3.324-8.016,1,1,0,0,0-.607-.72L2.552,32.953a.7.7,0,0,1-.443-.567,26.241,26.241,0,0,1,0-4.783.7.7,0,0,1,.438-.554L5.926,25.7a1,1,0,0,0,.607-.72,23.819,23.819,0,0,1,3.324-8.016,1,1,0,0,0,.081-.937L8.509,12.677a.664.664,0,0,1,.086-.708,27.907,27.907,0,0,1,3.387-3.385.658.658,0,0,1,.7-.074l3.347,1.428a1,1,0,0,0,.937-.081,23.819,23.819,0,0,1,8.016-3.324,1,1,0,0,0,.72-.607l1.348-3.374a.7.7,0,0,1,.567-.443,26.33,26.33,0,0,1,4.783,0,.7.7,0,0,1,.554.438L34.3,5.926a1,1,0,0,0,.72.607,23.819,23.819,0,0,1,8.016,3.324,1,1,0,0,0,.937.081l3.349-1.429a.664.664,0,0,1,.708.086,27.838,27.838,0,0,1,3.385,3.387.66.66,0,0,1,.074.7l-1.428,3.347a1,1,0,0,0,.081.937,23.819,23.819,0,0,1,3.324,8.016,1,1,0,0,0,.607.72l3.374,1.348a.7.7,0,0,1,.443.557v.01A26.5,26.5,0,0,1,57.891,32.4Z"/><path fill="#373737" d="M30,8a22.007,22.007,0,0,0-14.25,5.238,1,1,0,0,0,1.3,1.524A19.978,19.978,0,0,1,47,40.483V25.31a3.99,3.99,0,0,0-2.04-3.482L31.966,14.521a3.979,3.979,0,0,0-3.926,0l-13,7.309A3.99,3.99,0,0,0,13,25.31V40.483a19.918,19.918,0,0,1,1.762-23.436,1,1,0,0,0-1.524-1.3A22,22,0,1,0,30,8ZM41,46.686a20.046,20.046,0,0,1-2,1.15V45a2,2,0,0,0-2-2H36V37a2,2,0,0,0-2-2H28a2,2,0,0,0-2,2v6H23a2,2,0,0,0-2,2v2.836a20.046,20.046,0,0,1-2-1.15V31H41ZM34,43H28V37h6Zm-7,2h2v4.949a19.831,19.831,0,0,1-6-1.238V45Zm4,0h6v3.711a19.831,19.831,0,0,1-6,1.238Zm12,.168V31a2,2,0,0,0-2-2H19a2,2,0,0,0-2,2V45.168a20.129,20.129,0,0,1-2-1.983V25.31a1.99,1.99,0,0,1,1.021-1.738l13.005-7.314a1.974,1.974,0,0,1,1.953,0l13,7.311A1.99,1.99,0,0,1,45,25.31V43.185A20.129,20.129,0,0,1,43,45.168Z"/><path fill="#373737" d="M24 25H20a1 1 0 000 2h4a1 1 0 000-2zM40 25H36a1 1 0 000 2h4a1 1 0 000-2zM32 25H28a1 1 0 000 2h4a1 1 0 000-2z"/></svg>