<svg xmlns="http://www.w3.org/2000/svg" id="Layer_1" x="0" y="0" enable-background="new 0 0 800 800" version="1.1" viewBox="0 0 800 800" xml:space="preserve"><path fill="#d3e4ec" d="M659.065,218.279v335.092H140.935V218.279c0-13.89,11.26-25.15,25.15-25.15h467.831
			C647.805,193.129,659.065,204.389,659.065,218.279z"/><path d="M659.065,554.371H140.935c-0.553,0-1-0.448-1-1V218.279c0-14.419,11.73-26.15,26.149-26.15h467.832
			c14.419,0,26.149,11.731,26.149,26.15v335.092C660.065,553.923,659.618,554.371,659.065,554.371z M141.935,552.371h516.131
			V218.279c0-13.316-10.833-24.15-24.149-24.15H166.084c-13.316,0-24.149,10.833-24.149,24.15V552.371z"/><path fill="#ce3a1d" d="M633.325,606.871h-466.65c-29.546,0-53.497-23.952-53.497-53.497v0h573.645v0
			C686.823,582.919,662.871,606.871,633.325,606.871z"/><path d="M633.325,607.871h-466.65c-30.05,0-54.497-24.447-54.497-54.498c0-0.552,0.447-1,1-1h573.645c0.553,0,1,0.448,1,1
			C687.822,583.424,663.375,607.871,633.325,607.871z M114.188,554.374c0.534,28.488,23.874,51.498,52.487,51.498h466.65
			c28.613,0,51.953-23.01,52.487-51.498H114.188z"/><path fill="#3fbdf1" d="M203.627,370.909c0,45.705,37.187,82.899,82.899,82.899h60.462v43.023h-60.462
			c-69.433,0-125.922-56.49-125.922-125.922s56.49-125.922,125.922-125.922h60.462v43.023h-60.462
			C240.813,288.01,203.627,325.197,203.627,370.909z"/><path d="M346.988,497.832h-60.463c-69.985,0-126.922-56.937-126.922-126.922s56.937-126.922,126.922-126.922h60.463
			c0.553,0,1,0.448,1,1v43.023c0,0.552-0.447,1-1,1h-60.463c-45.159,0-81.898,36.74-81.898,81.899s36.739,81.899,81.898,81.899
			h60.463c0.553,0,1,0.448,1,1v43.023C347.988,497.384,347.541,497.832,346.988,497.832z M286.525,245.987
			c-68.882,0-124.922,56.04-124.922,124.922s56.04,124.922,124.922,124.922h59.463v-41.023h-59.463
			c-46.262,0-83.898-37.637-83.898-83.899s37.637-83.899,83.898-83.899h59.463v-41.023H286.525z"/><rect width="37.029" height="43.023" x="346.988" y="244.987" fill="#ffb700"/><path d="M384.017,289.01h-37.028c-0.553,0-1-0.448-1-1v-43.023c0-0.552,0.447-1,1-1h37.028c0.553,0,1,0.448,1,1v43.023
			C385.017,288.563,384.569,289.01,384.017,289.01z M347.988,287.01h35.028v-41.023h-35.028V287.01z"/><rect width="37.029" height="43.023" x="346.988" y="453.808" fill="#ffb700"/><path d="M384.017,497.832h-37.028c-0.553,0-1-0.448-1-1v-43.023c0-0.552,0.447-1,1-1h37.028c0.553,0,1,0.448,1,1v43.023
			C385.017,497.384,384.569,497.832,384.017,497.832z M347.988,495.832h35.028v-41.023h-35.028V495.832z"/><circle cx="433.494" cy="340.049" r="35.955" fill="#ffb700"/><path d="M433.494,377.004c-20.378,0-36.956-16.578-36.956-36.956c0-20.377,16.578-36.955,36.956-36.955
			c20.377,0,36.955,16.578,36.955,36.955C470.449,360.426,453.871,377.004,433.494,377.004z M433.494,305.094
			c-19.274,0-34.956,15.681-34.956,34.955s15.682,34.956,34.956,34.956s34.955-15.681,34.955-34.956
			S452.769,305.094,433.494,305.094z"/><g><path fill="#ffb700" d="M491.575,435.776H375.412v-9.849c0-22.989,18.636-41.625,41.625-41.625h32.913
			c22.989,0,41.625,18.636,41.625,41.625V435.776z"/><path d="M491.575,436.776H375.412c-0.553,0-1-0.448-1-1v-9.849c0-23.503,19.121-42.625,42.625-42.625h32.913
			c23.504,0,42.625,19.122,42.625,42.625v9.849C492.575,436.328,492.128,436.776,491.575,436.776z M376.412,434.776h114.163v-8.849
			c0-22.401-18.225-40.625-40.625-40.625h-32.913c-22.4,0-40.625,18.224-40.625,40.625V434.776z"/></g><g><polygon fill="#3fbdf1" points="522.617 214.948 522.617 325.58 522.617 366.606 580.698 325.58 686.823 325.58 686.823 214.948"/><path d="M522.616,367.605c-0.157,0-0.315-0.037-0.46-0.112c-0.332-0.172-0.54-0.515-0.54-0.888V214.948c0-0.552,0.447-1,1-1
			h164.206c0.553,0,1,0.448,1,1V325.58c0,0.552-0.447,1-1,1H581.016l-57.822,40.843
			C523.021,367.544,522.819,367.605,522.616,367.605z M523.616,215.948v148.727l56.505-39.912c0.169-0.119,0.37-0.183,0.577-0.183
			h105.124V215.948H523.616z"/></g><g><rect width="35.955" height="35.955" x="548.943" y="246.652" fill="#d3e4ec"/><path d="M584.898,283.607h-35.955c-0.553,0-1-0.448-1-1v-35.955c0-0.552,0.447-1,1-1h35.955c0.553,0,1,0.448,1,1v35.955
				C585.898,283.16,585.451,283.607,584.898,283.607z M549.943,281.607h33.955v-33.955h-33.955V281.607z"/><rect width="47.94" height="8.758" x="599.956" y="246.652" fill="#d3e4ec"/><path d="M647.896,256.411h-47.94c-0.553,0-1-0.448-1-1v-8.758c0-0.552,0.447-1,1-1h47.94c0.553,0,1,0.448,1,1v8.758
				C648.896,255.963,648.449,256.411,647.896,256.411z M600.956,254.411h45.94v-6.758h-45.94V254.411z"/><g><rect width="62.614" height="8.528" x="599.956" y="264.63" fill="#d3e4ec"/><path d="M662.57,274.158h-62.614c-0.553,0-1-0.448-1-1v-8.528c0-0.552,0.447-1,1-1h62.614c0.553,0,1,0.448,1,1v8.528
				C663.57,273.71,663.123,274.158,662.57,274.158z M600.956,272.158h60.614v-6.528h-60.614V272.158z"/></g><g><rect width="62.614" height="8.528" x="599.956" y="282.377" fill="#d3e4ec"/><path d="M662.57,291.905h-62.614c-0.553,0-1-0.448-1-1v-8.528c0-0.552,0.447-1,1-1h62.614c0.553,0,1,0.448,1,1v8.528
				C663.57,291.457,663.123,291.905,662.57,291.905z M600.956,289.905h60.614v-6.528h-60.614V289.905z"/></g></g><g><polygon fill="#3fbdf1" points="631.962 441.07 631.962 515.419 524.928 515.419 524.928 441.07 578.445 478.244"/><path d="M631.962,516.418H524.928c-0.553,0-1-0.448-1-1V441.07c0-0.372,0.207-0.714,0.536-0.886
			c0.332-0.172,0.729-0.147,1.034,0.065l52.946,36.778l52.947-36.778c0.307-0.212,0.703-0.237,1.034-0.065
			c0.329,0.172,0.536,0.514,0.536,0.886v74.349C632.962,515.971,632.515,516.418,631.962,516.418z M525.928,514.418h105.034v-71.437
			l-51.947,36.083c-0.342,0.238-0.799,0.238-1.141,0l-51.946-36.083V514.418z"/></g><g><polygon fill="#ffb700" points="631.962 441.07 578.445 478.244 524.928 441.07"/><path d="M578.444,479.244c-0.199,0-0.399-0.06-0.57-0.179l-53.517-37.174c-0.359-0.25-0.515-0.703-0.384-1.12
			c0.131-0.417,0.517-0.701,0.954-0.701h107.034c0.438,0,0.823,0.284,0.954,0.701s-0.024,0.871-0.384,1.12l-53.518,37.174
			C578.844,479.185,578.644,479.244,578.444,479.244z M528.12,442.07l50.324,34.957l50.325-34.957H528.12z"/></g></svg>