<svg xmlns="http://www.w3.org/2000/svg" enable-background="new 0 0 512 512" viewBox="0 0 512 512"><path fill="#1f317e" d="M95.674 59.933c-.784 0-1.561-.346-2.086-1.008-.912-1.151-.718-2.824.433-3.736 7.675-6.08 15.78-11.775 24.088-16.928 1.248-.774 2.887-.39 3.662.858.774 1.248.39 2.887-.858 3.661-8.136 5.047-16.073 10.624-23.589 16.578C96.835 59.746 96.253 59.933 95.674 59.933zM145.115 29.274c-.998 0-1.955-.565-2.408-1.527-.625-1.329-.055-2.913 1.274-3.539 8.858-4.169 18.049-7.863 27.318-10.977 1.392-.467 2.9.281 3.368 1.674.468 1.392-.281 2.9-1.674 3.368-9.076 3.049-18.074 6.665-26.747 10.748C145.88 29.192 145.494 29.274 145.115 29.274zM200.248 10.748c-1.23 0-2.334-.858-2.599-2.11-.304-1.437.615-2.848 2.052-3.152 9.553-2.02 19.344-3.506 29.1-4.417 1.465-.138 2.759.938 2.895 2.4.137 1.462-.938 2.759-2.4 2.895-9.554.893-19.141 2.348-28.495 4.325C200.615 10.729 200.43 10.748 200.248 10.748zM287.223 7.566c-.119 0-.239-.008-.36-.024-9.469-1.281-19.142-2.029-28.75-2.223-1.469-.03-2.635-1.244-2.605-2.712.029-1.468 1.243-2.639 2.712-2.605 9.81.199 19.687.963 29.355 2.27 1.455.197 2.475 1.536 2.279 2.991C289.675 6.597 288.534 7.566 287.223 7.566zM263.142 512c-1.42 0-2.598-1.123-2.655-2.554-.058-1.468 1.084-2.704 2.552-2.762 9.599-.381 19.255-1.318 28.699-2.784 1.45-.226 2.81.768 3.036 2.22.225 1.451-.768 2.81-2.22 3.036-9.645 1.498-19.504 2.455-29.305 2.843C263.214 511.999 263.178 512 263.142 512zM234.015 511.507c-.066 0-.132-.002-.198-.007-9.777-.722-19.597-2.015-29.188-3.846-1.443-.275-2.389-1.668-2.113-3.111.275-1.443 1.668-2.389 3.111-2.113 9.391 1.792 19.008 3.059 28.582 3.766 1.465.108 2.564 1.383 2.456 2.848C236.561 510.441 235.394 511.507 234.015 511.507zM176.867 500.592c-.264 0-.533-.04-.798-.123-9.333-2.932-18.596-6.444-27.535-10.438-1.341-.599-1.942-2.172-1.343-3.513.599-1.341 2.172-1.942 3.512-1.343 8.752 3.911 17.822 7.35 26.959 10.221 1.401.44 2.18 1.933 1.74 3.334C179.047 499.865 177.998 500.592 176.867 500.592zM123.745 476.858c-.462 0-.929-.12-1.355-.373-8.408-4.99-16.622-10.527-24.415-16.456-1.169-.889-1.395-2.558-.506-3.726.889-1.169 2.558-1.396 3.726-.506 7.631 5.807 15.675 11.228 23.909 16.115 1.263.749 1.679 2.381.93 3.644C125.537 476.393 124.652 476.858 123.745 476.858zM77.444 441.631c-.662 0-1.325-.246-1.841-.741-7.06-6.776-13.803-14.031-20.042-21.566-.937-1.131-.779-2.807.352-3.744 1.131-.937 2.807-.779 3.744.352 6.11 7.379 12.714 14.485 19.629 21.12 1.06 1.017 1.094 2.7.077 3.76C78.841 441.357 78.143 441.631 77.444 441.631zM504.759 229.784c-1.334 0-2.484-1.002-2.639-2.359-1.084-9.532-2.732-19.089-4.899-28.406-.333-1.43.557-2.86 1.988-3.192 1.429-.333 2.86.557 3.192 1.988 2.213 9.515 3.897 19.275 5.004 29.01.166 1.459-.883 2.777-2.342 2.943C504.961 229.779 504.859 229.784 504.759 229.784zM491.578 173.13c-1.091 0-2.113-.676-2.503-1.762-3.233-9.013-7.031-17.937-11.289-26.527-.652-1.316-.114-2.911 1.202-3.564 1.316-.651 2.911-.114 3.563 1.202 4.348 8.772 8.227 17.887 11.53 27.092.496 1.382-.223 2.905-1.605 3.401C492.179 173.08 491.876 173.13 491.578 173.13zM465.749 121.003c-.871 0-1.724-.427-2.233-1.213-5.21-8.035-10.947-15.858-17.05-23.252-.935-1.133-.775-2.809.358-3.744 1.133-.934 2.809-.775 3.744.359 6.231 7.551 12.089 15.54 17.41 23.743.799 1.232.448 2.879-.784 3.678C466.747 120.864 466.245 121.003 465.749 121.003z"/><circle cx="252.929" cy="256.075" r="186.1" fill="#b8f0ff"/><path fill="#fff" d="M367.919,262.854v213.511l-33.014-4.876h-66.944l-32.773,5.057V353.058
				c0-3.563,2.888-6.452,6.452-6.452h126.279L367.919,262.854L367.919,262.854z"/><path fill="#1f317e" d="M235.188,479.205c-0.631,0-1.246-0.224-1.731-0.641c-0.589-0.505-0.928-1.242-0.928-2.019V353.057
				c0-5.023,4.087-9.111,9.111-9.111h123.62v-81.092c0-1.469,1.191-2.659,2.659-2.659s2.659,1.191,2.659,2.659v213.511
				c0,0.773-0.336,1.508-0.922,2.013c-0.585,0.505-1.362,0.731-2.126,0.617l-32.821-4.848h-66.544l-32.571,5.026
				C235.459,479.194,235.323,479.205,235.188,479.205z M241.64,349.266c-2.091,0-3.792,1.701-3.792,3.792v120.387l29.708-4.584
				c0.134-0.021,0.27-0.031,0.406-0.031h66.944c0.13,0,0.26,0.01,0.389,0.028l29.966,4.426V349.265L241.64,349.266L241.64,349.266z"/><path fill="#fff" d="M262.759,463.05c0,0-5.993-55.918-8.192-77.036c-0.295-2.831,1.924-5.288,4.77-5.288h84.431
				c2.85,0,5.072,2.46,4.771,5.294c-2.192,20.576-8.173,77.03-8.173,77.03L262.759,463.05L262.759,463.05z"/><path fill="#1f317e" d="M262.756,465.709c-1.342,0-2.495-1.012-2.641-2.376c-0.06-0.559-6.019-56.163-8.193-77.044
				c-0.218-2.096,0.465-4.195,1.875-5.759c1.411-1.566,3.43-2.463,5.539-2.463h84.431c2.114,0,4.137,0.901,5.549,2.47
				c1.409,1.566,2.089,3.667,1.867,5.764c-2.167,20.341-8.113,76.464-8.173,77.029c-0.155,1.461-1.465,2.518-2.925,2.364
				c-1.461-0.155-2.519-1.464-2.364-2.925c0.06-0.565,6.006-56.69,8.173-77.031c0.065-0.607-0.125-1.191-0.533-1.645
				c-0.411-0.457-0.977-0.708-1.595-0.708h-84.431c-0.615,0-1.179,0.251-1.589,0.706c-0.409,0.454-0.599,1.039-0.536,1.648
				c2.173,20.873,8.131,76.469,8.191,77.028c0.157,1.46-0.901,2.771-2.36,2.927C262.946,465.704,262.851,465.709,262.756,465.709z"/><path fill="#1f317e" d="M301.552,430.712c-24.415,0-45.241-20.674-48.442-48.091c-0.17-1.459,0.874-2.779,2.333-2.95
			c1.46-0.171,2.779,0.874,2.95,2.333c2.889,24.736,21.444,43.39,43.16,43.39c21.722,0,40.278-18.634,43.162-43.345
			c0.17-1.459,1.49-2.504,2.949-2.333c1.459,0.17,2.503,1.491,2.333,2.949c-1.556,13.333-7.328,25.536-16.252,34.361
			C324.821,425.851,313.388,430.712,301.552,430.712z"/><path fill="#ffdb69" d="M294.822,283.311h-15.602c-2.301,0-4.167,1.865-4.167,4.165v14.587h-3.246
				c-3.995,0-7.234,3.238-7.234,7.234v37.309h31.527v-63.296H294.822L294.822,283.311z"/><path fill="#1f317e" d="M296.099,349.266h-31.527c-1.469,0-2.659-1.191-2.659-2.659v-37.309
				c0-5.455,4.438-9.894,9.894-9.894h0.587v-11.928c0-3.763,3.063-6.825,6.827-6.825h16.88c1.469,0,2.659,1.191,2.659,2.659v63.296
				C298.758,348.075,297.567,349.266,296.099,349.266z M267.231,343.947h26.209V285.97h-14.221c-0.832,0-1.508,0.676-1.508,1.506
				v14.587c0,1.469-1.191,2.659-2.659,2.659h-3.246c-2.523,0-4.575,2.052-4.575,4.575V343.947z"/><path fill="#50deff" d="M367.971,476.148c0-9.201-7.46-16.661-16.661-16.661c-9.203,0-16.663,7.46-16.663,16.661
				c0,9.202,7.46,16.662,16.663,16.662C360.511,492.81,367.971,485.35,367.971,476.148z"/><path fill="#1f317e" d="M351.309,495.469c-10.654,0-19.322-8.667-19.322-19.321c0-10.653,8.668-19.32,19.322-19.32
				c10.653,0,19.32,8.667,19.32,19.32C370.63,486.802,361.963,495.469,351.309,495.469z M351.309,462.146
				c-7.722,0-14.003,6.281-14.003,14.002s6.282,14.002,14.003,14.002c7.721,0,14.002-6.281,14.002-14.002
				C365.311,468.428,359.03,462.146,351.309,462.146z"/><path fill="#50deff" d="M268.621,476.148c0-9.201-7.46-16.661-16.661-16.661c-9.203,0-16.663,7.46-16.663,16.661
				c0,9.202,7.46,16.662,16.663,16.662C261.161,492.81,268.621,485.35,268.621,476.148z"/><path fill="#1f317e" d="M251.959,495.469c-10.654,0-19.322-8.667-19.322-19.321c0-10.653,8.668-19.32,19.322-19.32
				c10.653,0,19.32,8.667,19.32,19.32C271.28,486.802,262.613,495.469,251.959,495.469z M251.959,462.146
				c-7.722,0-14.003,6.281-14.003,14.002s6.282,14.002,14.003,14.002c7.721,0,14.002-6.281,14.002-14.002
				C265.961,468.428,259.68,462.146,251.959,462.146z"/><path fill="#ffdb69" d="M480.283,269.744l-10.945,122.315c-0.49,5.52-5.114,9.752-10.655,9.752h-58.319
				c-5.541,0-10.165-4.232-10.653-9.752l-10.947-122.315H480.283z"/><path fill="#1f317e" d="M458.682,404.47h-58.319c-3.346,0-6.549-1.244-9.017-3.503c-2.468-2.26-3.99-5.34-4.285-8.673
				l-10.947-122.312c-0.131-1.463,0.949-2.755,2.411-2.886c1.466-0.129,2.755,0.949,2.885,2.411l10.947,122.315
				c0.37,4.18,3.811,7.33,8.005,7.33h58.319c4.193,0,7.636-3.15,8.007-7.328l10.946-122.317c0.131-1.463,1.422-2.542,2.885-2.411
				c1.463,0.131,2.542,1.423,2.411,2.885l-10.945,122.315C471.37,399.235,465.65,404.47,458.682,404.47z"/><g><path fill="#50deff" d="M486.971,269.744H372.643c-2.609,0-4.724-2.114-4.724-4.724v-8.884
				c0-2.609,2.114-4.724,4.724-4.724h114.442c2.609,0,4.724,2.114,4.724,4.724v8.771
				C491.808,267.577,489.643,269.744,486.971,269.744z"/><path fill="#1f317e" d="M486.971,272.403H372.643c-4.071,0-7.383-3.312-7.383-7.383v-8.884
				c0-4.071,3.312-7.383,7.383-7.383h114.442c4.071,0,7.383,3.312,7.383,7.383v8.77C494.467,269.04,491.104,272.403,486.971,272.403
				z M372.643,254.071c-1.138,0-2.064,0.926-2.064,2.065v8.884c0,1.138,0.926,2.064,2.064,2.064h114.328
				c1.201,0,2.178-0.977,2.178-2.178v-8.77c0-1.138-0.926-2.065-2.064-2.065H372.643L372.643,254.071z"/></g><g><path fill="#ffdb69" d="M340.341,277.764l-8.677-9.263h-0.009v-14.693c0-1.228-0.996-2.224-2.224-2.224H308.88
				c-1.228,0-2.224,0.995-2.224,2.224v14.693h-0.021l-8.346,9.296c-1.6,1.783-2.484,4.094-2.484,6.491v62.318h47.159v-62.202
				C342.965,281.939,342.026,279.565,340.341,277.764z"/><path fill="#1f317e" d="M342.965,349.266h-47.159c-1.469,0-2.659-1.191-2.659-2.659v-62.319
				c0-3.057,1.124-5.993,3.164-8.267l7.687-8.562v-13.651c0-2.692,2.19-4.883,4.883-4.883h20.551c2.693,0,4.884,2.19,4.884,4.883
				v13.633l7.967,8.505c0,0,0.001,0.001,0.001,0.001c2.154,2.303,3.341,5.307,3.341,8.458v62.202
				C345.624,348.075,344.434,349.266,342.965,349.266z M298.466,343.948h41.84v-59.542c0-1.797-0.677-3.51-1.905-4.824l-8.593-9.173
				c-0.5-0.483-0.811-1.159-0.811-1.908v-14.258h-19.681v14.258c0,0.787-0.342,1.494-0.885,1.98l-8.162,9.092
				c-1.163,1.296-1.803,2.971-1.803,4.715L298.466,343.948L298.466,343.948z"/></g><g><path fill="#50deff" d="M7.236,381.341V347.76c0-43.935,33.553-79.875,76.927-82.085h0.682h46.8l2.14,0.02
				c43.825,1.734,78.824,37.814,78.824,82.065v33.581H7.236L7.236,381.341z"/><path fill="#1f317e" d="M212.609,384c-1.469,0-2.659-1.191-2.659-2.659V347.76c0-42.823-33.481-77.695-76.23-79.407
				l-2.099-0.02l-47.389,0C42.543,270.495,9.896,305.37,9.896,347.76v33.581c0,1.469-1.191,2.659-2.659,2.659
				s-2.659-1.191-2.659-2.659V347.76c0-21.942,8.138-42.72,22.916-58.507c14.803-15.814,34.881-25.131,56.534-26.234
				c0.045-0.002,0.09-0.003,0.136-0.003h47.482l2.165,0.02c0.027,0,0.053,0.001,0.08,0.002
				c21.924,0.867,42.401,10.066,57.656,25.901c15.297,15.878,23.722,36.768,23.722,58.822v33.581
				C215.269,382.81,214.078,384,212.609,384z"/><path fill="#50deff" d="M43.919,380.94v-30.517V380.94z"/><path fill="#1f317e" d="M43.919,383.599c-1.469,0-2.659-1.191-2.659-2.659v-30.517c0-1.469,1.191-2.659,2.659-2.659
				s2.659,1.191,2.659,2.659v30.517C46.578,382.409,45.388,383.599,43.919,383.599z"/><path fill="#50deff" d="M175.926,350.423v30.918V350.423z"/><path fill="#1f317e" d="M175.926,384c-1.469,0-2.659-1.191-2.659-2.659v-30.918c0-1.469,1.191-2.659,2.659-2.659
				s2.659,1.191,2.659,2.659v30.918C178.585,382.81,177.395,384,175.926,384z"/><path fill="#fff" d="M108.246,293.25l-15.959,18.64c-4.751,5.549-13.312,5.745-18.232,0.344
				c-8.076-8.866-17.875-23.411-16.346-40.677c0,0,10.2-5.501,27.137-5.883L108.246,293.25z"/><path fill="#1f317e" d="M82.989,318.83c-4.149,0-8.111-1.743-10.899-4.806c-8.653-9.5-18.63-24.619-17.029-42.702
				c0.079-0.89,0.6-1.682,1.387-2.106c0.439-0.237,10.963-5.81,28.339-6.201c1.475-0.029,2.685,1.131,2.718,2.599
				c0.033,1.468-1.131,2.685-2.599,2.718c-12.684,0.285-21.492,3.581-24.651,4.963c-0.758,15.51,8.078,28.706,15.767,37.146
				c1.84,2.02,4.367,3.106,7.113,3.067c2.746-0.042,5.345-1.263,7.132-3.35l15.959-18.64c0.955-1.116,2.634-1.246,3.749-0.29
				c1.116,0.955,1.246,2.634,0.29,3.749l-15.959,18.64c-2.778,3.245-6.82,5.143-11.09,5.209
				C83.14,318.83,83.064,318.83,82.989,318.83z"/><path fill="#fff" d="M108.448,293.25l15.959,18.64c4.751,5.549,13.312,5.745,18.232,0.344
				c8.076-8.866,17.875-23.411,16.346-40.677c0,0-10.2-5.501-27.137-5.883L108.448,293.25z"/><path fill="#1f317e" d="M133.705,318.83c-0.076,0-0.151,0-0.227-0.002c-4.27-0.066-8.312-1.964-11.09-5.209l-15.959-18.64
				c-0.955-1.116-0.825-2.794,0.29-3.749c1.116-0.955,2.794-0.825,3.749,0.29l15.959,18.64c1.787,2.087,4.386,3.308,7.132,3.35
				c2.744,0.038,5.273-1.047,7.113-3.067c7.688-8.441,16.524-21.637,15.767-37.147c-3.154-1.38-11.963-4.678-24.651-4.963
				c-1.468-0.033-2.632-1.25-2.599-2.718c0.033-1.468,1.239-2.635,2.718-2.599c17.376,0.391,27.9,5.964,28.339,6.2
				c0.787,0.424,1.308,1.216,1.387,2.106c1.602,18.083-8.376,33.202-17.029,42.702C141.816,317.086,137.854,318.83,133.705,318.83z"/><path fill="#ffdb69" d="M141.605,253.813c21.521-5.895,47.36-17.598,63.818-31.711
					c-6.136-30.878-16.918-62.545-34.012-88.953c-18.606-28.708-53.977-63.794-90.553-33.771
					c-53.45-8.963-67.235,106.945-68.922,123.556c17.379,14.617,40.676,25.355,63.446,30.878H141.605z"/><path fill="#1f317e" d="M141.603,256.473c-1.168,0-2.24-0.776-2.563-1.957c-0.388-1.416,0.446-2.879,1.862-3.267
					c22.976-6.294,46.937-18.05,61.603-30.166c-6.807-33.423-18.317-63.299-33.327-86.488
					c-7.648-11.801-28.154-39.674-53.309-43.584c-11.507-1.789-22.718,1.719-33.324,10.424c-0.594,0.487-1.369,0.694-2.127,0.567
					c-8.806-1.477-16.692,0.558-24.113,6.219c-12.859,9.81-23.899,30.937-31.927,61.097c-6.083,22.853-8.793,44.522-9.651,52.48
					c16.067,13.166,38.311,23.86,61.28,29.431c1.427,0.346,2.303,1.784,1.957,3.211c-0.346,1.428-1.785,2.304-3.211,1.957
					c-11.819-2.867-23.348-6.976-34.268-12.215c-11.463-5.499-21.645-11.963-30.263-19.212c-0.673-0.566-1.023-1.429-0.934-2.304
					c1.568-15.435,11.048-93.695,43.79-118.674c8.198-6.255,17.285-8.747,27.02-7.418c11.557-9.158,23.86-12.797,36.586-10.819
					c10.874,1.691,21.91,7.463,32.801,17.156c10.732,9.552,19.059,20.93,24.155,28.792c8.232,12.718,15.424,27.293,21.376,43.32
					c5.367,14.45,9.744,30.116,13.012,46.56c0.187,0.942-0.148,1.912-0.877,2.537c-7.892,6.767-18.467,13.445-30.583,19.312
					c-11.073,5.362-22.921,9.838-34.264,12.945C142.072,256.442,141.835,256.473,141.603,256.473z"/><path fill="#1f317e" d="M85.353,130.59c-0.916,0-1.806-0.473-2.3-1.321c-4.651-7.986-5.232-14.137-5.255-14.395
				c-0.128-1.463,0.955-2.752,2.418-2.88c1.46-0.128,2.746,0.95,2.879,2.408c0.009,0.093,0.562,5.337,4.553,12.19
				c0.739,1.269,0.309,2.897-0.96,3.636C86.267,130.473,85.807,130.59,85.353,130.59z"/><path fill="#fff" d="M131.646,240.26v29.59c0,12.923-10.477,23.4-23.4,23.4c-12.923,0-23.398-10.477-23.398-23.4
					v-29.454L131.646,240.26z"/><path fill="#1f317e" d="M108.246,295.91c-14.368,0-26.057-11.69-26.057-26.059v-29.454c0-1.469,1.191-2.659,2.659-2.659
					s2.659,1.191,2.659,2.659v29.454c0,11.437,9.303,20.741,20.739,20.741c11.437,0,20.741-9.304,20.741-20.741v-29.59
					c0-1.469,1.191-2.659,2.659-2.659s2.659,1.191,2.659,2.659v29.59C134.305,284.219,122.615,295.91,108.246,295.91z"/><path fill="#fff" d="M173.456,167.385c-0.02,0-0.041-0.02-0.061-0.02c-3.796-1.232-9.852,2.562-13.267,7.689v-14.009
					l-0.007,0.008c-47.769-1.474-67.098-19.947-74.77-33.123L69.98,143.976c-8.172,8.53-12.733,19.886-12.733,31.698v-0.005
					c-3.355-5.314-9.381-8.405-13.301-7.173c-0.02,0-0.041,0.02-0.061,0.02c-5.172,1.718-6.95,10.425-3.94,19.417
					c3.031,8.971,9.658,14.83,14.851,13.093c0.93-0.323,1.765-0.869,2.452-1.596v0.005v0.97c0,28.078,22.501,50.905,50.452,51.432
					c28.831,0.544,52.43-23.754,52.43-52.591v-0.941c0.685,0.724,1.511,1.268,2.438,1.59c5.192,1.738,11.86-4.121,14.85-13.113
					C180.427,177.811,178.649,169.103,173.456,167.385z"/><path fill="#1f317e" d="M108.653,254.504c-0.335,0-0.669-0.003-1.005-0.009c-14.231-0.268-27.568-6.014-37.555-16.18
					c-9.201-9.366-14.599-21.514-15.402-34.511c-0.581,0.122-1.17,0.181-1.762,0.181c-5.999,0-12.425-6.087-15.505-15.202
					c-2.195-6.556-2.144-13.185,0.132-17.74c1.257-2.515,3.137-4.255,5.44-5.035c0.082-0.031,0.165-0.057,0.248-0.08
					c3.566-1.07,8.038,0.308,11.767,3.299c1.347-10.147,5.862-19.592,13.048-27.092L83.43,126.09c0.578-0.603,1.405-0.9,2.234-0.801
					c0.829,0.098,1.564,0.581,1.984,1.302c6.542,11.233,24.648,30.291,72.425,31.8c0.327-0.008,0.659,0.047,0.979,0.166
					c1.041,0.387,1.735,1.377,1.735,2.488v7.224c3.564-2.87,7.806-4.55,11.325-3.466c0.079,0.022,0.156,0.047,0.233,0.076
					c2.31,0.781,4.196,2.524,5.456,5.044c2.277,4.552,2.327,11.171,0.135,17.705c-2.166,6.513-6.178,11.762-10.731,14.037
					c-2.21,1.104-4.447,1.447-6.528,1.011c-0.863,13.609-6.827,26.698-16.659,36.347
					C135.822,249.029,122.586,254.504,108.653,254.504z M57.246,196.771c0.33,0,0.663,0.061,0.982,0.188
					c1.012,0.402,1.677,1.382,1.677,2.471v0.975c0,26.396,21.462,48.276,47.843,48.773c12.87,0.243,25.131-4.712,34.547-13.951
					c9.644-9.464,15.174-22.578,15.174-35.981v-0.941c0-1.089,0.664-2.067,1.675-2.471c1.011-0.403,2.166-0.149,2.915,0.642
					c0.396,0.418,0.856,0.722,1.365,0.902c0.986,0.324,2.131,0.167,3.405-0.47c3.268-1.633,6.358-5.834,8.064-10.965
					c1.728-5.151,1.786-10.376,0.153-13.641c-0.619-1.237-1.413-2.034-2.361-2.37c-0.052-0.015-0.103-0.032-0.154-0.051
					c-2.231-0.668-7.138,2.068-10.189,6.648c-0.65,0.975-1.862,1.411-2.983,1.071c-1.122-0.339-1.889-1.373-1.889-2.545v-11.439
					c-20.531-0.912-37.694-5.081-51.048-12.403c-9.156-5.02-16.375-11.395-21.507-18.982l-13.015,13.585
					c-7.735,8.074-11.994,18.678-11.994,29.858c0,1.469-1.191,2.659-2.659,2.659c-0.987,0-1.849-0.538-2.308-1.338
					c-2.788-4.342-7.612-6.721-10.143-5.978c-0.045,0.016-0.09,0.031-0.136,0.045c-0.941,0.335-1.729,1.129-2.345,2.361
					c-1.634,3.269-1.576,8.506,0.151,13.667c2.724,8.063,8.227,12.486,11.47,11.42c0.519-0.183,0.983-0.488,1.378-0.906
					C55.825,197.061,56.528,196.771,57.246,196.771z M45.103,170.885c-0.001,0-0.002,0.001-0.003,0.001
					C45.101,170.886,45.102,170.885,45.103,170.885z M172.231,169.751c0.001,0,0.002,0.001,0.003,0.001
					C172.233,169.752,172.232,169.752,172.231,169.751z M42.727,166.127c-0.001,0-0.002,0.001-0.003,0.001
					C42.725,166.128,42.726,166.127,42.727,166.127z M174.618,164.998c0.001,0,0.002,0.001,0.003,0.001
					C174.62,164.999,174.619,164.999,174.618,164.998z"/><path fill="#1f317e" d="M108.447,227.607c-7.533,0-14.614-2.934-19.939-8.261c-1.038-1.039-1.038-2.722,0-3.76
				c1.038-1.039,2.722-1.038,3.76,0c4.321,4.322,10.067,6.702,16.179,6.702s11.859-2.38,16.181-6.703
				c1.038-1.039,2.722-1.039,3.76,0c1.039,1.038,1.039,2.722,0,3.76C123.062,224.674,115.98,227.607,108.447,227.607z"/><path fill="#50deff" d="M105.962,77.458L62.949,99.446C30.507,119.13,49.826,149.02,49.826,149.02
					s16.768-36.452,56.136-40.826h1.083c39.368,4.374,56.136,40.826,56.136,40.826s19.319-29.89-13.123-49.574L105.962,77.458
					L105.962,77.458z"/><path fill="#1f317e" d="M163.182,151.679c-0.063,0-0.126-0.002-0.19-0.007c-0.968-0.069-1.821-0.66-2.226-1.541
					c-0.04-0.086-4.191-8.951-12.949-18.192c-11.589-12.229-25.357-19.323-40.92-21.086h-0.786
					c-15.563,1.764-29.331,8.858-40.92,21.086c-8.757,9.241-12.909,18.106-12.95,18.194c-0.407,0.88-1.26,1.47-2.227,1.538
					c-0.965,0.069-1.894-0.394-2.421-1.208c-0.361-0.558-8.789-13.836-5.291-29.063c2.221-9.667,8.703-17.818,19.268-24.228
					c0.055-0.033,0.112-0.065,0.169-0.095l43.013-21.988c0.752-0.384,1.641-0.389,2.397-0.012l44.096,21.988
					c0.066,0.033,0.13,0.068,0.193,0.106c10.564,6.41,17.047,14.561,19.268,24.228c3.498,15.227-4.931,28.505-5.291,29.063
					C164.923,151.225,164.08,151.679,163.182,151.679z M105.962,105.535h1.083c0.098,0,0.196,0.005,0.294,0.016
					c9.34,1.038,18.221,3.916,26.398,8.554c6.519,3.699,12.6,8.515,18.073,14.317c5.38,5.702,9.087,11.194,11.292,14.888
					c1.978-4.628,4.33-12.473,2.409-20.767c-1.891-8.165-7.523-15.153-16.739-20.768l-42.795-21.339l-41.73,21.332
					c-9.223,5.617-14.858,12.606-16.75,20.774c-1.921,8.293,0.431,16.138,2.409,20.767c2.205-3.694,5.913-9.186,11.292-14.888
					c5.473-5.801,11.554-10.618,18.073-14.317c8.176-4.638,17.058-7.517,26.398-8.554
					C105.766,105.54,105.864,105.535,105.962,105.535z"/><g><path fill="#50deff" d="M108.246,293.25v88.091V293.25z"/><path fill="#1f317e" d="M108.246,384c-1.469,0-2.659-1.191-2.659-2.659v-88.091c0-1.469,1.191-2.659,2.659-2.659
				c1.469,0,2.659,1.191,2.659,2.659v88.091C110.905,382.81,109.714,384,108.246,384z"/></g><g><path fill="#50deff" d="M131.646,340.733h27.498H131.646z"/><path fill="#1f317e" d="M159.143,343.393h-27.498c-1.469,0-2.659-1.191-2.659-2.659s1.191-2.659,2.659-2.659h27.498
				c1.469,0,2.659,1.191,2.659,2.659S160.612,343.393,159.143,343.393z"/></g></g><g><path fill="#50deff" d="M229.731,85.668v76.836c0,9.631,7.808,17.439,17.439,17.439h144.432
					c9.631,0,17.439-7.808,17.439-17.439V85.668H229.731z"/><path fill="#1f317e" d="M391.601,182.602H247.17c-11.082,0-20.098-9.016-20.098-20.098V85.668
					c0-1.469,1.191-2.659,2.659-2.659s2.659,1.191,2.659,2.659v76.836c0,8.15,6.63,14.78,14.78,14.78h144.432
					c8.15,0,14.78-6.63,14.78-14.78V85.668c0-1.469,1.191-2.659,2.659-2.659c1.469,0,2.659,1.191,2.659,2.659v76.836
					C411.7,173.586,402.684,182.602,391.601,182.602z"/><path fill="#50deff" d="M457.428,62.687L324.647,23.582c-3.435-1.012-7.088-1.012-10.523,0L181.344,62.687
					c-4.354,1.282-4.354,7.449,0,8.731l132.781,39.104c3.435,1.012,7.088,1.012,10.523,0l132.781-39.104
					C461.781,70.135,461.781,63.969,457.428,62.687z"/><path fill="#1f317e" d="M319.386,113.942c-2.023,0-4.046-0.29-6.013-0.869L180.592,73.968
					c-3.094-0.911-5.173-3.691-5.173-6.916c0-3.225,2.079-6.005,5.173-6.916l132.781-39.105c3.934-1.158,8.092-1.158,12.025,0
					l132.781,39.105c3.094,0.911,5.173,3.691,5.173,6.916c0,3.226-2.079,6.005-5.173,6.916l-132.781,39.104
					C323.431,113.652,321.409,113.942,319.386,113.942z M319.386,25.481c-1.518,0-3.035,0.217-4.51,0.652L182.095,65.237
					c-1.259,0.371-1.357,1.483-1.357,1.815s0.098,1.444,1.357,1.815l132.781,39.104c2.951,0.869,6.07,0.869,9.02,0l132.781-39.104
					c1.26-0.371,1.357-1.483,1.357-1.815c0-0.332-0.098-1.444-1.357-1.815L323.896,26.132
					C322.421,25.698,320.903,25.481,319.386,25.481z"/><g><circle cx="319.386" cy="179.57" r="49.838" fill="#fff"/><path fill="#1f317e" d="M319.386,232.067c-28.947,0-52.498-23.55-52.498-52.497s23.55-52.497,52.498-52.497
					s52.497,23.55,52.497,52.497S348.333,232.067,319.386,232.067z M319.386,132.391c-26.015,0-47.179,21.164-47.179,47.179
					s21.164,47.179,47.179,47.179c26.015,0,47.179-21.164,47.179-47.179S345.4,132.391,319.386,132.391z"/><path fill="#ffdb69" d="M366.077,144.318L366.077,144.318c-4.198-4.198-11-4.198-15.198,0l-33.51,33.51l-12.447-12.445
					c-4.198-4.198-11-4.198-15.197,0c-4.196,4.194-4.196,10.998,0,15.195l19.134,19.133c2.331,2.331,5.464,3.32,8.51,3.06
					c3.046,0.261,6.179-0.729,8.51-3.06l40.198-40.196C370.273,155.318,370.273,148.516,366.077,144.318z"/><path fill="#1f317e" d="M318.318,205.471c-0.315,0-0.632-0.011-0.949-0.033c-3.892,0.269-7.669-1.126-10.39-3.846
					l-19.134-19.133c-2.532-2.533-3.926-5.899-3.926-9.48c0-3.581,1.394-6.946,3.927-9.477c2.532-2.532,5.898-3.927,9.478-3.927
					c3.58,0,6.946,1.395,9.479,3.928l10.567,10.565l31.63-31.63c5.227-5.227,13.731-5.227,18.958,0c0,0,0,0,0,0
					c5.224,5.227,5.224,13.731,0,18.957l-40.199,40.197C325.26,204.091,321.872,205.471,318.318,205.471z M317.369,200.113
					c0.076,0,0.151,0.003,0.227,0.01c2.409,0.207,4.741-0.629,6.403-2.29l40.198-40.196c3.151-3.153,3.151-8.284,0-11.438
					c-3.153-3.152-8.283-3.152-11.437,0l-33.51,33.51c-1.039,1.039-2.722,1.039-3.76,0l-12.447-12.445
					c-1.528-1.528-3.559-2.37-5.718-2.37s-4.19,0.842-5.718,2.37c-1.527,1.527-2.368,3.556-2.368,5.716
					c0,2.16,0.841,4.191,2.369,5.719l19.134,19.133c1.662,1.662,3.995,2.496,6.403,2.291
					C317.218,200.116,317.294,200.113,317.369,200.113z"/></g></g></svg>