<svg xmlns="http://www.w3.org/2000/svg" viewBox="0 0 66 66"><path fill="#E7B95D" d="M19.17 35.217c1.708 1.483 3.165 3.078 4.529 4.895h2.576c2.405-1.216 4.669-3.225 5.96-4.704a3.86 3.86 0 0 1 .485-.461c-1.429-2.411-.648-5.518-.648-5.518H19.994c0 .001.838 3.346-.824 5.788z"/><path fill="#CCC" d="M36.019 37.366a6.197 6.197 0 0 1-2.037-.984c-1.389-1.061-1.915-2.571-2.075-3.922l-5.753 6.18a.457.457 0 0 0-.122.321.457.457 0 0 0-.122-.321l-5.753-6.18c-.16 1.343-.687 2.861-2.075 3.914-.534.412-1.205.755-2.029.992a54.01 54.01 0 0 1-2.599.654v26.772h26.869v-26.37c-1.521-.367-3.009-.684-4.304-1.056z"/><path fill="#88C057" d="m28.936 64.8-1.361-21.129c.014-.018.036-.028.048-.048l1.058-1.84a.626.626 0 0 0 0-.621l-1.058-1.841a.616.616 0 0 0-.535-.31h-2.115a.617.617 0 0 0-.535.31l-1.058 1.841a.626.626 0 0 0 0 .621l1.058 1.84c.012.02.034.029.048.048L23.126 64.8h5.81z"/><path fill="#E6E6E6" d="m34.188 36.008-.206.374-3.54 6.478c-.16.374-.717.351-.969-.038l-3.342-3.532a.581.581 0 0 1-.099-.32v-.007c0-.122.038-.229.122-.321l5.753-6.18.137-.145c.137-.145.404-.076.504.122l1.633 3.326a.308.308 0 0 1 .007.243z"/><path fill="#E6E6E6" d="M26.032 38.961v.007a.584.584 0 0 1-.099.32l-3.342 3.532c-.252.389-.801.412-.969.038l-3.54-6.485-.206-.366a.31.31 0 0 1 .015-.244l1.633-3.326c.099-.198.359-.267.496-.122l.137.145 5.753 6.18a.454.454 0 0 1 .122.321z"/><path fill="#666" d="M26.014 64.782c.017 0 .017.018.017.018H4.177a3.178 3.178 0 0 1-3.175-3.261l.392-14.189c0-7.188 7.717-8.247 13.283-9.63.478-.119.939-.238 1.383-.359.82-.238 1.486-.58 2.015-.99.017-.017.051-.033.068-.051-.017 3.74.563 16.374 7.871 28.462zM51.061 61.538a3.177 3.177 0 0 1-3.175 3.261H26.031l.017-.018c7.308-12.071 7.888-24.688 7.888-28.444l.051.051c.529.393 1.195.734 2.032.973.444.12.905.257 1.383.359 5.549 1.383 13.266 2.442 13.266 9.63l.393 14.188z"/><path fill="#515151" d="M38.29 46.036a.959.959 0 0 1-.443.905l-1.247.785a.928.928 0 0 0-.444.887l.273 2.698a.918.918 0 0 1-.103.529c-3.671 7.837-9.886 12.652-10.278 12.942 7.308-12.071 7.888-24.688 7.888-28.444 0-.718-.017-1.11-.017-1.11l3.483 2.458v.034l.888 8.316zM26.014 64.782c-5.331-3.938-10.474-12.28-10.363-13.471l.273-2.698a.931.931 0 0 0-.444-.887l-1.246-.785a.959.959 0 0 1-.444-.905l.888-8.315v-.034l3.483-2.458s-.017.393-.017 1.093c-.018 3.738.562 16.372 7.87 28.46z"/><path fill="#FC6" d="M36.006 17.586c-.318-.062-.656.078-.977.367V13.67l-1.347-4.559-7.77-2.959-7.77 2.959-1.347 4.559v4.283c-.321-.289-.659-.429-.977-.367-.858.169-1.235 1.74-.844 3.508.392 1.769 1.404 3.066 2.262 2.898.045-.009.083-.037.125-.053.682 2.822 2.054 6.873 4.509 8.257 0 0 1.437 1.186 4.042 1.313 2.605-.127 4.042-1.313 4.042-1.313 2.455-1.384 3.827-5.435 4.509-8.257.042.016.08.045.125.053.858.169 1.87-1.129 2.262-2.898.391-1.769.014-3.339-.844-3.508z"/><path fill="#515151" d="M33.141 7.457s-.463-3.087-4.765-3.359c-5.912-.374-11.442.78-11.945 6.854-.144 1.743-.272 4.56.009 7.624l.296 2.207a.238.238 0 0 0 .236.206h.071a.239.239 0 0 0 .238-.229c.023-.61.112-2.411.409-5.046.37-3.286-.093-4.972 2.035-5.448 1.465-.327 3.911-.034 5.292.18.662.103 1.33.05 1.967-.158 1.477-.481 4.27-1.175 5.141.108 1.202 1.773.972 4.064.972 4.064s1.487 3.392 1.442 6.283a.238.238 0 1 0 .475.029c.761-8.432 1.866-12.067-1.873-13.315z"/><path fill="#333" d="m36.558 21.053-.991-.128.737-5.691c.923-7.115-4.5-12.025-10.36-12.025-5.9 0-11.279 4.95-10.359 12.028l.728 5.599-.99.129-.728-5.599c-1.003-7.744 4.912-13.155 11.35-13.155 6.47 0 12.348 5.438 11.35 13.151l-.737 5.691zM26.4 29.511c-.154 0-.31-.003-.469-.008l.027-.748c7.937.282 9.136-6.956 9.185-7.264l.739.115c-.011.08-1.328 7.905-9.482 7.905z"/><path fill="#D56455" d="m36.567 17.516.037-.526h-1.015c-1.242-.106-2.398 1.559-2.582 3.719-.185 2.16.672 3.998 1.913 4.104.09.008.178-.013.268-.023l-.002.023h.861l.031-.436c.733-.617 1.301-1.83 1.425-3.283.13-1.522-.263-2.869-.936-3.578z"/><ellipse cx="36.382" cy="20.901" fill="#ED7161" rx="3.926" ry="2.256" transform="rotate(-85.113 36.38 20.9)"/><path fill="#D56455" d="m15.324 17.516-.038-.526h1.015c1.241-.106 2.398 1.559 2.582 3.719.185 2.16-.672 3.998-1.913 4.104-.09.008-.178-.013-.268-.023l.001.023h-.86l-.031-.436c-.733-.617-1.301-1.83-1.425-3.283-.129-1.522.263-2.869.937-3.578z"/><ellipse cx="15.509" cy="20.901" fill="#ED7161" rx="3.926" ry="2.256" transform="rotate(-94.887 15.508 20.9)"/><ellipse cx="25.62" cy="29.268" fill="#333" rx="2.269" ry="1.851"/><path fill="#9A7BAA" d="M52.662 1.2c-6.814 0-12.339 4.325-12.339 9.66 0 3.63 2.561 6.789 6.342 8.439-.335 1.726-1.4 3.6-4.098 4.986-.217.112-.126.441.116.407 2.043-.281 6.027-1.221 8.373-4.264.527.054 1.06.091 1.605.091C59.476 20.52 65 16.195 65 10.86c0-5.335-5.524-9.66-12.338-9.66z"/><circle cx="46.69" cy="10.86" r="1.997" fill="#FFF"/><circle cx="52.662" cy="10.86" r="1.997" fill="#FFF"/><circle cx="58.633" cy="10.86" r="1.997" fill="#FFF"/><path fill="#ED7161" d="m64.2 45.838.128-.588-1.303-.769a8.74 8.74 0 0 0-.011-1.592l1.303-.769-.117-.587-1.495-.213a8.824 8.824 0 0 0-.609-1.474l.897-1.208-.331-.491-1.463.385a8.057 8.057 0 0 0-1.122-1.132l.363-1.464-.491-.331-1.196.908a8.973 8.973 0 0 0-1.485-.609l-.214-1.495-.588-.107-.769 1.292a7.988 7.988 0 0 0-1.592 0l-.769-1.292-.587.118-.203 1.484a8.75 8.75 0 0 0-1.485.62l-1.196-.897-.502.331.374 1.453c-.406.342-.79.727-1.121 1.132l-1.464-.374-.331.502.908 1.207c-.246.47-.449.961-.609 1.474l-1.485.214-.118.587 1.292.758a8.929 8.929 0 0 0 0 1.602l-1.292.769.118.587 1.495.214c.16.513.363 1.004.609 1.464l-.897 1.217.331.491 1.453-.384c.353.417.727.79 1.143 1.132l-.374 1.464.491.331 1.207-.908c.47.246.961.449 1.474.609l.213 1.485.598.117.748-1.292a7.941 7.941 0 0 0 1.602 0l.769 1.282.588-.118.214-1.484a7.453 7.453 0 0 0 1.464-.62l1.207.908.502-.331-.374-1.453c.406-.353.79-.727 1.132-1.143l1.453.374.331-.491-.908-1.208c.256-.469.459-.961.609-1.474l1.485-.213zm-14.805-.566h1.324v.011a4.449 4.449 0 0 0 2.628 2.617v1.325a5.714 5.714 0 0 1-3.899-3.76 1.13 1.13 0 0 0-.053-.193zm11.056-3.141h-1.346a4.46 4.46 0 0 0-2.617-2.617v-1.346a5.704 5.704 0 0 1 3.91 3.771c.01.064.032.128.053.192zm-5.929-.416a2.034 2.034 0 0 1 2.382 1.581 2.026 2.026 0 1 1-3.974.801 2.038 2.038 0 0 1 1.592-2.382zm-1.356-3.493c.053-.021.118-.032.182-.053v1.346a4.449 4.449 0 0 0-2.628 2.617h-1.324a5.697 5.697 0 0 1 3.77-3.91zm3.514 10.949a1.254 1.254 0 0 0-.192.054V47.9l.011-.01a4.356 4.356 0 0 0 2.606-2.617h1.346a5.71 5.71 0 0 1-3.771 3.898z"/><path fill="#D56455" d="M61.808 42.313a7.028 7.028 0 0 0-8.268-5.501 7.01 7.01 0 0 0-5.501 8.268 7.009 7.009 0 0 0 8.268 5.501c3.792-.758 6.259-4.465 5.501-8.268zm-8.642-4.091c.053-.021.118-.032.182-.053v1.346a4.449 4.449 0 0 0-2.628 2.617h-1.324a5.697 5.697 0 0 1 3.77-3.91zm.181 11.003a5.714 5.714 0 0 1-3.899-3.76c-.011-.064-.032-.128-.053-.192h1.324v.011a4.449 4.449 0 0 0 2.628 2.617v1.324zm1.998-3.429a2.148 2.148 0 0 1-2.521-1.677 2.144 2.144 0 0 1 1.677-2.51 2.144 2.144 0 0 1 2.51 1.667 2.143 2.143 0 0 1-1.666 2.52zm1.335 3.375a1.254 1.254 0 0 0-.192.054V47.9l.011-.01a4.356 4.356 0 0 0 2.606-2.617h1.346a5.71 5.71 0 0 1-3.771 3.898zm2.425-7.04a4.46 4.46 0 0 0-2.617-2.617v-1.346a5.704 5.704 0 0 1 3.91 3.771c.011.064.032.128.053.192h-1.346z"/><path fill="#ED7161" d="M54.312 40.652a3.103 3.103 0 0 0-2.44 3.657 3.114 3.114 0 0 0 3.665 2.445 3.118 3.118 0 0 0 2.431-3.669 3.106 3.106 0 0 0-3.656-2.433zm2.361 2.693a1.792 1.792 0 0 1-1.396 2.115 1.798 1.798 0 0 1-2.117-1.41 1.801 1.801 0 0 1 1.411-2.111 1.794 1.794 0 0 1 2.102 1.406z"/><path fill="#E6E6E6" d="m49.971 55.269-1.008.078a5.589 5.589 0 0 0-1.366-2.038l.454-.902a.202.202 0 0 0-.069-.26l-1.072-.714a.202.202 0 0 0-.266.037l-.657.767a5.577 5.577 0 0 0-2.407-.473l-.317-.96a.203.203 0 0 0-.232-.135l-1.263.253a.202.202 0 0 0-.162.214l.078 1.008a5.599 5.599 0 0 0-2.038 1.365l-.902-.454a.203.203 0 0 0-.26.069l-.714 1.072a.202.202 0 0 0 .037.266l.767.657a5.595 5.595 0 0 0-.473 2.407l-.96.317a.203.203 0 0 0-.135.232l.254 1.263c.02.101.112.17.214.162l1.008-.078a5.599 5.599 0 0 0 1.365 2.038l-.454.902a.203.203 0 0 0 .069.26l1.072.714c.085.057.2.041.266-.037l.657-.767a5.577 5.577 0 0 0 2.407.473l.317.96a.203.203 0 0 0 .232.135l1.263-.253c.1-.02.17-.112.162-.214l-.078-1.008a5.589 5.589 0 0 0 2.038-1.366l.902.454a.203.203 0 0 0 .26-.069l.714-1.072a.202.202 0 0 0-.037-.266l-.767-.656a5.577 5.577 0 0 0 .473-2.407l.96-.317a.203.203 0 0 0 .135-.232l-.253-1.263a.202.202 0 0 0-.214-.162zm-5.806 4.325a2.252 2.252 0 1 1-.887-4.417 2.251 2.251 0 1 1 .887 4.417z"/><path fill="#CCC" d="M43.106 54.314a3.133 3.133 0 1 0 1.234 6.143 3.133 3.133 0 0 0-1.234-6.143zm1.059 5.28a2.252 2.252 0 1 1-.887-4.417 2.251 2.251 0 1 1 .887 4.417z"/><path fill="#3AB7FC" d="m61.708 57.498-.729.056a4.04 4.04 0 0 0-.988-1.474l.328-.652a.147.147 0 0 0-.05-.188l-.775-.516a.147.147 0 0 0-.193.027l-.475.555a4.049 4.049 0 0 0-1.741-.342l-.229-.694a.147.147 0 0 0-.168-.098l-.913.183a.146.146 0 0 0-.117.155l.056.729a4.05 4.05 0 0 0-1.474.987l-.652-.328a.147.147 0 0 0-.188.05l-.516.775a.145.145 0 0 0 .027.192l.555.475a4.049 4.049 0 0 0-.342 1.741l-.694.229a.147.147 0 0 0-.098.168l.183.913a.146.146 0 0 0 .155.117l.729-.056a4.05 4.05 0 0 0 .987 1.474l-.328.652a.147.147 0 0 0 .05.188l.775.516c.062.041.144.03.193-.027l.475-.555c.538.237 1.13.358 1.741.342l.229.694c.023.07.095.112.168.098l.913-.183a.146.146 0 0 0 .117-.155l-.056-.729a4.05 4.05 0 0 0 1.474-.987l.652.328a.147.147 0 0 0 .188-.05l.516-.775a.145.145 0 0 0-.027-.192l-.555-.475c.237-.538.358-1.13.342-1.741l.694-.229a.147.147 0 0 0 .098-.168l-.183-.913a.144.144 0 0 0-.154-.117zm-4.199 3.127a1.629 1.629 0 1 1-.641-3.195 1.63 1.63 0 0 1 1.918 1.277 1.628 1.628 0 0 1-1.277 1.918z"/><path fill="#48A0DC" d="M56.743 56.807a2.266 2.266 0 1 0 .893 4.443 2.266 2.266 0 0 0-.893-4.443zm.766 3.818a1.629 1.629 0 1 1-.641-3.195 1.63 1.63 0 0 1 1.918 1.277 1.628 1.628 0 0 1-1.277 1.918z"/></svg>